SplineFontDB: 3.2
FontName: Entity-Black
FullName: Entity Black
FamilyName: Entity
Weight: Black
Copyright: Based on Geist Copyright 2024 The Geist Project Authors https:github.comvercelgeist-font.git
Version: 0.1
ItalicAngle: 0
UnderlinePosition: -125
UnderlineWidth: 50
Ascent: 800
Descent: 200
InvalidEm: 0
sfntRevision: 0x0000199a
LayerCount: 2
Layer: 0 0 "Back" 1
Layer: 1 0 "Fore" 0
XUID: [1021 1008 -1557834819 16207451]
StyleMap: 0x0040
FSType: 0
OS2Version: 4
OS2_WeightWidthSlopeOnly: 0
OS2_UseTypoMetrics: 1
CreationTime: 1728311655
ModificationTime: 1746832012
PfmFamily: 81
TTFWeight: 900
TTFWidth: 5
LineGap: 0
VLineGap: 0
Panose: 0 0 0 0 0 0 0 0 0 0
OS2TypoAscent: 1005
OS2TypoAOffset: 0
OS2TypoDescent: -295
OS2TypoDOffset: 0
OS2TypoLinegap: 0
OS2WinAscent: 1012
OS2WinAOffset: 0
OS2WinDescent: 262
OS2WinDOffset: 0
HheadAscent: 1005
HheadAOffset: 0
HheadDescent: -295
HheadDOffset: 0
OS2SubXSize: 650
OS2SubYSize: 600
OS2SubXOff: 0
OS2SubYOff: 75
OS2SupXSize: 650
OS2SupYSize: 600
OS2SupXOff: 0
OS2SupYOff: 350
OS2StrikeYSize: 50
OS2StrikeYPos: 324
OS2CapHeight: 710
OS2XHeight: 540
OS2Vendor: 'VRCL'
OS2CodePages: 20000097.00000000
OS2UnicodeRanges: a10002ff.5001e5fb.00000000.00000000
Lookup: 1 0 0 "'aalt' Access All Alternates in Latin lookup 0" { "'aalt' Access All Alternates in Latin lookup 0 subtable"  } ['aalt' ('DFLT' <'dflt' > 'latn' <'AZE ' 'CAT ' 'CRT ' 'KAZ ' 'MAH ' 'MOL ' 'NLD ' 'ROM ' 'TAT ' 'TRK ' 'dflt' > ) ]
Lookup: 3 0 0 "'aalt' Access All Alternates in Latin lookup 1" { "'aalt' Access All Alternates in Latin lookup 1 subtable"  } ['aalt' ('DFLT' <'dflt' > 'latn' <'AZE ' 'CAT ' 'CRT ' 'KAZ ' 'MAH ' 'MOL ' 'NLD ' 'ROM ' 'TAT ' 'TRK ' 'dflt' > ) ]

StartChar: .notdef
Encoding: 65536 -1 0
Width: 600
GlyphClass: 1
Flags: MW
HStem: 0 36<95 510 95 565> 674 36<95 95 95 510>
VStem: 40 33<64 646 64 710> 532 33<64 646 646 646>
LayerCount: 2
Fore
SplineSet
40 0 m 1
 40 710 l 1
 565 710 l 1
 565 0 l 1
 40 0 l 1
95 674 m 1
 303 384 l 1
 510 674 l 1
 95 674 l 1
73 646 m 1
 73 64 l 1
 282 355 l 1
 73 646 l 1
323 355 m 1
 532 64 l 1
 532 646 l 1
 323 355 l 1
95 36 m 1
 510 36 l 1
 303 326 l 1
 95 36 l 1
EndSplineSet
EndChar

StartChar: A
Encoding: 65 65 1
Width: 771
GlyphClass: 2
Flags: MW
HStem: 0 21G<18 18 18 217 553 553 553 753> 117 152<309 462 309 513 257 462> 690 20G<274 497 497 497>
VStem: 18 735<0 0>
AnchorPoint: "Anchor-3" 386 710 basechar 0
AnchorPoint: "Anchor-2" 753 0 basechar 0
AnchorPoint: "Anchor-0" 386 0 basechar 0
LayerCount: 2
Fore
SplineSet
18 0 m 1
 274 710 l 1
 497 710 l 1
 753 0 l 1
 553 0 l 1
 513 117 l 1
 257 117 l 1
 217 0 l 1
 18 0 l 1
309 269 m 1
 462 269 l 1
 386 494 l 1
 309 269 l 1
EndSplineSet
Substitution2: "Single Substitution lookup 27 subtable" ordfeminine
Substitution2: "'aalt' Access All Alternates in Latin lookup 0 subtable" ordfeminine
EndChar

StartChar: Aacute
Encoding: 193 193 2
Width: 771
GlyphClass: 2
Flags: MW
HStem: 0 21G<18 18 18 217 553 553 553 753> 117 152<309 462 309 513 257 462> 690 20G<274 497 497 497> 757 160<297 531 351 441>
VStem: 18 735<0 0>
AnchorPoint: "Anchor-3" 386 710 basechar 0
AnchorPoint: "Anchor-2" 753 0 basechar 0
AnchorPoint: "Anchor-0" 386 0 basechar 0
LayerCount: 2
Fore
SplineSet
297 757 m 1
 351 917 l 1
 531 917 l 1
 441 757 l 1
 297 757 l 1
18 0 m 1
 274 710 l 1
 497 710 l 1
 753 0 l 1
 553 0 l 1
 513 117 l 1
 257 117 l 1
 217 0 l 1
 18 0 l 1
309 269 m 1
 462 269 l 1
 386 494 l 1
 309 269 l 1
EndSplineSet
EndChar

StartChar: Abreve
Encoding: 258 258 3
Width: 771
GlyphClass: 2
Flags: MW
HStem: 0 21G<18 18 18 217 553 553 553 753> 117 152<309 462 309 513 257 462> 690 20G<274 497 497 497> 754 96<368 404 368 436> 754 160<218 436>
VStem: 18 735<0 0> 218 106<914 914> 448 106<914 914>
AnchorPoint: "Anchor-3" 386 710 basechar 0
AnchorPoint: "Anchor-2" 753 0 basechar 0
AnchorPoint: "Anchor-0" 386 0 basechar 0
LayerCount: 2
Fore
SplineSet
386 754 m 0xe9
 286 754 222 810 218 914 c 1xea
 324 914 l 1
 328 868 350 850 386 850 c 0xf3
 422 850 444 868 448 914 c 1
 554 914 l 1
 550 810 486 754 386 754 c 0xe9
18 0 m 1
 274 710 l 1
 497 710 l 1
 753 0 l 1
 553 0 l 1
 513 117 l 1
 257 117 l 1
 217 0 l 1xec
 18 0 l 1
309 269 m 1
 462 269 l 1
 386 494 l 1
 309 269 l 1
EndSplineSet
EndChar

StartChar: uni01CD
Encoding: 461 461 4
Width: 771
GlyphClass: 2
Flags: MW
HStem: 0 21G<18 18 18 217 553 553 553 753> 117 152<309 462 309 513 257 462> 690 20G<274 497 497 497> 757 166<297 325 447 475 297 297>
VStem: 18 735<0 0>
AnchorPoint: "Anchor-3" 386 710 basechar 0
AnchorPoint: "Anchor-2" 753 0 basechar 0
AnchorPoint: "Anchor-0" 386 0 basechar 0
LayerCount: 2
Fore
SplineSet
197 923 m 1
 325 923 l 1
 386 835 l 1
 447 923 l 1
 575 923 l 1
 475 757 l 1
 297 757 l 1
 197 923 l 1
18 0 m 1
 274 710 l 1
 497 710 l 1
 753 0 l 1
 553 0 l 1
 513 117 l 1
 257 117 l 1
 217 0 l 1
 18 0 l 1
309 269 m 1
 462 269 l 1
 386 494 l 1
 309 269 l 1
EndSplineSet
EndChar

StartChar: Acircumflex
Encoding: 194 194 5
Width: 771
GlyphClass: 2
Flags: MW
HStem: 0 21G<18 18 18 217 553 553 553 753> 117 152<309 462 309 513 257 462> 690 20G<274 497 497 497> 757 166<197 475 297 325 447 447 447 475 297 575>
VStem: 18 735<0 0>
AnchorPoint: "Anchor-3" 386 710 basechar 0
AnchorPoint: "Anchor-2" 753 0 basechar 0
AnchorPoint: "Anchor-0" 386 0 basechar 0
LayerCount: 2
Fore
SplineSet
197 757 m 1
 297 923 l 1
 475 923 l 1
 575 757 l 1
 447 757 l 1
 386 845 l 1
 325 757 l 1
 197 757 l 1
18 0 m 1
 274 710 l 1
 497 710 l 1
 753 0 l 1
 553 0 l 1
 513 117 l 1
 257 117 l 1
 217 0 l 1
 18 0 l 1
309 269 m 1
 462 269 l 1
 386 494 l 1
 309 269 l 1
EndSplineSet
EndChar

StartChar: Adieresis
Encoding: 196 196 6
Width: 771
GlyphClass: 2
Flags: MW
HStem: 0 21G<18 18 18 217 553 553 553 753> 117 152<309 462 309 513 257 462> 690 20G<274 497 497 497> 760 136<175 355 175 355 417 597 175 417>
VStem: 175 180<760 896 760 896> 417 180<760 896 760 896>
AnchorPoint: "Anchor-3" 386 710 basechar 0
AnchorPoint: "Anchor-2" 753 0 basechar 0
AnchorPoint: "Anchor-0" 386 0 basechar 0
LayerCount: 2
Fore
SplineSet
175 760 m 1
 175 896 l 1
 355 896 l 1
 355 760 l 1
 175 760 l 1
417 760 m 1
 417 896 l 1
 597 896 l 1
 597 760 l 1
 417 760 l 1
18 0 m 1
 274 710 l 1
 497 710 l 1
 753 0 l 1
 553 0 l 1
 513 117 l 1
 257 117 l 1
 217 0 l 1
 18 0 l 1
309 269 m 1
 462 269 l 1
 386 494 l 1
 309 269 l 1
EndSplineSet
Substitution2: "'ss08' Style Set 8 in Latin lookup 41 subtable" Adieresis.ss08
Substitution2: "'aalt' Access All Alternates in Latin lookup 0 subtable" Adieresis.ss08
EndChar

StartChar: Agrave
Encoding: 192 192 7
Width: 771
GlyphClass: 2
Flags: MW
HStem: 0 21G<18 18 18 217 553 553 553 753> 117 152<309 462 309 513 257 462> 690 20G<274 497 497 497> 764 160<327 327 327 417 237 471>
VStem: 18 735<0 0>
AnchorPoint: "Anchor-3" 386 710 basechar 0
AnchorPoint: "Anchor-2" 753 0 basechar 0
AnchorPoint: "Anchor-0" 386 0 basechar 0
LayerCount: 2
Fore
SplineSet
327 764 m 1
 237 924 l 1
 417 924 l 1
 471 764 l 1
 327 764 l 1
18 0 m 1
 274 710 l 1
 497 710 l 1
 753 0 l 1
 553 0 l 1
 513 117 l 1
 257 117 l 1
 217 0 l 1
 18 0 l 1
309 269 m 1
 462 269 l 1
 386 494 l 1
 309 269 l 1
EndSplineSet
EndChar

StartChar: Amacron
Encoding: 256 256 8
Width: 771
GlyphClass: 2
Flags: MW
HStem: 0 21G<18 18 18 217 553 553 553 753> 117 152<309 462 309 513 257 462> 690 20G<274 497 497 497> 765 135<226 546 226 546>
VStem: 226 320<765 900 765 900>
AnchorPoint: "Anchor-3" 386 710 basechar 0
AnchorPoint: "Anchor-2" 753 0 basechar 0
AnchorPoint: "Anchor-0" 386 0 basechar 0
LayerCount: 2
Fore
SplineSet
226 765 m 1
 226 900 l 1
 546 900 l 1
 546 765 l 1
 226 765 l 1
18 0 m 1
 274 710 l 1
 497 710 l 1
 753 0 l 1
 553 0 l 1
 513 117 l 1
 257 117 l 1
 217 0 l 1
 18 0 l 1
309 269 m 1
 462 269 l 1
 386 494 l 1
 309 269 l 1
EndSplineSet
EndChar

StartChar: Aogonek
Encoding: 260 260 9
Width: 771
GlyphClass: 2
Flags: MW
HStem: -222 104<630.5 726> 0 21G<18 18 18 217 553 553 553 603 753 753> 117 152<309 462 309 513 257 462> 690 20G<274 497 497 497>
VStem: 18 773<-196 0> 544 150<-157 -85.5>
AnchorPoint: "Anchor-3" 386 710 basechar 0
AnchorPoint: "Anchor-2" 753 0 basechar 0
AnchorPoint: "Anchor-0" 386 0 basechar 0
LayerCount: 2
Fore
SplineSet
18 0 m 1x78
 274 710 l 1
 497 710 l 1
 753 0 l 1
 726 -34 l 2
 710 -55 694 -77 694 -94 c 0xf4
 694 -111 706 -118 718 -118 c 0
 734 -118 753 -112 761 -106 c 1
 791 -196 l 1xf8
 771 -210 719 -222 671 -222 c 0
 590 -222 544 -188 544 -126 c 0xf4
 544 -84 566 -48 589 -18 c 2
 603 0 l 1
 553 0 l 1
 513 117 l 1
 257 117 l 1
 217 0 l 1
 18 0 l 1x78
309 269 m 1
 462 269 l 1
 386 494 l 1
 309 269 l 1
EndSplineSet
EndChar

StartChar: Aring
Encoding: 197 197 10
Width: 780
GlyphClass: 2
Flags: MW
HStem: 0 21G<9 9 9 208 544 544 544 744> 117 152<300 453 300 504 248 453> 690 20G<265 488 488 488> 754 74<375 395 375 416> 896 74<375 395>
VStem: 275 76<852 872 852 893> 419 76<852 872>
AnchorPoint: "Anchor-3" 377 710 basechar 0
AnchorPoint: "Anchor-2" 744 0 basechar 0
AnchorPoint: "Anchor-0" 377 0 basechar 0
LayerCount: 2
Fore
SplineSet
385 754 m 0
 323 754 275 800 275 862 c 0
 275 924 323 970 385 970 c 0
 447 970 495 924 495 862 c 0
 495 800 447 754 385 754 c 0
385 828 m 0
 405 828 419 842 419 862 c 0
 419 882 405 896 385 896 c 0
 365 896 351 882 351 862 c 0
 351 842 365 828 385 828 c 0
9 0 m 1
 265 710 l 1
 488 710 l 1
 744 0 l 1
 544 0 l 1
 504 117 l 1
 248 117 l 1
 208 0 l 1
 9 0 l 1
300 269 m 1
 453 269 l 1
 377 494 l 1
 300 269 l 1
EndSplineSet
EndChar

StartChar: Atilde
Encoding: 195 195 11
Width: 780
GlyphClass: 2
Flags: MW
HStem: 0 21G<9 9 9 208 544 544 544 744> 117 152<300 453 300 504 248 453> 690 20G<265 488 488 488> 769 159<284.5 293 203 340> 774 111<435 448.5 435 479.5> 774 160<474 479.5> 817 111<320 333>
VStem: 203 90<769 816> 474 90<885.5 934>
AnchorPoint: "Anchor-3" 377 710 basechar 0
AnchorPoint: "Anchor-2" 744 0 basechar 0
AnchorPoint: "Anchor-0" 377 0 basechar 0
LayerCount: 2
Fore
SplineSet
438 774 m 0xe580
 404 774 386 780 358 804 c 0
 348 812 338 817 328 817 c 0xe380
 312 817 297 806 293 769 c 1
 203 769 l 1
 203 863 245 928 324 928 c 0xf180
 356 928 381 921 409 899 c 0
 422 889 430 885 440 885 c 0xe980
 457 885 472 895 474 934 c 1
 564 934 l 1
 564 837 521 774 438 774 c 0xe580
9 0 m 1
 265 710 l 1
 488 710 l 1
 744 0 l 1
 544 0 l 1
 504 117 l 1
 248 117 l 1
 208 0 l 1
 9 0 l 1
300 269 m 1
 453 269 l 1
 377 494 l 1
 300 269 l 1
EndSplineSet
EndChar

StartChar: AE
Encoding: 198 198 12
Width: 1089
GlyphClass: 2
Flags: MW
HStem: 0 157<741 1051 741 1051> 118 150<359 545 359 545 281 545> 278 156<741 1031 741 1031> 553 157<741 1043 741 741> 554 156<507 545 507 507>
VStem: 545 196<0 278 118 278 268 278 434 553>
AnchorPoint: "Anchor-3" 591 710 basechar 0
AnchorPoint: "Anchor-0" 591 0 basechar 0
LayerCount: 2
Fore
SplineSet
18 0 m 1xb4
 398 710 l 1
 1043 710 l 1
 1043 553 l 1
 741 553 l 1
 741 434 l 1
 1031 434 l 1
 1031 278 l 1
 741 278 l 1
 741 157 l 1
 1051 157 l 1
 1051 0 l 1
 545 0 l 1xb4
 545 118 l 1
 281 118 l 1x54
 220 0 l 1
 18 0 l 1xb4
545 554 m 1x4c
 507 554 l 1
 359 268 l 1
 545 268 l 1
 545 554 l 1x4c
EndSplineSet
EndChar

StartChar: B
Encoding: 66 66 13
Width: 718
GlyphClass: 2
Flags: MW
HStem: 0 150<258 377 377 390> 297 128<258 352 352 377 258 352> 560 150<258 352 258 258>
VStem: 62 196<150 150 150 297 425 560> 449 196<473 516> 479 196<197.5 245.5 129.5 248.5>
AnchorPoint: "Anchor-3" 359 710 basechar 0
AnchorPoint: "Anchor-0" 359 0 basechar 0
LayerCount: 2
Fore
SplineSet
62 0 m 1xf4
 62 710 l 1
 360 710 l 2
 541 710 645 650 645 516 c 0xf8
 645 430 594 380 498 368 c 1
 498 366 l 1
 617 354 675 295 675 196 c 0
 675 63 573 0 390 0 c 2
 62 0 l 1xf4
258 425 m 1
 352 425 l 2
 408 425 449 446 449 492 c 0
 449 540 409 560 352 560 c 2
 258 560 l 1
 258 425 l 1
258 150 m 1
 377 150 l 2
 434 150 479 172 479 223 c 0xf4
 479 274 435 297 377 297 c 2
 258 297 l 1
 258 150 l 1
EndSplineSet
EndChar

StartChar: C
Encoding: 67 67 14
Width: 755
GlyphClass: 2
Flags: MW
HStem: -16 157<339.5 423.5 339.5 480> 569 157<338 421>
VStem: 40 201<289 417 289 466>
AnchorPoint: "Anchor-3" 387 710 basechar 0
AnchorPoint: "Anchor-0" 387 0 basechar 0
LayerCount: 2
Fore
SplineSet
383 -16 m 0
 185 -16 40 120 40 354 c 0
 40 578 173 726 387 726 c 0
 582 726 688 629 719 448 c 1
 516 441 l 1
 502 522 455 569 387 569 c 0
 289 569 241 480 241 354 c 0
 241 224 294 141 385 141 c 0
 462 141 504 190 516 277 c 1
 720 270 l 1
 689 84 577 -16 383 -16 c 0
EndSplineSet
EndChar

StartChar: Cacute
Encoding: 262 262 15
Width: 755
GlyphClass: 2
Flags: MW
HStem: -16 157<339.5 423.5 339.5 480> 569 157<338 421> 757 160<298 532 352 442>
VStem: 40 201<289 417 289 466>
AnchorPoint: "Anchor-3" 387 710 basechar 0
AnchorPoint: "Anchor-0" 387 0 basechar 0
LayerCount: 2
Fore
SplineSet
298 757 m 1
 352 917 l 1
 532 917 l 1
 442 757 l 1
 298 757 l 1
383 -16 m 0
 185 -16 40 120 40 354 c 0
 40 578 173 726 387 726 c 0
 582 726 688 629 719 448 c 1
 516 441 l 1
 502 522 455 569 387 569 c 0
 289 569 241 480 241 354 c 0
 241 224 294 141 385 141 c 0
 462 141 504 190 516 277 c 1
 720 270 l 1
 689 84 577 -16 383 -16 c 0
EndSplineSet
EndChar

StartChar: Ccaron
Encoding: 268 268 16
Width: 755
GlyphClass: 2
Flags: MW
HStem: -16 157<339.5 423.5 339.5 480> 569 157<338 421> 757 166<298 326 448 476 298 298>
VStem: 40 201<289 417 289 466>
AnchorPoint: "Anchor-3" 387 710 basechar 0
AnchorPoint: "Anchor-0" 387 0 basechar 0
LayerCount: 2
Fore
SplineSet
198 923 m 1
 326 923 l 1
 387 835 l 1
 448 923 l 1
 576 923 l 1
 476 757 l 1
 298 757 l 1
 198 923 l 1
383 -16 m 0
 185 -16 40 120 40 354 c 0
 40 578 173 726 387 726 c 0
 582 726 688 629 719 448 c 1
 516 441 l 1
 502 522 455 569 387 569 c 0
 289 569 241 480 241 354 c 0
 241 224 294 141 385 141 c 0
 462 141 504 190 516 277 c 1
 720 270 l 1
 689 84 577 -16 383 -16 c 0
EndSplineSet
EndChar

StartChar: Ccedilla
Encoding: 199 199 17
Width: 755
GlyphClass: 2
Flags: MW
HStem: -240 84<365 393 365 420.5> -154 21G<248 248> -13 21G<333 333> 569 157<338 421>
VStem: 40 201<289 417 289 466> 424 96<-133 -111 -167 -28>
AnchorPoint: "Anchor-3" 387 710 basechar 0
AnchorPoint: "Anchor-0" 387 0 basechar 0
LayerCount: 2
Fore
SplineSet
384 -240 m 0
 315 -240 268 -206 248 -154 c 1x7c
 324 -120 l 1
 334 -143 350 -156 380 -156 c 0
 406 -156 424 -144 424 -122 c 0
 424 -100 412 -86 366 -86 c 1
 317 -42 l 1
 333 -13 l 1
 161 8 40 140 40 354 c 0
 40 578 173 726 387 726 c 0
 582 726 688 629 719 448 c 1
 516 441 l 1
 502 522 455 569 387 569 c 0
 289 569 241 480 241 354 c 0
 241 224 294 141 385 141 c 0
 462 141 504 190 516 277 c 1
 720 270 l 1
 692 100 596 2 433 -14 c 1
 424 -28 l 1
 492 -36 520 -78 520 -126 c 0
 520 -208 457 -240 384 -240 c 0
EndSplineSet
EndChar

StartChar: Ccircumflex
Encoding: 264 264 18
Width: 755
GlyphClass: 2
Flags: MW
HStem: -16 157<339.5 423.5 339.5 480> 569 157<338 421> 757 166<198 476 298 326 448 448 448 476 298 576>
VStem: 40 201<289 417 289 466>
AnchorPoint: "Anchor-3" 387 710 basechar 0
AnchorPoint: "Anchor-0" 387 0 basechar 0
LayerCount: 2
Fore
SplineSet
198 757 m 1
 298 923 l 1
 476 923 l 1
 576 757 l 1
 448 757 l 1
 387 845 l 1
 326 757 l 1
 198 757 l 1
383 -16 m 0
 185 -16 40 120 40 354 c 0
 40 578 173 726 387 726 c 0
 582 726 688 629 719 448 c 1
 516 441 l 1
 502 522 455 569 387 569 c 0
 289 569 241 480 241 354 c 0
 241 224 294 141 385 141 c 0
 462 141 504 190 516 277 c 1
 720 270 l 1
 689 84 577 -16 383 -16 c 0
EndSplineSet
EndChar

StartChar: Cdotaccent
Encoding: 266 266 19
Width: 755
GlyphClass: 2
Flags: MW
HStem: -16 157<339.5 423.5 339.5 480> 569 157<338 421> 764 136<287 487 287 487>
VStem: 40 201<289 417 289 466> 287 200<764 900 764 900>
AnchorPoint: "Anchor-3" 387 710 basechar 0
AnchorPoint: "Anchor-0" 387 0 basechar 0
LayerCount: 2
Fore
SplineSet
287 764 m 1
 287 900 l 1
 487 900 l 1
 487 764 l 1
 287 764 l 1
383 -16 m 0
 185 -16 40 120 40 354 c 0
 40 578 173 726 387 726 c 0
 582 726 688 629 719 448 c 1
 516 441 l 1
 502 522 455 569 387 569 c 0
 289 569 241 480 241 354 c 0
 241 224 294 141 385 141 c 0
 462 141 504 190 516 277 c 1
 720 270 l 1
 689 84 577 -16 383 -16 c 0
EndSplineSet
Substitution2: "'ss08' Style Set 8 in Latin lookup 41 subtable" Cdotaccent.ss08
Substitution2: "'aalt' Access All Alternates in Latin lookup 0 subtable" Cdotaccent.ss08
EndChar

StartChar: D
Encoding: 68 68 20
Width: 734
GlyphClass: 2
Flags: MW
HStem: 0 157<258 323 323 329> 553 157<258 323 258 258>
VStem: 62 196<157 157 157 553> 493 201<287 423>
AnchorPoint: "Anchor-3" 327 710 basechar 0
AnchorPoint: "Anchor-1" 216 355 basechar 0
AnchorPoint: "Anchor-0" 328 0 basechar 0
LayerCount: 2
Fore
SplineSet
62 0 m 1
 62 710 l 1
 323 710 l 2
 561 710 694 582 694 354 c 0
 694 127 563 0 329 0 c 2
 62 0 l 1
258 157 m 1
 323 157 l 2
 441 157 493 219 493 355 c 0
 493 491 441 553 323 553 c 2
 258 553 l 1
 258 157 l 1
EndSplineSet
EndChar

StartChar: Dcaron
Encoding: 270 270 21
Width: 734
GlyphClass: 2
Flags: MW
HStem: 0 157<258 323 323 329> 553 157<258 323 258 258> 757 166<238 266 388 416 238 238>
VStem: 62 196<157 157 157 553> 493 201<287 423>
AnchorPoint: "Anchor-3" 327 710 basechar 0
AnchorPoint: "Anchor-1" 216 355 basechar 0
AnchorPoint: "Anchor-0" 328 0 basechar 0
LayerCount: 2
Fore
SplineSet
138 923 m 1
 266 923 l 1
 327 835 l 1
 388 923 l 1
 516 923 l 1
 416 757 l 1
 238 757 l 1
 138 923 l 1
62 0 m 1
 62 710 l 1
 323 710 l 2
 561 710 694 582 694 354 c 0
 694 127 563 0 329 0 c 2
 62 0 l 1
258 157 m 1
 323 157 l 2
 441 157 493 219 493 355 c 0
 493 491 441 553 323 553 c 2
 258 553 l 1
 258 157 l 1
EndSplineSet
EndChar

StartChar: Dcroat
Encoding: 272 272 22
Width: 734
GlyphClass: 2
Flags: MW
HStem: 0 157<258 323 323 329> 285 140<1 62 1 62 258 431> 553 157<258 323 258 258>
VStem: 62 196<157 157 157 285 157 285 425 553> 493 201<287 423>
AnchorPoint: "Anchor-3" 327 710 basechar 0
AnchorPoint: "Anchor-1" 216 355 basechar 0
AnchorPoint: "Anchor-0" 328 0 basechar 0
LayerCount: 2
Fore
SplineSet
62 0 m 1
 62 285 l 1
 1 285 l 1
 1 425 l 1
 62 425 l 1
 62 710 l 1
 323 710 l 2
 561 710 694 582 694 354 c 0
 694 127 563 0 329 0 c 2
 62 0 l 1
258 157 m 1
 323 157 l 2
 441 157 493 219 493 355 c 0
 493 491 441 553 323 553 c 2
 258 553 l 1
 258 425 l 1
 431 425 l 1
 431 285 l 1
 258 285 l 1
 258 157 l 1
EndSplineSet
EndChar

StartChar: Eth
Encoding: 208 208 23
Width: 734
GlyphClass: 2
Flags: MW
HStem: 0 157<258 323 323 329> 285 140<1 62 1 62 258 431> 553 157<258 323 258 258>
VStem: 62 196<157 157 157 285 157 285 425 553> 493 201<287 423>
AnchorPoint: "Anchor-3" 327 710 basechar 0
AnchorPoint: "Anchor-1" 216 355 basechar 0
AnchorPoint: "Anchor-0" 328 0 basechar 0
LayerCount: 2
Fore
SplineSet
62 0 m 1
 62 285 l 1
 1 285 l 1
 1 425 l 1
 62 425 l 1
 62 710 l 1
 323 710 l 2
 561 710 694 582 694 354 c 0
 694 127 563 0 329 0 c 2
 62 0 l 1
258 157 m 1
 323 157 l 2
 441 157 493 219 493 355 c 0
 493 491 441 553 323 553 c 2
 258 553 l 1
 258 425 l 1
 431 425 l 1
 431 285 l 1
 258 285 l 1
 258 157 l 1
EndSplineSet
EndChar

StartChar: E
Encoding: 69 69 24
Width: 634
GlyphClass: 2
Flags: MW
HStem: 0 157<258 596 258 596> 278 156<258 576 258 576> 553 157<258 588 258 258>
VStem: 62 196<157 278 434 553>
AnchorPoint: "Anchor-3" 325 710 basechar 0
AnchorPoint: "Anchor-2" 596 0 basechar 0
AnchorPoint: "Anchor-0" 325 0 basechar 0
LayerCount: 2
Fore
SplineSet
62 0 m 1
 62 710 l 1
 588 710 l 1
 588 553 l 1
 258 553 l 1
 258 434 l 1
 576 434 l 1
 576 278 l 1
 258 278 l 1
 258 157 l 1
 596 157 l 1
 596 0 l 1
 62 0 l 1
EndSplineSet
EndChar

StartChar: Eacute
Encoding: 201 201 25
Width: 634
GlyphClass: 2
Flags: MW
HStem: 0 157<258 596 258 596> 278 156<258 576 258 576> 553 157<258 588 258 258> 757 160<236 470 290 380>
VStem: 62 196<157 278 434 553>
AnchorPoint: "Anchor-3" 325 710 basechar 0
AnchorPoint: "Anchor-2" 596 0 basechar 0
AnchorPoint: "Anchor-0" 325 0 basechar 0
LayerCount: 2
Fore
SplineSet
236 757 m 1
 290 917 l 1
 470 917 l 1
 380 757 l 1
 236 757 l 1
62 0 m 1
 62 710 l 1
 588 710 l 1
 588 553 l 1
 258 553 l 1
 258 434 l 1
 576 434 l 1
 576 278 l 1
 258 278 l 1
 258 157 l 1
 596 157 l 1
 596 0 l 1
 62 0 l 1
EndSplineSet
EndChar

StartChar: Ecaron
Encoding: 282 282 26
Width: 634
GlyphClass: 2
Flags: MW
HStem: 0 157<258 596 258 596> 278 156<258 576 258 576> 553 157<258 588 258 258> 757 166<236 264 386 414 236 236>
VStem: 62 196<157 278 434 553>
AnchorPoint: "Anchor-3" 325 710 basechar 0
AnchorPoint: "Anchor-2" 596 0 basechar 0
AnchorPoint: "Anchor-0" 325 0 basechar 0
LayerCount: 2
Fore
SplineSet
136 923 m 1
 264 923 l 1
 325 835 l 1
 386 923 l 1
 514 923 l 1
 414 757 l 1
 236 757 l 1
 136 923 l 1
62 0 m 1
 62 710 l 1
 588 710 l 1
 588 553 l 1
 258 553 l 1
 258 434 l 1
 576 434 l 1
 576 278 l 1
 258 278 l 1
 258 157 l 1
 596 157 l 1
 596 0 l 1
 62 0 l 1
EndSplineSet
EndChar

StartChar: Ecircumflex
Encoding: 202 202 27
Width: 634
GlyphClass: 2
Flags: MW
HStem: 0 157<258 596 258 596> 278 156<258 576 258 576> 553 157<258 588 258 258> 757 166<136 414 236 264 386 386 386 414 236 514>
VStem: 62 196<157 278 434 553>
AnchorPoint: "Anchor-3" 325 710 basechar 0
AnchorPoint: "Anchor-2" 596 0 basechar 0
AnchorPoint: "Anchor-0" 325 0 basechar 0
LayerCount: 2
Fore
SplineSet
136 757 m 1
 236 923 l 1
 414 923 l 1
 514 757 l 1
 386 757 l 1
 325 845 l 1
 264 757 l 1
 136 757 l 1
62 0 m 1
 62 710 l 1
 588 710 l 1
 588 553 l 1
 258 553 l 1
 258 434 l 1
 576 434 l 1
 576 278 l 1
 258 278 l 1
 258 157 l 1
 596 157 l 1
 596 0 l 1
 62 0 l 1
EndSplineSet
EndChar

StartChar: Edieresis
Encoding: 203 203 28
Width: 634
GlyphClass: 2
Flags: MW
HStem: 0 157<258 596 258 596> 278 156<258 576 258 576> 553 157<258 588 258 258> 760 136<114 294 114 294 356 536 114 356>
VStem: 62 196<157 278 434 553> 62 232<0 896 710 896> 114 180<760 896 760 896> 356 180<760 896 760 896> 356 232<553 896 553 896>
AnchorPoint: "Anchor-3" 325 710 basechar 0
AnchorPoint: "Anchor-2" 596 0 basechar 0
AnchorPoint: "Anchor-0" 325 0 basechar 0
LayerCount: 2
Fore
SplineSet
114 760 m 1xf3
 114 896 l 1xf3
 294 896 l 1
 294 760 l 1xf5
 114 760 l 1xf3
356 760 m 1
 356 896 l 1
 536 896 l 1
 536 760 l 1
 356 760 l 1
62 0 m 1xf880
 62 710 l 1
 588 710 l 1
 588 553 l 1
 258 553 l 1
 258 434 l 1
 576 434 l 1
 576 278 l 1
 258 278 l 1
 258 157 l 1
 596 157 l 1
 596 0 l 1
 62 0 l 1xf880
EndSplineSet
Substitution2: "'ss08' Style Set 8 in Latin lookup 41 subtable" Edieresis.ss08
Substitution2: "'aalt' Access All Alternates in Latin lookup 0 subtable" Edieresis.ss08
EndChar

StartChar: Edotaccent
Encoding: 278 278 29
Width: 634
GlyphClass: 2
Flags: MW
HStem: 0 157<258 596 258 596> 278 156<258 576 258 576> 553 157<258 588 258 258> 764 136<225 425 225 425>
VStem: 62 196<157 278 434 553> 225 200<764 900 764 900>
AnchorPoint: "Anchor-3" 325 710 basechar 0
AnchorPoint: "Anchor-2" 596 0 basechar 0
AnchorPoint: "Anchor-0" 325 0 basechar 0
LayerCount: 2
Fore
SplineSet
225 764 m 1xf4
 225 900 l 1
 425 900 l 1
 425 764 l 1
 225 764 l 1xf4
62 0 m 1xf8
 62 710 l 1
 588 710 l 1
 588 553 l 1
 258 553 l 1
 258 434 l 1
 576 434 l 1
 576 278 l 1
 258 278 l 1
 258 157 l 1
 596 157 l 1
 596 0 l 1
 62 0 l 1xf8
EndSplineSet
Substitution2: "'ss08' Style Set 8 in Latin lookup 41 subtable" Edotaccent.ss08
Substitution2: "'aalt' Access All Alternates in Latin lookup 0 subtable" Edotaccent.ss08
EndChar

StartChar: Egrave
Encoding: 200 200 30
Width: 634
GlyphClass: 2
Flags: MW
HStem: 0 157<258 596 258 596> 278 156<258 576 258 576> 553 157<258 588 258 258> 764 160<266 266 266 356 176 410>
VStem: 62 196<157 278 434 553>
AnchorPoint: "Anchor-3" 325 710 basechar 0
AnchorPoint: "Anchor-2" 596 0 basechar 0
AnchorPoint: "Anchor-0" 325 0 basechar 0
LayerCount: 2
Fore
SplineSet
266 764 m 1
 176 924 l 1
 356 924 l 1
 410 764 l 1
 266 764 l 1
62 0 m 1
 62 710 l 1
 588 710 l 1
 588 553 l 1
 258 553 l 1
 258 434 l 1
 576 434 l 1
 576 278 l 1
 258 278 l 1
 258 157 l 1
 596 157 l 1
 596 0 l 1
 62 0 l 1
EndSplineSet
EndChar

StartChar: Emacron
Encoding: 274 274 31
Width: 634
GlyphClass: 2
Flags: MW
HStem: 0 157<258 596 258 596> 278 156<258 576 258 576> 553 157<258 588 258 258> 765 135<165 485 165 485>
VStem: 62 196<157 278 434 553> 165 320<765 900 765 900>
AnchorPoint: "Anchor-3" 325 710 basechar 0
AnchorPoint: "Anchor-2" 596 0 basechar 0
AnchorPoint: "Anchor-0" 325 0 basechar 0
LayerCount: 2
Fore
SplineSet
165 765 m 1xf4
 165 900 l 1
 485 900 l 1
 485 765 l 1
 165 765 l 1xf4
62 0 m 1xf8
 62 710 l 1
 588 710 l 1
 588 553 l 1
 258 553 l 1
 258 434 l 1
 576 434 l 1
 576 278 l 1
 258 278 l 1
 258 157 l 1
 596 157 l 1
 596 0 l 1
 62 0 l 1xf8
EndSplineSet
EndChar

StartChar: Eogonek
Encoding: 280 280 32
Width: 634
GlyphClass: 2
Flags: MW
HStem: -222 104<473.5 569> 0 157<258 446 258 596> 278 156<258 576 258 576> 553 157<258 588 258 258>
VStem: 62 196<157 278 434 553> 387 150<-157 -85.5> 387 209<-157 157>
AnchorPoint: "Anchor-3" 325 710 basechar 0
AnchorPoint: "Anchor-2" 596 0 basechar 0
AnchorPoint: "Anchor-0" 325 0 basechar 0
LayerCount: 2
Fore
SplineSet
62 0 m 1xfa
 62 710 l 1
 588 710 l 1
 588 553 l 1
 258 553 l 1
 258 434 l 1
 576 434 l 1
 576 278 l 1
 258 278 l 1
 258 157 l 1
 596 157 l 1
 596 0 l 1x7a
 569 -34 l 2
 553 -55 537 -77 537 -94 c 0xfc
 537 -111 549 -118 561 -118 c 0
 577 -118 596 -112 604 -106 c 1
 634 -196 l 1
 614 -210 562 -222 514 -222 c 0
 433 -222 387 -188 387 -126 c 0
 387 -84 409 -48 432 -18 c 2
 446 0 l 1
 62 0 l 1xfa
EndSplineSet
EndChar

StartChar: uni1EBC
Encoding: 7868 7868 33
Width: 634
GlyphClass: 2
Flags: MW
HStem: 0 157<258 596 258 596> 278 156<258 576 258 576> 553 157<258 588 258 258> 759 159<225.5 234 144 281> 764 111<376 389.5 376 420.5> 764 160<415 420.5> 807 111<261 274>
VStem: 62 172<0 759 710 759> 62 196<157 278 434 553> 144 90<759 806> 415 90<875.5 924>
AnchorPoint: "Anchor-3" 325 710 basechar 0
AnchorPoint: "Anchor-2" 596 0 basechar 0
AnchorPoint: "Anchor-0" 325 0 basechar 0
LayerCount: 2
Fore
SplineSet
379 764 m 0xe4a0
 345 764 327 770 299 794 c 0
 289 802 279 807 269 807 c 0xe3
 253 807 238 796 234 759 c 1xf1
 144 759 l 1
 144 853 186 918 265 918 c 0xf040
 297 918 322 911 350 889 c 0
 363 879 371 875 381 875 c 0xe8a0
 398 875 413 885 415 924 c 1
 505 924 l 1
 505 827 462 764 379 764 c 0xe4a0
62 0 m 1xe080
 62 710 l 1
 588 710 l 1
 588 553 l 1
 258 553 l 1
 258 434 l 1
 576 434 l 1
 576 278 l 1
 258 278 l 1
 258 157 l 1
 596 157 l 1
 596 0 l 1
 62 0 l 1xe080
EndSplineSet
EndChar

StartChar: uni018F
Encoding: 399 399 34
Width: 787
GlyphClass: 1
Flags: MW
HStem: -16 157<354 433 354 482> 271 142<250 541 250 250> 569 157<362 430>
VStem: 40 707<354 413 413 413>
LayerCount: 2
Fore
SplineSet
747 355 m 0
 747 105 576 -16 388 -16 c 0
 200 -16 40 109 40 354 c 2
 40 413 l 1
 542 413 l 1
 527 512 473 569 387 569 c 0
 337 569 289 539 265 486 c 1
 59 495 l 1
 105 637 221 726 388 726 c 0
 593 726 747 599 747 355 c 0
391 141 m 0
 475 141 525 186 541 271 c 1
 250 271 l 1
 269 174 317 141 391 141 c 0
EndSplineSet
EndChar

StartChar: F
Encoding: 70 70 35
Width: 614
GlyphClass: 1
Flags: MW
HStem: 0 21G<62 62 62 258> 269 156<258 563 258 563> 553 157<258 581 258 258>
VStem: 62 196<0 269 425 553>
LayerCount: 2
Fore
SplineSet
62 0 m 1
 62 710 l 1
 581 710 l 1
 581 553 l 1
 258 553 l 1
 258 425 l 1
 563 425 l 1
 563 269 l 1
 258 269 l 1
 258 0 l 1
 62 0 l 1
EndSplineSet
EndChar

StartChar: G
Encoding: 71 71 36
Width: 764
GlyphClass: 2
Flags: MW
HStem: -16 157<342 426> 0 21G<605 719 605 605> 246 130<390 523 390 719> 569 157<343 428>
VStem: 40 201<290 418.5 290 461> 602 117
AnchorPoint: "Anchor-3" 391 710 basechar 0
AnchorPoint: "Anchor-0" 395 0 basechar 0
LayerCount: 2
Fore
SplineSet
375 -16 m 0xbc
 167 -16 40 132 40 354 c 0
 40 568 169 726 389 726 c 0
 583 726 682 631 717 467 c 1
 514 459 l 1
 502 529 465 569 391 569 c 0
 295 569 241 483 241 354 c 0
 241 226 289 141 395 141 c 0xbc
 468 141 513 179 523 246 c 1
 390 246 l 1
 390 376 l 1
 719 376 l 1
 719 0 l 1
 605 0 l 1x7c
 599 91 l 1
 561 25 477 -16 375 -16 c 0xbc
EndSplineSet
Substitution2: "'ss06' Style Set 6 in Latin lookup 39 subtable" G.ss06
Substitution2: "'aalt' Access All Alternates in Latin lookup 0 subtable" G.ss06
EndChar

StartChar: Gbreve
Encoding: 286 286 37
Width: 764
GlyphClass: 2
Flags: MW
HStem: -16 157<342 426> 0 21G<605 719 605 605> 246 130<390 523 390 719> 569 157<343 428> 754 96<373 409 373 441> 754 160<223 441>
VStem: 40 201<290 418.5 290 461> 223 106<914 914> 453 106<914 914> 602 117
AnchorPoint: "Anchor-3" 391 710 basechar 0
AnchorPoint: "Anchor-0" 395 0 basechar 0
LayerCount: 2
Fore
SplineSet
391 754 m 0xa6c0
 291 754 227 810 223 914 c 1xa540
 329 914 l 1
 333 868 355 850 391 850 c 0xa9c0
 427 850 449 868 453 914 c 1
 559 914 l 1
 555 810 491 754 391 754 c 0xa6c0
375 -16 m 0
 167 -16 40 132 40 354 c 0
 40 568 169 726 389 726 c 0
 583 726 682 631 717 467 c 1
 514 459 l 1
 502 529 465 569 391 569 c 0
 295 569 241 483 241 354 c 0
 241 226 289 141 395 141 c 0xb240
 468 141 513 179 523 246 c 1
 390 246 l 1
 390 376 l 1
 719 376 l 1
 719 0 l 1
 605 0 l 1x7240
 599 91 l 1
 561 25 477 -16 375 -16 c 0
EndSplineSet
Substitution2: "'ss06' Style Set 6 in Latin lookup 39 subtable" Gbreve.ss06
Substitution2: "'aalt' Access All Alternates in Latin lookup 0 subtable" Gbreve.ss06
EndChar

StartChar: Gcaron
Encoding: 486 486 38
Width: 764
GlyphClass: 2
Flags: MW
HStem: -16 157<342 426> 0 21G<605 719 605 605> 246 130<390 523 390 719> 569 157<343 428> 757 166<302 330 452 480 302 302>
VStem: 40 201<290 418.5 290 461> 602 117
AnchorPoint: "Anchor-3" 391 710 basechar 0
AnchorPoint: "Anchor-0" 395 0 basechar 0
LayerCount: 2
Fore
SplineSet
202 923 m 1xbe
 330 923 l 1
 391 835 l 1
 452 923 l 1
 580 923 l 1
 480 757 l 1
 302 757 l 1
 202 923 l 1xbe
375 -16 m 0
 167 -16 40 132 40 354 c 0
 40 568 169 726 389 726 c 0
 583 726 682 631 717 467 c 1
 514 459 l 1
 502 529 465 569 391 569 c 0
 295 569 241 483 241 354 c 0
 241 226 289 141 395 141 c 0xbe
 468 141 513 179 523 246 c 1
 390 246 l 1
 390 376 l 1
 719 376 l 1
 719 0 l 1
 605 0 l 1x7e
 599 91 l 1
 561 25 477 -16 375 -16 c 0
EndSplineSet
EndChar

StartChar: Gcircumflex
Encoding: 284 284 39
Width: 764
GlyphClass: 2
Flags: MW
HStem: -16 157<342 426> 0 21G<605 719 605 605> 246 130<390 523 390 719> 569 157<343 428> 757 166<202 480 302 330 452 452 452 480 302 580>
VStem: 40 201<290 418.5 290 461> 602 117
AnchorPoint: "Anchor-3" 391 710 basechar 0
AnchorPoint: "Anchor-0" 395 0 basechar 0
LayerCount: 2
Fore
SplineSet
202 757 m 1xbe
 302 923 l 1
 480 923 l 1
 580 757 l 1
 452 757 l 1
 391 845 l 1
 330 757 l 1
 202 757 l 1xbe
375 -16 m 0
 167 -16 40 132 40 354 c 0
 40 568 169 726 389 726 c 0
 583 726 682 631 717 467 c 1
 514 459 l 1
 502 529 465 569 391 569 c 0
 295 569 241 483 241 354 c 0
 241 226 289 141 395 141 c 0xbe
 468 141 513 179 523 246 c 1
 390 246 l 1
 390 376 l 1
 719 376 l 1
 719 0 l 1
 605 0 l 1x7e
 599 91 l 1
 561 25 477 -16 375 -16 c 0
EndSplineSet
Substitution2: "'ss06' Style Set 6 in Latin lookup 39 subtable" Gcircumflex.ss06
Substitution2: "'aalt' Access All Alternates in Latin lookup 0 subtable" Gcircumflex.ss06
EndChar

StartChar: uni0122
Encoding: 290 290 40
Width: 764
GlyphClass: 2
Flags: MW
HStem: -180 134<320 354 320 470> -16 157<342 426> 0 21G<605 719 605 605> 246 130<390 523 390 719> 569 157<343 428>
VStem: 40 201<290 418.5 290 461> 320 150<-166 -46 -166 -46 -166 -46> 602 117
AnchorPoint: "Anchor-3" 391 710 basechar 0
AnchorPoint: "Anchor-0" 395 -262 basechar 0
LayerCount: 2
Fore
SplineSet
375 -16 m 0x5f
 167 -16 40 132 40 354 c 0
 40 568 169 726 389 726 c 0
 583 726 682 631 717 467 c 1
 514 459 l 1
 502 529 465 569 391 569 c 0
 295 569 241 483 241 354 c 0
 241 226 289 141 395 141 c 0x5f
 468 141 513 179 523 246 c 1
 390 246 l 1
 390 376 l 1
 719 376 l 1
 719 0 l 1
 605 0 l 1x3f
 599 91 l 1
 561 25 477 -16 375 -16 c 0x5f
304 -262 m 1
 354 -180 l 1
 320 -180 l 1
 320 -46 l 1
 470 -46 l 1x9f
 470 -166 l 1
 412 -262 l 1
 304 -262 l 1
EndSplineSet
Substitution2: "'ss06' Style Set 6 in Latin lookup 39 subtable" uni0122.ss06
Substitution2: "'aalt' Access All Alternates in Latin lookup 0 subtable" uni0122.ss06
EndChar

StartChar: Gdotaccent
Encoding: 288 288 41
Width: 764
GlyphClass: 2
Flags: MW
HStem: -16 157<342 426> 0 21G<605 719 605 605> 246 130<390 523 390 719> 569 157<343 428> 764 136<291 491 291 491>
VStem: 40 201<290 418.5 290 461> 291 200<764 900 764 900> 602 117
AnchorPoint: "Anchor-3" 391 710 basechar 0
AnchorPoint: "Anchor-0" 395 0 basechar 0
LayerCount: 2
Fore
SplineSet
291 764 m 1xbf
 291 900 l 1
 491 900 l 1
 491 764 l 1
 291 764 l 1xbf
375 -16 m 0
 167 -16 40 132 40 354 c 0
 40 568 169 726 389 726 c 0
 583 726 682 631 717 467 c 1
 514 459 l 1
 502 529 465 569 391 569 c 0
 295 569 241 483 241 354 c 0
 241 226 289 141 395 141 c 0xbf
 468 141 513 179 523 246 c 1
 390 246 l 1
 390 376 l 1
 719 376 l 1
 719 0 l 1
 605 0 l 1x7f
 599 91 l 1
 561 25 477 -16 375 -16 c 0
EndSplineSet
Substitution2: "'ss08' Style Set 8 in Latin lookup 41 subtable" Gdotaccent.ss08
Substitution2: "'ss06' Style Set 6 in Latin lookup 39 subtable" Gdotaccent.ss06
AlternateSubs2: "'aalt' Access All Alternates in Latin lookup 1 subtable" Gdotaccent.ss06 Gdotaccent.ss08
EndChar

StartChar: uni1E20
Encoding: 7712 7712 42
Width: 764
GlyphClass: 2
Flags: MW
HStem: -16 157<342 426> 0 21G<605 719 605 605> 246 130<390 523 390 719> 569 157<343 428> 765 135<231 551 231 551>
VStem: 40 201<290 418.5 290 461> 231 320<765 900 765 900> 602 117
AnchorPoint: "Anchor-3" 391 710 basechar 0
AnchorPoint: "Anchor-0" 395 0 basechar 0
LayerCount: 2
Fore
SplineSet
231 765 m 1xbb
 231 900 l 1
 551 900 l 1
 551 765 l 1
 231 765 l 1xbb
375 -16 m 0
 167 -16 40 132 40 354 c 0
 40 568 169 726 389 726 c 0
 583 726 682 631 717 467 c 1
 514 459 l 1
 502 529 465 569 391 569 c 0
 295 569 241 483 241 354 c 0
 241 226 289 141 395 141 c 0xbd
 468 141 513 179 523 246 c 1
 390 246 l 1
 390 376 l 1
 719 376 l 1
 719 0 l 1
 605 0 l 1x7d
 599 91 l 1
 561 25 477 -16 375 -16 c 0
EndSplineSet
Substitution2: "'ss06' Style Set 6 in Latin lookup 39 subtable" uni1E20.ss06
Substitution2: "'aalt' Access All Alternates in Latin lookup 0 subtable" uni1E20.ss06
EndChar

StartChar: uni01E4
Encoding: 484 484 43
Width: 803
GlyphClass: 2
Flags: MW
HStem: -16 157<340 413.5 340 466.5> 182 74<390 497 390 521 714 768> 290 86<390 523 390 719> 569 157<341.5 430>
VStem: 40 201<290 418.5 290 461> 390 329<182 335 256 335 321 335 335 376 321 376> 523 196<284 335>
AnchorPoint: "Anchor-3" 397 710 basechar 0
AnchorPoint: "Anchor-0" 395 0 basechar 0
LayerCount: 2
Fore
SplineSet
393 -16 m 0xfa
 156 -16 40 140 40 354 c 0
 40 568 167 726 397 726 c 0
 577 726 688 631 717 467 c 1
 514 459 l 1
 502 530 468 569 392 569 c 0
 291 569 241 483 241 354 c 0
 241 226 292 141 388 141 c 0
 439 141 475 152 497 182 c 1
 390 182 l 1
 390 256 l 1xfc
 521 256 l 1xfa
 522 266 523 278 523 290 c 1
 390 290 l 1
 390 376 l 1xfc
 719 376 l 1
 719 335 l 2
 719 307 717 281 714 256 c 1
 768 256 l 1
 768 182 l 1
 696 182 l 1
 651 47 540 -16 393 -16 c 0xfa
EndSplineSet
EndChar

StartChar: H
Encoding: 72 72 44
Width: 727
GlyphClass: 2
Flags: MW
HStem: 0 21G<62 62 62 258 469 469 469 665> 279 157<258 469 258 469> 690 20G<62 258 258 258 469 665 665 665>
VStem: 62 196<0 279 436 710> 469 196<0 279 279 279 436 710 0 710>
AnchorPoint: "Anchor-3" 363 710 basechar 0
AnchorPoint: "Anchor-1" 363 580 basechar 0
AnchorPoint: "Anchor-0" 363 0 basechar 0
LayerCount: 2
Fore
SplineSet
62 0 m 1
 62 710 l 1
 258 710 l 1
 258 436 l 1
 469 436 l 1
 469 710 l 1
 665 710 l 1
 665 0 l 1
 469 0 l 1
 469 279 l 1
 258 279 l 1
 258 0 l 1
 62 0 l 1
EndSplineSet
EndChar

StartChar: Hbar
Encoding: 294 294 45
Width: 727
GlyphClass: 2
Flags: MW
HStem: 0 21G<62 62 62 258 469 469 469 665> 279 157<258 469 258 469> 514 132<-7 62 -7 62 258 469 665 733> 514 196<-7 258 -7 258 62 258 62 469>
VStem: 62 196<0 279 436 514 646 710> 469 196<0 279 279 279 436 514 0 514 646 710>
AnchorPoint: "Anchor-3" 363 710 basechar 0
AnchorPoint: "Anchor-1" 363 580 basechar 0
AnchorPoint: "Anchor-0" 363 0 basechar 0
LayerCount: 2
Fore
SplineSet
62 0 m 1xdc
 62 514 l 1
 -7 514 l 1xdc
 -7 646 l 1
 62 646 l 1xec
 62 710 l 1
 258 710 l 1xdc
 258 646 l 1
 469 646 l 1xec
 469 710 l 1
 665 710 l 1xdc
 665 646 l 1
 733 646 l 1xec
 733 514 l 1
 665 514 l 1
 665 0 l 1
 469 0 l 1
 469 279 l 1
 258 279 l 1
 258 0 l 1
 62 0 l 1xdc
258 436 m 1
 469 436 l 1
 469 514 l 1
 258 514 l 1
 258 436 l 1
EndSplineSet
EndChar

StartChar: Hcircumflex
Encoding: 292 292 46
Width: 727
GlyphClass: 2
Flags: MW
HStem: 0 21G<62 62 62 258 469 469 469 665> 279 157<258 469 258 469> 690 20G<62 258 258 258 469 665 665 665> 757 166<174 452 274 302 424 424 424 452 274 552>
VStem: 62 196<0 279 436 710> 469 196<0 279 279 279 436 710 0 710>
AnchorPoint: "Anchor-3" 363 710 basechar 0
AnchorPoint: "Anchor-1" 363 580 basechar 0
AnchorPoint: "Anchor-0" 363 0 basechar 0
LayerCount: 2
Fore
SplineSet
174 757 m 1
 274 923 l 1
 452 923 l 1
 552 757 l 1
 424 757 l 1
 363 845 l 1
 302 757 l 1
 174 757 l 1
62 0 m 1
 62 710 l 1
 258 710 l 1
 258 436 l 1
 469 436 l 1
 469 710 l 1
 665 710 l 1
 665 0 l 1
 469 0 l 1
 469 279 l 1
 258 279 l 1
 258 0 l 1
 62 0 l 1
EndSplineSet
EndChar

StartChar: I
Encoding: 73 73 47
Width: 320
GlyphClass: 2
Flags: MW
HStem: 0 21G<62 62 62 258> 690 20G<62 258 258 258>
VStem: 62 196<0 710 0 710>
AnchorPoint: "Anchor-3" 160 710 basechar 0
AnchorPoint: "Anchor-2" 258 0 basechar 0
AnchorPoint: "Anchor-0" 160 0 basechar 0
LayerCount: 2
Fore
SplineSet
62 0 m 1
 62 710 l 1
 258 710 l 1
 258 0 l 1
 62 0 l 1
EndSplineSet
Substitution2: "'ss05' Style Set 5 in Latin lookup 38 subtable" I.ss05
Substitution2: "'aalt' Access All Alternates in Latin lookup 0 subtable" I.ss05
EndChar

StartChar: IJ
Encoding: 306 306 48
Width: 957
GlyphClass: 2
Flags: MW
HStem: -16 157<603.5 656 603.5 713> 0 21G<62 62 62 258> 690 20G<62 258 258 258 714 910 910 910>
VStem: 62 196<0 710 0 710> 347 196<267 275> 714 196<260 710>
AnchorPoint: "Anchor-3" 812 710 basechar 0
AnchorPoint: "Anchor-2" 258 0 basechar 0
AnchorPoint: "Anchor-0" 160 0 basechar 0
LayerCount: 2
Fore
SplineSet
62 0 m 1x74
 62 710 l 1
 258 710 l 1
 258 0 l 1
 62 0 l 1x74
630 -16 m 0
 442 -16 349 105 347 267 c 1
 543 275 l 1
 545 179 577 141 630 141 c 0
 682 141 714 175 714 260 c 2
 714 710 l 1
 910 710 l 1
 910 260 l 2xbc
 910 92 796 -16 630 -16 c 0
EndSplineSet
EndChar

StartChar: Iacute
Encoding: 205 205 49
Width: 320
GlyphClass: 2
Flags: MW
HStem: 0 21G<62 62 62 258> 690 20G<62 258 258 258> 757 160<71 305 125 215>
VStem: 62 196<0 710 0 710>
AnchorPoint: "Anchor-3" 160 710 basechar 0
AnchorPoint: "Anchor-2" 258 0 basechar 0
AnchorPoint: "Anchor-0" 160 0 basechar 0
LayerCount: 2
Fore
SplineSet
71 757 m 1
 125 917 l 1
 305 917 l 1
 215 757 l 1
 71 757 l 1
62 0 m 1
 62 710 l 1
 258 710 l 1
 258 0 l 1
 62 0 l 1
EndSplineSet
Substitution2: "'ss05' Style Set 5 in Latin lookup 38 subtable" Iacute.ss05
Substitution2: "'aalt' Access All Alternates in Latin lookup 0 subtable" Iacute.ss05
EndChar

StartChar: Icircumflex
Encoding: 206 206 50
Width: 320
GlyphClass: 2
Flags: MW
HStem: 0 21G<62 62 62 258> 690 20G<62 258 258 258> 757 166<-29 249 71 99 221 221 221 249 71 349>
VStem: 62 196<0 710 0 710>
AnchorPoint: "Anchor-3" 160 710 basechar 0
AnchorPoint: "Anchor-2" 258 0 basechar 0
AnchorPoint: "Anchor-0" 160 0 basechar 0
LayerCount: 2
Fore
SplineSet
-29 757 m 1
 71 923 l 1
 249 923 l 1
 349 757 l 1
 221 757 l 1
 160 845 l 1
 99 757 l 1
 -29 757 l 1
62 0 m 1
 62 710 l 1
 258 710 l 1
 258 0 l 1
 62 0 l 1
EndSplineSet
Substitution2: "'ss05' Style Set 5 in Latin lookup 38 subtable" Icircumflex.ss05
Substitution2: "'aalt' Access All Alternates in Latin lookup 0 subtable" Icircumflex.ss05
EndChar

StartChar: Idieresis
Encoding: 207 207 51
Width: 320
GlyphClass: 2
Flags: MW
HStem: 0 21G<62 62 62 258> 690 20G<62 258 258 258> 760 136<-51 129 -51 129 191 371 -51 191>
VStem: -51 180<760 896 760 896> 62 67<0 896 710 896> 62 196<0 710 0 710> 191 67<0 896> 191 180<760 896 760 896>
AnchorPoint: "Anchor-3" 160 710 basechar 0
AnchorPoint: "Anchor-2" 258 0 basechar 0
AnchorPoint: "Anchor-0" 160 0 basechar 0
LayerCount: 2
Fore
SplineSet
-51 760 m 1xf0
 -51 896 l 1xf2
 129 896 l 1
 129 760 l 1xe8
 -51 760 l 1xf0
191 760 m 1
 191 896 l 1xe2
 371 896 l 1
 371 760 l 1xe1
 191 760 l 1
62 0 m 1xe4
 62 710 l 1
 258 710 l 1
 258 0 l 1
 62 0 l 1xe4
EndSplineSet
Substitution2: "'ss08' Style Set 8 in Latin lookup 41 subtable" Idieresis.ss08
Substitution2: "'ss05' Style Set 5 in Latin lookup 38 subtable" Idieresis.ss05
AlternateSubs2: "'aalt' Access All Alternates in Latin lookup 1 subtable" Idieresis.ss05 Idieresis.ss08
EndChar

StartChar: Idotaccent
Encoding: 304 304 52
Width: 320
GlyphClass: 2
Flags: MW
HStem: 0 21G<62 62 62 258> 690 20G<62 258 258 258> 764 136<60 260 60 260>
VStem: 60 198<0 900 0 900> 62 196<0 710 0 710> 62 198<0 900 710 900>
AnchorPoint: "Anchor-3" 160 710 basechar 0
AnchorPoint: "Anchor-2" 258 0 basechar 0
AnchorPoint: "Anchor-0" 160 0 basechar 0
LayerCount: 2
Fore
SplineSet
60 764 m 1xf0
 60 900 l 1xf0
 260 900 l 1
 260 764 l 1xe4
 60 764 l 1xf0
62 0 m 1xe8
 62 710 l 1
 258 710 l 1
 258 0 l 1
 62 0 l 1xe8
EndSplineSet
Substitution2: "'ss08' Style Set 8 in Latin lookup 41 subtable" Idotaccent.ss08
Substitution2: "'ss05' Style Set 5 in Latin lookup 38 subtable" Idotaccent.ss05
AlternateSubs2: "'aalt' Access All Alternates in Latin lookup 1 subtable" Idotaccent.ss05 Idotaccent.ss08
EndChar

StartChar: Igrave
Encoding: 204 204 53
Width: 320
GlyphClass: 2
Flags: MW
HStem: 0 21G<62 62 62 258> 690 20G<62 258 258 258> 764 160<101 101 101 191 11 245>
VStem: 62 196<0 710 0 710>
AnchorPoint: "Anchor-3" 160 710 basechar 0
AnchorPoint: "Anchor-2" 258 0 basechar 0
AnchorPoint: "Anchor-0" 160 0 basechar 0
LayerCount: 2
Fore
SplineSet
101 764 m 1
 11 924 l 1
 191 924 l 1
 245 764 l 1
 101 764 l 1
62 0 m 1
 62 710 l 1
 258 710 l 1
 258 0 l 1
 62 0 l 1
EndSplineSet
Substitution2: "'ss05' Style Set 5 in Latin lookup 38 subtable" Igrave.ss05
Substitution2: "'aalt' Access All Alternates in Latin lookup 0 subtable" Igrave.ss05
EndChar

StartChar: Imacron
Encoding: 298 298 54
Width: 320
GlyphClass: 2
Flags: MW
HStem: 0 21G<62 62 62 258> 690 20G<62 258 258 258> 765 135<0 320 0 320>
VStem: 0 258<0 900 0 900> 62 196<0 710 0 710> 62 258<0 900 710 900>
AnchorPoint: "Anchor-3" 160 710 basechar 0
AnchorPoint: "Anchor-2" 258 0 basechar 0
AnchorPoint: "Anchor-0" 160 0 basechar 0
LayerCount: 2
Fore
SplineSet
0 765 m 1xf0
 0 900 l 1xf0
 320 900 l 1
 320 765 l 1xe4
 0 765 l 1xf0
62 0 m 1xe8
 62 710 l 1
 258 710 l 1
 258 0 l 1
 62 0 l 1xe8
EndSplineSet
Substitution2: "'ss05' Style Set 5 in Latin lookup 38 subtable" Imacron.ss05
Substitution2: "'aalt' Access All Alternates in Latin lookup 0 subtable" Imacron.ss05
EndChar

StartChar: Iogonek
Encoding: 302 302 55
Width: 320
GlyphClass: 2
Flags: MW
HStem: -222 104<135.5 231> 0 21G<62 62 62 108 258 258> 690 20G<62 258 258 258>
VStem: 49 150<-157 -85.5> 62 137<-102.5 710> 62 196<0 710 0 710>
AnchorPoint: "Anchor-3" 160 710 basechar 0
AnchorPoint: "Anchor-2" 258 0 basechar 0
AnchorPoint: "Anchor-0" 160 0 basechar 0
LayerCount: 2
Fore
SplineSet
62 0 m 1xe4
 62 710 l 1
 258 710 l 1
 258 0 l 1xe4
 231 -34 l 2
 215 -55 199 -77 199 -94 c 0xe8
 199 -111 211 -118 223 -118 c 0
 239 -118 258 -112 266 -106 c 1
 296 -196 l 1
 276 -210 224 -222 176 -222 c 0
 95 -222 49 -188 49 -126 c 0xf0
 49 -84 71 -48 94 -18 c 2
 108 0 l 1
 62 0 l 1xe4
EndSplineSet
Substitution2: "'ss05' Style Set 5 in Latin lookup 38 subtable" Iogonek.ss05
Substitution2: "'aalt' Access All Alternates in Latin lookup 0 subtable" Iogonek.ss05
EndChar

StartChar: Itilde
Encoding: 296 296 56
Width: 320
GlyphClass: 2
Flags: MW
HStem: 0 21G<62 62 62 258> 690 20G<62 258 258 258> 759 159<60.5 69 -21 116> 764 111<211 224.5 211 255.5> 764 160<250 255.5> 807 111<96 109>
VStem: -21 90<759 806> 62 196<0 710 0 710> 250 90<875.5 924>
AnchorPoint: "Anchor-3" 160 710 basechar 0
AnchorPoint: "Anchor-2" 258 0 basechar 0
AnchorPoint: "Anchor-0" 160 0 basechar 0
LayerCount: 2
Fore
SplineSet
214 764 m 0xc880
 180 764 162 770 134 794 c 0
 124 802 114 807 104 807 c 0xc6
 88 807 73 796 69 759 c 1
 -21 759 l 1
 -21 853 21 918 100 918 c 0xe2
 132 918 157 911 185 889 c 0
 198 879 206 875 216 875 c 0xd080
 233 875 248 885 250 924 c 1
 340 924 l 1
 340 827 297 764 214 764 c 0xc880
62 0 m 1xc9
 62 710 l 1
 258 710 l 1
 258 0 l 1
 62 0 l 1xc9
EndSplineSet
Substitution2: "'ss05' Style Set 5 in Latin lookup 38 subtable" Itilde.ss05
Substitution2: "'aalt' Access All Alternates in Latin lookup 0 subtable" Itilde.ss05
EndChar

StartChar: J
Encoding: 74 74 57
Width: 647
GlyphClass: 2
Flags: MW
HStem: -16 157<293.5 346 293.5 403> 690 20G<404 600 600 600>
VStem: 37 196<267 275> 404 196<260 710>
AnchorPoint: "Anchor-3" 502 710 basechar 0
LayerCount: 2
Fore
SplineSet
320 -16 m 0
 132 -16 39 105 37 267 c 1
 233 275 l 1
 235 179 267 141 320 141 c 0
 372 141 404 175 404 260 c 2
 404 710 l 1
 600 710 l 1
 600 260 l 2
 600 92 486 -16 320 -16 c 0
EndSplineSet
Substitution2: "Single Substitution lookup 16 subtable" uni004A0301
Substitution2: "'aalt' Access All Alternates in Latin lookup 0 subtable" uni004A0301
EndChar

StartChar: uni004A0301
Encoding: 65537 -1 58
Width: 647
GlyphClass: 2
Flags: MW
HStem: -16 157<293.5 346 293.5 403> 690 20G<404 600 600 600> 757 160<413 647 467 557>
VStem: 37 196<267 275> 404 196<260 710>
AnchorPoint: "Anchor-3" 502 710 basechar 0
LayerCount: 2
Fore
SplineSet
413 757 m 1
 467 917 l 1
 647 917 l 1
 557 757 l 1
 413 757 l 1
320 -16 m 0
 132 -16 39 105 37 267 c 1
 233 275 l 1
 235 179 267 141 320 141 c 0
 372 141 404 175 404 260 c 2
 404 710 l 1
 600 710 l 1
 600 260 l 2
 600 92 486 -16 320 -16 c 0
EndSplineSet
EndChar

StartChar: Jcircumflex
Encoding: 308 308 59
Width: 647
GlyphClass: 2
Flags: MW
HStem: -16 157<293.5 346 293.5 403> 690 20G<404 600 600 600> 757 166<313 591 413 441 563 563 563 591 413 691>
VStem: 37 196<267 275> 404 196<260 710>
AnchorPoint: "Anchor-3" 502 710 basechar 0
LayerCount: 2
Fore
SplineSet
313 757 m 1
 413 923 l 1
 591 923 l 1
 691 757 l 1
 563 757 l 1
 502 845 l 1
 441 757 l 1
 313 757 l 1
320 -16 m 0
 132 -16 39 105 37 267 c 1
 233 275 l 1
 235 179 267 141 320 141 c 0
 372 141 404 175 404 260 c 2
 404 710 l 1
 600 710 l 1
 600 260 l 2
 600 92 486 -16 320 -16 c 0
EndSplineSet
EndChar

StartChar: K
Encoding: 75 75 60
Width: 721
GlyphClass: 2
Flags: MW
HStem: 0 21G<62 62 62 258 494 494 494 711> 690 20G<62 258 258 258 475 697 697 697>
VStem: 62 196<0 190 429 710>
AnchorPoint: "Anchor-3" 358 710 basechar 0
AnchorPoint: "Anchor-0" 364 0 basechar 0
LayerCount: 2
Fore
SplineSet
62 0 m 1
 62 710 l 1
 258 710 l 1
 258 429 l 1
 475 710 l 1
 697 710 l 1
 448 393 l 1
 711 0 l 1
 494 0 l 1
 320 266 l 1
 258 190 l 1
 258 0 l 1
 62 0 l 1
EndSplineSet
EndChar

StartChar: uni01E8
Encoding: 488 488 61
Width: 721
GlyphClass: 2
Flags: MW
HStem: 0 21G<62 62 62 258 494 494 494 711> 690 20G<62 258 258 258 475 697 697 697> 757 166<269 297 419 447 269 269>
VStem: 62 196<0 190 429 710>
AnchorPoint: "Anchor-3" 358 710 basechar 0
AnchorPoint: "Anchor-0" 364 0 basechar 0
LayerCount: 2
Fore
SplineSet
169 923 m 1
 297 923 l 1
 358 835 l 1
 419 923 l 1
 547 923 l 1
 447 757 l 1
 269 757 l 1
 169 923 l 1
62 0 m 1
 62 710 l 1
 258 710 l 1
 258 429 l 1
 475 710 l 1
 697 710 l 1
 448 393 l 1
 711 0 l 1
 494 0 l 1
 320 266 l 1
 258 190 l 1
 258 0 l 1
 62 0 l 1
EndSplineSet
EndChar

StartChar: uni0136
Encoding: 310 310 62
Width: 721
GlyphClass: 2
Flags: MW
HStem: -180 134<289 323 289 439> 0 21G<62 62 62 258 494 494 494 711> 690 20G<62 258 258 258 475 697 697 697>
VStem: 62 196<0 190 429 710> 289 150<-166 -46 -166 -46 -166 -46>
AnchorPoint: "Anchor-3" 358 710 basechar 0
AnchorPoint: "Anchor-0" 364 -262 basechar 0
LayerCount: 2
Fore
SplineSet
62 0 m 1
 62 710 l 1
 258 710 l 1
 258 429 l 1
 475 710 l 1
 697 710 l 1
 448 393 l 1
 711 0 l 1
 494 0 l 1
 320 266 l 1
 258 190 l 1
 258 0 l 1
 62 0 l 1
273 -262 m 1
 323 -180 l 1
 289 -180 l 1
 289 -46 l 1
 439 -46 l 1
 439 -166 l 1
 381 -262 l 1
 273 -262 l 1
EndSplineSet
EndChar

StartChar: L
Encoding: 76 76 63
Width: 595
GlyphClass: 2
Flags: MW
HStem: 0 157<258 567 258 567> 690 20G<62 258 258 258>
VStem: 62 196<157 710 157 710 157 710>
AnchorPoint: "Anchor-4" 350 540 basechar 0
AnchorPoint: "Anchor-3" 160 710 basechar 0
AnchorPoint: "Anchor-1" 190 380 basechar 0
AnchorPoint: "Anchor-0" 314 0 basechar 0
LayerCount: 2
Fore
SplineSet
62 0 m 1
 62 710 l 1
 258 710 l 1
 258 157 l 1
 567 157 l 1
 567 0 l 1
 62 0 l 1
EndSplineSet
EndChar

StartChar: Lacute
Encoding: 313 313 64
Width: 595
GlyphClass: 2
Flags: MW
HStem: 0 157<258 567 258 567> 690 20G<62 258 258 258> 757 160<71 305 125 215>
VStem: 62 196<157 710 157 710 157 710>
AnchorPoint: "Anchor-4" 350 540 basechar 0
AnchorPoint: "Anchor-3" 160 710 basechar 0
AnchorPoint: "Anchor-1" 190 380 basechar 0
AnchorPoint: "Anchor-0" 314 0 basechar 0
LayerCount: 2
Fore
SplineSet
71 757 m 1
 125 917 l 1
 305 917 l 1
 215 757 l 1
 71 757 l 1
62 0 m 1
 62 710 l 1
 258 710 l 1
 258 157 l 1
 567 157 l 1
 567 0 l 1
 62 0 l 1
EndSplineSet
EndChar

StartChar: Lcaron
Encoding: 317 317 65
Width: 595
GlyphClass: 2
Flags: MW
HStem: 0 157<258 567 258 567> 403 307<62 370 398 502> 690 20G<62 258 258 258 398 558 558 558>
VStem: 62 196<157 710 157 710 157 710>
AnchorPoint: "Anchor-4" 350 540 basechar 0
AnchorPoint: "Anchor-3" 160 710 basechar 0
AnchorPoint: "Anchor-1" 190 380 basechar 0
AnchorPoint: "Anchor-0" 314 0 basechar 0
LayerCount: 2
Fore
SplineSet
62 0 m 1xb0
 62 710 l 1
 258 710 l 1
 258 157 l 1
 567 157 l 1
 567 0 l 1
 62 0 l 1xb0
370 403 m 1xd0
 398 710 l 1
 558 710 l 1
 502 403 l 1
 370 403 l 1xd0
EndSplineSet
EndChar

StartChar: uni013B
Encoding: 315 315 66
Width: 595
GlyphClass: 2
Flags: MW
HStem: -180 134<239 273 239 389> 0 157<258 567 258 567> 690 20G<62 258 258 258>
VStem: 62 196<157 710 157 710 157 710> 239 150<-166 -46 -166 -46 -166 -46>
AnchorPoint: "Anchor-4" 350 540 basechar 0
AnchorPoint: "Anchor-3" 160 710 basechar 0
AnchorPoint: "Anchor-1" 190 380 basechar 0
AnchorPoint: "Anchor-0" 314 -262 basechar 0
LayerCount: 2
Fore
SplineSet
62 0 m 1xf0
 62 710 l 1
 258 710 l 1
 258 157 l 1
 567 157 l 1
 567 0 l 1
 62 0 l 1xf0
223 -262 m 1
 273 -180 l 1
 239 -180 l 1
 239 -46 l 1
 389 -46 l 1
 389 -166 l 1xe8
 331 -262 l 1
 223 -262 l 1
EndSplineSet
Substitution2: "'locl' Localized Forms in Latin lookup 11 subtable" uni013B.loclMAH
Substitution2: "'aalt' Access All Alternates in Latin lookup 0 subtable" uni013B.loclMAH
EndChar

StartChar: Lslash
Encoding: 321 321 67
Width: 595
GlyphClass: 2
Flags: MW
HStem: 0 157<258 567 258 567> 690 20G<62 258 258 258>
VStem: 62 196<157 260 260 260 471 710>
AnchorPoint: "Anchor-4" 350 540 basechar 0
AnchorPoint: "Anchor-3" 160 710 basechar 0
AnchorPoint: "Anchor-1" 190 380 basechar 0
AnchorPoint: "Anchor-0" 314 0 basechar 0
LayerCount: 2
Fore
SplineSet
62 0 m 1
 62 260 l 1
 -5 229 l 1
 -5 349 l 1
 62 380 l 1
 62 710 l 1
 258 710 l 1
 258 471 l 1
 385 530 l 1
 385 410 l 1
 258 351 l 1
 258 157 l 1
 567 157 l 1
 567 0 l 1
 62 0 l 1
EndSplineSet
EndChar

StartChar: M
Encoding: 77 77 68
Width: 940
GlyphClass: 2
Flags: MW
HStem: 0 21G<62 62 62 258 682 682 682 878> 690 20G<62 320 320 320 620 878 878 878>
VStem: 62 196<0 400 0 710> 682 196<0 400 400 400>
AnchorPoint: "Anchor-3" 470 710 basechar 0
AnchorPoint: "Anchor-0" 470 0 basechar 0
LayerCount: 2
Fore
SplineSet
62 0 m 1
 62 710 l 1
 320 710 l 1
 470 259 l 1
 620 710 l 1
 878 710 l 1
 878 0 l 1
 682 0 l 1
 682 400 l 1
 539 3 l 1
 400 3 l 1
 258 400 l 1
 258 0 l 1
 62 0 l 1
EndSplineSet
EndChar

StartChar: N
Encoding: 78 78 69
Width: 755
GlyphClass: 2
Flags: MW
HStem: 0 21G<62 62 62 258 495 495 495 693> 690 20G<62 260 260 260 497 693 693 693>
VStem: 62 196<0 380 0 710> 497 196<310 710 0 710>
AnchorPoint: "Anchor-3" 378 710 basechar 0
AnchorPoint: "Anchor-0" 373 0 basechar 0
LayerCount: 2
Fore
SplineSet
62 0 m 1
 62 710 l 1
 260 710 l 1
 497 310 l 1
 497 710 l 1
 693 710 l 1
 693 0 l 1
 495 0 l 1
 258 380 l 1
 258 0 l 1
 62 0 l 1
EndSplineSet
EndChar

StartChar: Nacute
Encoding: 323 323 70
Width: 755
GlyphClass: 2
Flags: MW
HStem: 0 21G<62 62 62 258 495 495 495 693> 690 20G<62 260 260 260 497 693 693 693> 757 160<289 523 343 433>
VStem: 62 196<0 380 0 710> 497 196<310 710 0 710>
AnchorPoint: "Anchor-3" 378 710 basechar 0
AnchorPoint: "Anchor-0" 373 0 basechar 0
LayerCount: 2
Fore
SplineSet
289 757 m 1
 343 917 l 1
 523 917 l 1
 433 757 l 1
 289 757 l 1
62 0 m 1
 62 710 l 1
 260 710 l 1
 497 310 l 1
 497 710 l 1
 693 710 l 1
 693 0 l 1
 495 0 l 1
 258 380 l 1
 258 0 l 1
 62 0 l 1
EndSplineSet
EndChar

StartChar: Ncaron
Encoding: 327 327 71
Width: 755
GlyphClass: 2
Flags: MW
HStem: 0 21G<62 62 62 258 495 495 495 693> 690 20G<62 260 260 260 497 693 693 693> 757 166<289 317 439 467 289 289>
VStem: 62 196<0 380 0 710> 497 196<310 710 0 710>
AnchorPoint: "Anchor-3" 378 710 basechar 0
AnchorPoint: "Anchor-0" 373 0 basechar 0
LayerCount: 2
Fore
SplineSet
189 923 m 1
 317 923 l 1
 378 835 l 1
 439 923 l 1
 567 923 l 1
 467 757 l 1
 289 757 l 1
 189 923 l 1
62 0 m 1
 62 710 l 1
 260 710 l 1
 497 310 l 1
 497 710 l 1
 693 710 l 1
 693 0 l 1
 495 0 l 1
 258 380 l 1
 258 0 l 1
 62 0 l 1
EndSplineSet
EndChar

StartChar: uni0145
Encoding: 325 325 72
Width: 755
GlyphClass: 2
Flags: MW
HStem: -180 134<298 332 298 448> 0 21G<62 62 62 258 495 495 495 693> 690 20G<62 260 260 260 497 693 693 693>
VStem: 62 196<0 380 0 710> 298 150<-166 -46 -166 -46 -166 -46> 497 196<310 710 0 710>
AnchorPoint: "Anchor-3" 378 710 basechar 0
AnchorPoint: "Anchor-0" 373 -262 basechar 0
LayerCount: 2
Fore
SplineSet
62 0 m 1
 62 710 l 1
 260 710 l 1
 497 310 l 1
 497 710 l 1
 693 710 l 1
 693 0 l 1
 495 0 l 1
 258 380 l 1
 258 0 l 1
 62 0 l 1
282 -262 m 1
 332 -180 l 1
 298 -180 l 1
 298 -46 l 1
 448 -46 l 1
 448 -166 l 1
 390 -262 l 1
 282 -262 l 1
EndSplineSet
Substitution2: "'locl' Localized Forms in Latin lookup 11 subtable" uni0145.loclMAH
Substitution2: "'aalt' Access All Alternates in Latin lookup 0 subtable" uni0145.loclMAH
EndChar

StartChar: Ntilde
Encoding: 209 209 73
Width: 755
GlyphClass: 2
Flags: MW
HStem: 0 21G<62 62 62 258 495 495 495 693> 690 20G<62 260 260 260 497 693 693 693> 759 159<278.5 287 197 334> 764 111<429 442.5 429 473.5> 764 160<468 473.5> 807 111<314 327>
VStem: 62 196<0 380 0 710> 197 90<759 806> 468 90<875.5 924> 497 196<310 710 0 710>
AnchorPoint: "Anchor-3" 378 710 basechar 0
AnchorPoint: "Anchor-0" 373 0 basechar 0
LayerCount: 2
Fore
SplineSet
432 764 m 0xca80
 398 764 380 770 352 794 c 0
 342 802 332 807 322 807 c 0xc540
 306 807 291 796 287 759 c 1
 197 759 l 1
 197 853 239 918 318 918 c 0xe140
 350 918 375 911 403 889 c 0
 416 879 424 875 434 875 c 0xd280
 451 875 466 885 468 924 c 1
 558 924 l 1
 558 827 515 764 432 764 c 0xca80
62 0 m 1xca40
 62 710 l 1
 260 710 l 1
 497 310 l 1
 497 710 l 1
 693 710 l 1
 693 0 l 1
 495 0 l 1
 258 380 l 1
 258 0 l 1
 62 0 l 1xca40
EndSplineSet
EndChar

StartChar: Eng
Encoding: 330 330 74
Width: 755
GlyphClass: 2
Flags: MW
HStem: -170 120<376 464 464 479.5 376 524 376 464> 0 21G<62 62 62 258 495 495 495 510> 690 20G<62 260 260 260 497 693 693 693>
VStem: 62 196<0 381 0 710> 497 196<310 710> 510 183<-8 -5 -5 0 0 0>
AnchorPoint: "Anchor-3" 378 710 basechar 0
AnchorPoint: "Anchor-0" 378 -150 basechar 0
LayerCount: 2
Fore
SplineSet
62 0 m 1xf4
 62 710 l 1
 260 710 l 1
 497 310 l 1
 497 710 l 1
 693 710 l 1
 693 -5 l 2xf8
 693 -109 640 -170 524 -170 c 2
 376 -170 l 1
 376 -50 l 1
 464 -50 l 2
 495 -50 510 -43 510 -8 c 2
 510 0 l 1
 495 0 l 1
 258 381 l 1
 258 0 l 1
 62 0 l 1xf4
EndSplineSet
EndChar

StartChar: O
Encoding: 79 79 75
Width: 800
GlyphClass: 2
Flags: MW
HStem: -16 157<350 450 350 512.5> 569 157<350 450>
VStem: 40 201<286 422 286 468> 559 201<286 422>
AnchorPoint: "Anchor-3" 400 710 basechar 0
AnchorPoint: "Anchor-1" 400 355 basechar 0
AnchorPoint: "Anchor-0" 400 0 basechar 0
LayerCount: 2
Fore
SplineSet
400 -16 m 0
 175 -16 40 126 40 354 c 0
 40 582 175 726 400 726 c 0
 625 726 760 582 760 354 c 0
 760 126 625 -16 400 -16 c 0
400 141 m 0
 500 141 559 218 559 354 c 0
 559 490 500 569 400 569 c 0
 300 569 241 490 241 354 c 0
 241 218 300 141 400 141 c 0
EndSplineSet
Substitution2: "Single Substitution lookup 27 subtable" ordmasculine
Substitution2: "'aalt' Access All Alternates in Latin lookup 0 subtable" ordmasculine
EndChar

StartChar: Oacute
Encoding: 211 211 76
Width: 800
GlyphClass: 2
Flags: MW
HStem: -16 157<350 450 350 512.5> 569 157<350 450> 757 160<311 545 365 455>
VStem: 40 201<286 422 286 468> 559 201<286 422>
AnchorPoint: "Anchor-3" 400 710 basechar 0
AnchorPoint: "Anchor-1" 400 355 basechar 0
AnchorPoint: "Anchor-0" 400 0 basechar 0
LayerCount: 2
Fore
SplineSet
311 757 m 1
 365 917 l 1
 545 917 l 1
 455 757 l 1
 311 757 l 1
400 -16 m 0
 175 -16 40 126 40 354 c 0
 40 582 175 726 400 726 c 0
 625 726 760 582 760 354 c 0
 760 126 625 -16 400 -16 c 0
400 141 m 0
 500 141 559 218 559 354 c 0
 559 490 500 569 400 569 c 0
 300 569 241 490 241 354 c 0
 241 218 300 141 400 141 c 0
EndSplineSet
EndChar

StartChar: Ocircumflex
Encoding: 212 212 77
Width: 800
GlyphClass: 2
Flags: MW
HStem: -16 157<350 450 350 512.5> 569 157<350 450> 757 166<211 489 311 339 461 461 461 489 311 589>
VStem: 40 201<286 422 286 468> 559 201<286 422>
AnchorPoint: "Anchor-3" 400 710 basechar 0
AnchorPoint: "Anchor-1" 400 355 basechar 0
AnchorPoint: "Anchor-0" 400 0 basechar 0
LayerCount: 2
Fore
SplineSet
211 757 m 1
 311 923 l 1
 489 923 l 1
 589 757 l 1
 461 757 l 1
 400 845 l 1
 339 757 l 1
 211 757 l 1
400 -16 m 0
 175 -16 40 126 40 354 c 0
 40 582 175 726 400 726 c 0
 625 726 760 582 760 354 c 0
 760 126 625 -16 400 -16 c 0
400 141 m 0
 500 141 559 218 559 354 c 0
 559 490 500 569 400 569 c 0
 300 569 241 490 241 354 c 0
 241 218 300 141 400 141 c 0
EndSplineSet
EndChar

StartChar: Odieresis
Encoding: 214 214 78
Width: 800
GlyphClass: 2
Flags: MW
HStem: -16 157<350 450 350 512.5> 569 157<350 450> 760 136<189 369 189 369 431 611 189 431>
VStem: 40 201<286 422 286 468> 189 180<760 896 760 896> 431 180<760 896 760 896> 559 201<286 422>
AnchorPoint: "Anchor-3" 400 710 basechar 0
AnchorPoint: "Anchor-1" 400 355 basechar 0
AnchorPoint: "Anchor-0" 400 0 basechar 0
LayerCount: 2
Fore
SplineSet
189 760 m 1xec
 189 896 l 1
 369 896 l 1
 369 760 l 1
 189 760 l 1xec
431 760 m 1
 431 896 l 1
 611 896 l 1
 611 760 l 1
 431 760 l 1
400 -16 m 0
 175 -16 40 126 40 354 c 0
 40 582 175 726 400 726 c 0
 625 726 760 582 760 354 c 0xf2
 760 126 625 -16 400 -16 c 0
400 141 m 0
 500 141 559 218 559 354 c 0
 559 490 500 569 400 569 c 0
 300 569 241 490 241 354 c 0
 241 218 300 141 400 141 c 0
EndSplineSet
Substitution2: "'ss08' Style Set 8 in Latin lookup 41 subtable" Odieresis.ss08
Substitution2: "'aalt' Access All Alternates in Latin lookup 0 subtable" Odieresis.ss08
EndChar

StartChar: Ograve
Encoding: 210 210 79
Width: 800
GlyphClass: 2
Flags: MW
HStem: -16 157<350 450 350 512.5> 569 157<350 450> 764 160<341 341 341 431 251 485>
VStem: 40 201<286 422 286 468> 559 201<286 422>
AnchorPoint: "Anchor-3" 400 710 basechar 0
AnchorPoint: "Anchor-1" 400 355 basechar 0
AnchorPoint: "Anchor-0" 400 0 basechar 0
LayerCount: 2
Fore
SplineSet
341 764 m 1
 251 924 l 1
 431 924 l 1
 485 764 l 1
 341 764 l 1
400 -16 m 0
 175 -16 40 126 40 354 c 0
 40 582 175 726 400 726 c 0
 625 726 760 582 760 354 c 0
 760 126 625 -16 400 -16 c 0
400 141 m 0
 500 141 559 218 559 354 c 0
 559 490 500 569 400 569 c 0
 300 569 241 490 241 354 c 0
 241 218 300 141 400 141 c 0
EndSplineSet
EndChar

StartChar: Ohungarumlaut
Encoding: 336 336 80
Width: 800
GlyphClass: 2
Flags: MW
HStem: -16 157<350 450 350 512.5> 569 157<350 450> 757 160<226 460 280 370 434 460 488 578 434 434>
VStem: 40 201<286 422 286 468> 559 201<286 422>
AnchorPoint: "Anchor-3" 400 710 basechar 0
AnchorPoint: "Anchor-1" 400 355 basechar 0
AnchorPoint: "Anchor-0" 400 0 basechar 0
LayerCount: 2
Fore
SplineSet
226 757 m 1
 280 917 l 1
 460 917 l 1
 370 757 l 1
 226 757 l 1
434 757 m 1
 488 917 l 1
 668 917 l 1
 578 757 l 1
 434 757 l 1
400 -16 m 0
 175 -16 40 126 40 354 c 0
 40 582 175 726 400 726 c 0
 625 726 760 582 760 354 c 0
 760 126 625 -16 400 -16 c 0
400 141 m 0
 500 141 559 218 559 354 c 0
 559 490 500 569 400 569 c 0
 300 569 241 490 241 354 c 0
 241 218 300 141 400 141 c 0
EndSplineSet
EndChar

StartChar: Omacron
Encoding: 332 332 81
Width: 800
GlyphClass: 2
Flags: MW
HStem: -16 157<350 450 350 512.5> 569 157<350 450> 765 135<240 560 240 560>
VStem: 40 201<286 422 286 468> 240 320<765 900 765 900> 559 201<286 422>
AnchorPoint: "Anchor-3" 400 710 basechar 0
AnchorPoint: "Anchor-1" 400 355 basechar 0
AnchorPoint: "Anchor-0" 400 0 basechar 0
LayerCount: 2
Fore
SplineSet
240 765 m 1xe8
 240 900 l 1
 560 900 l 1
 560 765 l 1
 240 765 l 1xe8
400 -16 m 0
 175 -16 40 126 40 354 c 0
 40 582 175 726 400 726 c 0
 625 726 760 582 760 354 c 0xf4
 760 126 625 -16 400 -16 c 0
400 141 m 0
 500 141 559 218 559 354 c 0
 559 490 500 569 400 569 c 0
 300 569 241 490 241 354 c 0
 241 218 300 141 400 141 c 0
EndSplineSet
EndChar

StartChar: Oslash
Encoding: 216 216 82
Width: 800
GlyphClass: 2
Flags: MW
HStem: -16 157<386 450 386 512.5> 531 20G<475 475> 569 157<350 414>
VStem: 40 201<333 422 333 468> 559 201<286 375>
AnchorPoint: "Anchor-3" 400 710 basechar 0
AnchorPoint: "Anchor-1" 400 355 basechar 0
AnchorPoint: "Anchor-0" 400 0 basechar 0
LayerCount: 2
Fore
SplineSet
70 -16 m 1
 139 80 l 1
 75 144 40 238 40 354 c 0
 40 582 175 726 400 726 c 0
 466 726 525 713 574 690 c 1
 600 726 l 1
 730 726 l 1
 661 629 l 1
 725 565 760 470 760 354 c 0
 760 126 625 -16 400 -16 c 0
 334 -16 275 -4 225 20 c 1
 200 -16 l 1
 70 -16 l 1
241 354 m 0
 241 312 247 276 257 246 c 1
 475 551 l 1xd8
 453 563 428 569 400 569 c 0
 300 569 241 490 241 354 c 0
400 141 m 0
 500 141 559 218 559 354 c 0
 559 396 553 433 542 463 c 1
 325 159 l 1
 347 147 372 141 400 141 c 0
EndSplineSet
EndChar

StartChar: Otilde
Encoding: 213 213 83
Width: 800
GlyphClass: 2
Flags: MW
HStem: -16 157<350 450 350 512.5> 569 157<350 450> 759 159<300.5 309 219 356> 764 111<451 464.5 451 495.5> 764 160<490 495.5> 807 111<336 349>
VStem: 40 201<286 422 286 468> 219 90<759 806> 490 90<875.5 924> 559 201<286 422>
AnchorPoint: "Anchor-3" 400 710 basechar 0
AnchorPoint: "Anchor-1" 400 355 basechar 0
AnchorPoint: "Anchor-0" 400 0 basechar 0
LayerCount: 2
Fore
SplineSet
454 764 m 0xca80
 420 764 402 770 374 794 c 0
 364 802 354 807 344 807 c 0xc540
 328 807 313 796 309 759 c 1
 219 759 l 1
 219 853 261 918 340 918 c 0xe140
 372 918 397 911 425 889 c 0
 438 879 446 875 456 875 c 0xd280
 473 875 488 885 490 924 c 1
 580 924 l 1
 580 827 537 764 454 764 c 0xca80
400 -16 m 0
 175 -16 40 126 40 354 c 0xca40
 40 582 175 726 400 726 c 0
 625 726 760 582 760 354 c 0
 760 126 625 -16 400 -16 c 0
400 141 m 0
 500 141 559 218 559 354 c 0
 559 490 500 569 400 569 c 0
 300 569 241 490 241 354 c 0
 241 218 300 141 400 141 c 0
EndSplineSet
EndChar

StartChar: OE
Encoding: 338 338 84
Width: 1141
GlyphClass: 2
Flags: MW
HStem: -16 157<344.5 438> 0 157<791 1103 791 1103> 278 156<791 1083 791 1083> 553 157<791 1095 791 791> 569 157<344 438 293 455.5>
VStem: 40 201<295 414.5 295 474.5> 557 234<157 414.5> 595 196<0 278 48 278>
AnchorPoint: "Anchor-3" 573 710 basechar 0
AnchorPoint: "Anchor-0" 573 0 basechar 0
LayerCount: 2
Fore
SplineSet
398 -16 m 0xb5
 188 -16 40 118 40 354 c 0
 40 595 188 726 398 726 c 0xae
 478 726 544 704 595 662 c 1
 595 710 l 1x75
 1095 710 l 1
 1095 553 l 1
 791 553 l 1
 791 434 l 1
 1083 434 l 1
 1083 278 l 1
 791 278 l 1
 791 157 l 1x76
 1103 157 l 1
 1103 0 l 1
 595 0 l 1x75
 595 48 l 1
 544 6 478 -16 398 -16 c 0xb5
398 141 m 0
 513 141 557 236 557 354 c 0
 557 475 513 569 398 569 c 0
 290 569 241 475 241 354 c 0
 241 236 291 141 398 141 c 0
EndSplineSet
EndChar

StartChar: P
Encoding: 80 80 85
Width: 686
GlyphClass: 2
Flags: MW
HStem: 0 21G<62 62 62 258> 225 157<258 351 351 366 258 351> 553 157<258 351 258 258>
VStem: 62 196<0 225 382 553> 453 200<439 495>
AnchorPoint: "Anchor-3" 343 710 basechar 0
AnchorPoint: "Anchor-0" 343 0 basechar 0
LayerCount: 2
Fore
SplineSet
62 0 m 1
 62 710 l 1
 366 710 l 2
 544 710 653 617 653 467 c 0
 653 318 544 225 366 225 c 2
 258 225 l 1
 258 0 l 1
 62 0 l 1
258 382 m 1
 351 382 l 2
 412 382 453 411 453 467 c 0
 453 523 413 553 351 553 c 2
 258 553 l 1
 258 382 l 1
EndSplineSet
EndChar

StartChar: Thorn
Encoding: 222 222 86
Width: 656
GlyphClass: 2
Flags: MW
HStem: 0 21G<62 62 62 258> 148 158<258 345 345 350 258 345> 425 158<258 345 258 350> 690 20G<62 258 258 258>
VStem: 62 196<0 148 0 306 306 425 583 710> 423 200<346 385.5>
AnchorPoint: "Anchor-3" 328 710 basechar 0
AnchorPoint: "Anchor-0" 328 0 basechar 0
LayerCount: 2
Fore
SplineSet
62 0 m 1
 62 710 l 1
 258 710 l 1
 258 583 l 1
 350 583 l 2
 524 583 623 504 623 367 c 0
 623 227 524 148 350 148 c 2
 258 148 l 1
 258 0 l 1
 62 0 l 1
345 425 m 2
 258 425 l 1
 258 306 l 1
 345 306 l 2
 397 306 423 326 423 366 c 0
 423 405 397 425 345 425 c 2
EndSplineSet
EndChar

StartChar: Q
Encoding: 81 81 87
Width: 793
GlyphClass: 2
Flags: MW
HStem: -16 157<341.5 402 341.5 425> 569 157<341 452.5>
VStem: 40 201<298.5 410 298.5 461> 552 201<317 410>
AnchorPoint: "Anchor-3" 397 710 basechar 0
AnchorPoint: "Anchor-0" 397 0 basechar 0
LayerCount: 2
Fore
SplineSet
579 -57 m 1
 527 7 l 1
 497 -8 453 -16 397 -16 c 0
 183 -16 40 131 40 354 c 0
 40 568 164 726 397 726 c 0
 629 726 753 568 753 354 c 0
 753 222 707 130 629 64 c 1
 727 -57 l 1
 579 -57 l 1
397 141 m 0
 407 141 417 142 426 145 c 1
 331 261 l 1
 479 261 l 1
 515 213 l 1
 537 241 552 280 552 354 c 0
 552 466 508 569 397 569 c 0
 285 569 241 466 241 354 c 0
 241 243 286 141 397 141 c 0
EndSplineSet
EndChar

StartChar: R
Encoding: 82 82 88
Width: 714
GlyphClass: 2
Flags: MW
HStem: 0 21G<62 62 62 258 471 471 471 671> 242 157<258 365 365 373 258 365> 553 157<258 365 258 258>
VStem: 62 196<0 242 399 553> 465 200<455.5 502.5> 466 197
AnchorPoint: "Anchor-3" 350 710 basechar 0
AnchorPoint: "Anchor-0" 367 0 basechar 0
LayerCount: 2
Fore
SplineSet
62 0 m 1xf4
 62 710 l 1
 401 710 l 2
 561 710 665 627 665 500 c 0xf8
 665 411 619 348 537 322 c 1
 613 313 650 271 655 200 c 2
 671 0 l 1
 471 0 l 1
 461 166 l 2
 458 218 437 242 373 242 c 2
 258 242 l 1
 258 0 l 1
 62 0 l 1xf4
258 399 m 1
 365 399 l 2
 430 399 465 428 465 477 c 0
 465 528 430 553 365 553 c 2
 258 553 l 1
 258 399 l 1
EndSplineSet
Substitution2: "'ss04' Style Set 4 in Latin lookup 37 subtable" R.ss04
Substitution2: "'aalt' Access All Alternates in Latin lookup 0 subtable" R.ss04
EndChar

StartChar: Racute
Encoding: 340 340 89
Width: 714
GlyphClass: 2
Flags: MW
HStem: 0 21G<62 62 62 258 471 471 471 671> 242 157<258 365 365 373 258 365> 553 157<258 365 258 258> 757 160<261 495 315 405>
VStem: 62 196<0 242 399 553> 465 200<455.5 502.5> 466 197
AnchorPoint: "Anchor-3" 350 710 basechar 0
AnchorPoint: "Anchor-0" 367 0 basechar 0
LayerCount: 2
Fore
SplineSet
261 757 m 1xfa
 315 917 l 1
 495 917 l 1
 405 757 l 1
 261 757 l 1xfa
62 0 m 1
 62 710 l 1
 401 710 l 2
 561 710 665 627 665 500 c 0xfc
 665 411 619 348 537 322 c 1
 613 313 650 271 655 200 c 2
 671 0 l 1
 471 0 l 1
 461 166 l 2
 458 218 437 242 373 242 c 2
 258 242 l 1
 258 0 l 1
 62 0 l 1
258 399 m 1
 365 399 l 2
 430 399 465 428 465 477 c 0
 465 528 430 553 365 553 c 2
 258 553 l 1
 258 399 l 1
EndSplineSet
Substitution2: "'ss04' Style Set 4 in Latin lookup 37 subtable" Racute.ss04
Substitution2: "'aalt' Access All Alternates in Latin lookup 0 subtable" Racute.ss04
EndChar

StartChar: Rcaron
Encoding: 344 344 90
Width: 714
GlyphClass: 2
Flags: MW
HStem: 0 21G<62 62 62 258 471 471 471 671> 242 157<258 365 365 373 258 365> 553 157<258 365 258 258> 757 166<261 289 411 439 261 261>
VStem: 62 196<0 242 399 553> 465 200<455.5 502.5> 466 197
AnchorPoint: "Anchor-3" 350 710 basechar 0
AnchorPoint: "Anchor-0" 367 0 basechar 0
LayerCount: 2
Fore
SplineSet
161 923 m 1xfa
 289 923 l 1
 350 835 l 1
 411 923 l 1
 539 923 l 1
 439 757 l 1
 261 757 l 1
 161 923 l 1xfa
62 0 m 1
 62 710 l 1
 401 710 l 2
 561 710 665 627 665 500 c 0xfc
 665 411 619 348 537 322 c 1
 613 313 650 271 655 200 c 2
 671 0 l 1
 471 0 l 1
 461 166 l 2
 458 218 437 242 373 242 c 2
 258 242 l 1
 258 0 l 1
 62 0 l 1
258 399 m 1
 365 399 l 2
 430 399 465 428 465 477 c 0
 465 528 430 553 365 553 c 2
 258 553 l 1
 258 399 l 1
EndSplineSet
Substitution2: "'ss04' Style Set 4 in Latin lookup 37 subtable" Rcaron.ss04
Substitution2: "'aalt' Access All Alternates in Latin lookup 0 subtable" Rcaron.ss04
EndChar

StartChar: uni0156
Encoding: 342 342 91
Width: 714
GlyphClass: 2
Flags: MW
HStem: -180 134<292 326 292 442> 0 21G<62 62 62 258 471 471 471 671> 242 157<258 365 365 373 258 365> 553 157<258 365 258 258>
VStem: 62 196<0 242 399 553> 292 150<-166 -46 -166 -46 -166 -46> 465 200<455.5 502.5> 466 197
AnchorPoint: "Anchor-3" 350 710 basechar 0
AnchorPoint: "Anchor-0" 367 -262 basechar 0
LayerCount: 2
Fore
SplineSet
62 0 m 1xf9
 62 710 l 1
 401 710 l 2
 561 710 665 627 665 500 c 0xfa
 665 411 619 348 537 322 c 1
 613 313 650 271 655 200 c 2
 671 0 l 1
 471 0 l 1
 461 166 l 2
 458 218 437 242 373 242 c 2
 258 242 l 1
 258 0 l 1
 62 0 l 1xf9
258 399 m 1
 365 399 l 2
 430 399 465 428 465 477 c 0
 465 528 430 553 365 553 c 2
 258 553 l 1
 258 399 l 1
276 -262 m 1
 326 -180 l 1
 292 -180 l 1
 292 -46 l 1
 442 -46 l 1
 442 -166 l 1xfc
 384 -262 l 1
 276 -262 l 1
EndSplineSet
Substitution2: "'ss04' Style Set 4 in Latin lookup 37 subtable" uni0156.ss04
Substitution2: "'aalt' Access All Alternates in Latin lookup 0 subtable" uni0156.ss04
EndChar

StartChar: S
Encoding: 83 83 92
Width: 709
GlyphClass: 2
Flags: MW
HStem: -16 154<331 399 331 459> 572 154<319 379.5>
VStem: 63 196<488 528.5 488 570> 463 196<179 219>
AnchorPoint: "Anchor-3" 351 710 basechar 0
AnchorPoint: "Anchor-0" 364 0 basechar 0
LayerCount: 2
Fore
SplineSet
367 -16 m 0
 171 -16 60 82 50 238 c 1
 245 247 l 1
 255 177 293 138 369 138 c 0
 429 138 463 158 463 200 c 0
 463 238 443 260 335 282 c 0
 141 322 63 373 63 504 c 0
 63 636 169 726 349 726 c 0
 539 726 635 623 650 476 c 1
 457 468 l 1
 452 533 412 572 347 572 c 0
 291 572 259 547 259 510 c 0
 259 466 289 446 381 430 c 0
 591 393 659 320 659 208 c 0
 659 69 551 -16 367 -16 c 0
EndSplineSet
EndChar

StartChar: Sacute
Encoding: 346 346 93
Width: 709
GlyphClass: 2
Flags: MW
HStem: -16 154<331 399 331 459> 572 154<319 379.5> 757 160<262 496 316 406>
VStem: 63 196<488 528.5 488 570> 463 196<179 219>
AnchorPoint: "Anchor-3" 351 710 basechar 0
AnchorPoint: "Anchor-0" 364 0 basechar 0
LayerCount: 2
Fore
SplineSet
262 757 m 1
 316 917 l 1
 496 917 l 1
 406 757 l 1
 262 757 l 1
367 -16 m 0
 171 -16 60 82 50 238 c 1
 245 247 l 1
 255 177 293 138 369 138 c 0
 429 138 463 158 463 200 c 0
 463 238 443 260 335 282 c 0
 141 322 63 373 63 504 c 0
 63 636 169 726 349 726 c 0
 539 726 635 623 650 476 c 1
 457 468 l 1
 452 533 412 572 347 572 c 0
 291 572 259 547 259 510 c 0
 259 466 289 446 381 430 c 0
 591 393 659 320 659 208 c 0
 659 69 551 -16 367 -16 c 0
EndSplineSet
EndChar

StartChar: Scaron
Encoding: 352 352 94
Width: 709
GlyphClass: 2
Flags: MW
HStem: -16 154<331 399 331 459> 572 154<319 379.5> 757 166<262 290 412 440 262 262>
VStem: 63 196<488 528.5 488 570> 463 196<179 219>
AnchorPoint: "Anchor-3" 351 710 basechar 0
AnchorPoint: "Anchor-0" 364 0 basechar 0
LayerCount: 2
Fore
SplineSet
162 923 m 1
 290 923 l 1
 351 835 l 1
 412 923 l 1
 540 923 l 1
 440 757 l 1
 262 757 l 1
 162 923 l 1
367 -16 m 0
 171 -16 60 82 50 238 c 1
 245 247 l 1
 255 177 293 138 369 138 c 0
 429 138 463 158 463 200 c 0
 463 238 443 260 335 282 c 0
 141 322 63 373 63 504 c 0
 63 636 169 726 349 726 c 0
 539 726 635 623 650 476 c 1
 457 468 l 1
 452 533 412 572 347 572 c 0
 291 572 259 547 259 510 c 0
 259 466 289 446 381 430 c 0
 591 393 659 320 659 208 c 0
 659 69 551 -16 367 -16 c 0
EndSplineSet
EndChar

StartChar: Scedilla
Encoding: 350 350 95
Width: 709
GlyphClass: 2
Flags: MW
HStem: -240 84<342 370 342 397.5> -154 21G<225 225> -13 21G<310 310> 572 154<319 379.5>
VStem: 63 196<488 528.5 488 570> 401 96<-133 -111 -167 -28> 463 196<179 219>
AnchorPoint: "Anchor-3" 351 710 basechar 0
AnchorPoint: "Anchor-0" 364 0 basechar 0
LayerCount: 2
Fore
SplineSet
361 -240 m 0xbc
 292 -240 245 -206 225 -154 c 1x7c
 301 -120 l 1
 311 -143 327 -156 357 -156 c 0
 383 -156 401 -144 401 -122 c 0xbc
 401 -100 389 -86 343 -86 c 1
 294 -42 l 1
 310 -13 l 1
 150 4 59 98 50 238 c 1
 245 247 l 1
 255 177 293 138 369 138 c 0
 429 138 463 158 463 200 c 0
 463 238 443 260 335 282 c 0
 141 322 63 373 63 504 c 0
 63 636 169 726 349 726 c 0
 539 726 635 623 650 476 c 1
 457 468 l 1
 452 533 412 572 347 572 c 0
 291 572 259 547 259 510 c 0
 259 466 289 446 381 430 c 0
 591 393 659 320 659 208 c 0x7a
 659 80 567 -2 409 -14 c 1
 401 -28 l 1
 469 -36 497 -78 497 -126 c 0
 497 -208 434 -240 361 -240 c 0xbc
EndSplineSet
Substitution2: "'locl' Localized Forms in Latin lookup 10 subtable" uni0218
Substitution2: "'aalt' Access All Alternates in Latin lookup 0 subtable" uni0218
EndChar

StartChar: Scircumflex
Encoding: 348 348 96
Width: 709
GlyphClass: 2
Flags: MW
HStem: -16 154<331 399 331 459> 572 154<319 379.5> 757 166<162 440 262 290 412 412 412 440 262 540>
VStem: 63 196<488 528.5 488 570> 463 196<179 219>
AnchorPoint: "Anchor-3" 351 710 basechar 0
AnchorPoint: "Anchor-0" 364 0 basechar 0
LayerCount: 2
Fore
SplineSet
162 757 m 1
 262 923 l 1
 440 923 l 1
 540 757 l 1
 412 757 l 1
 351 845 l 1
 290 757 l 1
 162 757 l 1
367 -16 m 0
 171 -16 60 82 50 238 c 1
 245 247 l 1
 255 177 293 138 369 138 c 0
 429 138 463 158 463 200 c 0
 463 238 443 260 335 282 c 0
 141 322 63 373 63 504 c 0
 63 636 169 726 349 726 c 0
 539 726 635 623 650 476 c 1
 457 468 l 1
 452 533 412 572 347 572 c 0
 291 572 259 547 259 510 c 0
 259 466 289 446 381 430 c 0
 591 393 659 320 659 208 c 0
 659 69 551 -16 367 -16 c 0
EndSplineSet
EndChar

StartChar: uni0218
Encoding: 536 536 97
Width: 709
GlyphClass: 2
Flags: MW
HStem: -180 134<289 323 289 439> -16 154<331 399 331 459> 572 154<319 379.5>
VStem: 63 196<488 528.5 488 570> 289 150<-166 -46 -166 -46 -166 -46> 463 196<179 219>
AnchorPoint: "Anchor-3" 351 710 basechar 0
AnchorPoint: "Anchor-0" 364 -262 basechar 0
LayerCount: 2
Fore
SplineSet
367 -16 m 0
 171 -16 60 82 50 238 c 1
 245 247 l 1
 255 177 293 138 369 138 c 0
 429 138 463 158 463 200 c 0
 463 238 443 260 335 282 c 0
 141 322 63 373 63 504 c 0
 63 636 169 726 349 726 c 0
 539 726 635 623 650 476 c 1
 457 468 l 1
 452 533 412 572 347 572 c 0
 291 572 259 547 259 510 c 0
 259 466 289 446 381 430 c 0
 591 393 659 320 659 208 c 0
 659 69 551 -16 367 -16 c 0
273 -262 m 1
 323 -180 l 1
 289 -180 l 1
 289 -46 l 1
 439 -46 l 1
 439 -166 l 1xa8
 381 -262 l 1
 273 -262 l 1
EndSplineSet
EndChar

StartChar: uni1E9E
Encoding: 7838 7838 98
Width: 774
GlyphClass: 2
Flags: MW
HStem: 0 157<62 437 325 437 325 437> 553 157<325 705 360 482 360 705>
VStem: 62 196<0 447 0 534> 532 199<204 248.5>
AnchorPoint: "Anchor-3" 387 710 basechar 0
AnchorPoint: "Anchor-0" 387 0 basechar 0
LayerCount: 2
Fore
SplineSet
62 0 m 1
 62 447 l 2
 62 621 161 710 360 710 c 2
 705 710 l 1
 705 553 l 1
 548 414 l 1
 667 388 731 322 731 221 c 0
 731 77 629 0 437 0 c 2
 325 0 l 1
 325 157 l 1
 437 157 l 2
 497 157 532 182 532 226 c 0
 532 271 496 295 431 295 c 2
 335 295 l 1
 335 418 l 1
 482 553 l 1
 360 553 l 2
 290 553 258 519 258 447 c 2
 258 0 l 1
 62 0 l 1
EndSplineSet
EndChar

StartChar: T
Encoding: 84 84 99
Width: 631
GlyphClass: 2
Flags: MW
HStem: 0 21G<217 217 217 414> 553 157<10 217 10 621 414 414 414 621>
VStem: 217 197<0 553 0 553>
AnchorPoint: "Anchor-3" 315 710 basechar 0
AnchorPoint: "Anchor-1" 316 312 basechar 0
AnchorPoint: "Anchor-0" 315 0 basechar 0
LayerCount: 2
Fore
SplineSet
217 0 m 1
 217 553 l 1
 10 553 l 1
 10 710 l 1
 621 710 l 1
 621 553 l 1
 414 553 l 1
 414 0 l 1
 217 0 l 1
EndSplineSet
EndChar

StartChar: Tbar
Encoding: 358 358 100
Width: 631
GlyphClass: 2
Flags: MW
HStem: 0 21G<217 217 217 414> 242 140<101 217 101 217 414 531> 553 157<10 217 10 621 414 414 414 621>
VStem: 217 197<0 242 0 242 382 553>
AnchorPoint: "Anchor-3" 315 710 basechar 0
AnchorPoint: "Anchor-1" 316 312 basechar 0
AnchorPoint: "Anchor-0" 315 0 basechar 0
LayerCount: 2
Fore
SplineSet
217 0 m 1
 217 242 l 1
 101 242 l 1
 101 382 l 1
 217 382 l 1
 217 553 l 1
 10 553 l 1
 10 710 l 1
 621 710 l 1
 621 553 l 1
 414 553 l 1
 414 382 l 1
 531 382 l 1
 531 242 l 1
 414 242 l 1
 414 0 l 1
 217 0 l 1
EndSplineSet
EndChar

StartChar: Tcaron
Encoding: 356 356 101
Width: 631
GlyphClass: 2
Flags: MW
HStem: 0 21G<217 217 217 414> 553 157<10 217 10 621 414 414 414 621> 757 166<226 254 376 404 226 226>
VStem: 217 197<0 553 0 553>
AnchorPoint: "Anchor-3" 315 710 basechar 0
AnchorPoint: "Anchor-1" 316 312 basechar 0
AnchorPoint: "Anchor-0" 315 0 basechar 0
LayerCount: 2
Fore
SplineSet
126 923 m 1
 254 923 l 1
 315 835 l 1
 376 923 l 1
 504 923 l 1
 404 757 l 1
 226 757 l 1
 126 923 l 1
217 0 m 1
 217 553 l 1
 10 553 l 1
 10 710 l 1
 621 710 l 1
 621 553 l 1
 414 553 l 1
 414 0 l 1
 217 0 l 1
EndSplineSet
EndChar

StartChar: uni0162
Encoding: 354 354 102
Width: 631
GlyphClass: 2
Flags: MW
HStem: -240 84<293 321 293 348.5> -154 21G<176 176> 0 21G<217 217 217 268 369 369 369 414> 553 157<10 217 10 621 414 414 414 621>
VStem: 217 197<0 553 0 553> 352 96<-133 -111 -167 -28>
AnchorPoint: "Anchor-3" 315 710 basechar 0
AnchorPoint: "Anchor-1" 316 312 basechar 0
AnchorPoint: "Anchor-0" 315 0 basechar 0
LayerCount: 2
Fore
SplineSet
217 0 m 1x78
 217 553 l 1
 10 553 l 1
 10 710 l 1
 621 710 l 1
 621 553 l 1
 414 553 l 1
 414 0 l 1x78
 369 0 l 1
 352 -28 l 1
 420 -36 448 -78 448 -126 c 0
 448 -208 385 -240 312 -240 c 0xb4
 243 -240 196 -206 176 -154 c 1x78
 252 -120 l 1
 262 -143 278 -156 308 -156 c 0
 334 -156 352 -144 352 -122 c 0xb4
 352 -100 340 -86 294 -86 c 1
 245 -42 l 1
 268 0 l 1
 217 0 l 1x78
EndSplineSet
Substitution2: "'locl' Localized Forms in Latin lookup 10 subtable" uni021A
Substitution2: "'aalt' Access All Alternates in Latin lookup 0 subtable" uni021A
EndChar

StartChar: uni021A
Encoding: 538 538 103
Width: 631
GlyphClass: 2
Flags: MW
HStem: -180 134<240 274 240 390> 0 21G<217 217 217 414> 553 157<10 217 10 621 414 414 414 621>
VStem: 217 173<-166 553> 217 197<0 553 0 553> 240 174<-180 553 -46 553>
AnchorPoint: "Anchor-3" 315 710 basechar 0
AnchorPoint: "Anchor-1" 316 312 basechar 0
AnchorPoint: "Anchor-0" 315 -262 basechar 0
LayerCount: 2
Fore
SplineSet
217 0 m 1xe8
 217 553 l 1
 10 553 l 1
 10 710 l 1
 621 710 l 1
 621 553 l 1
 414 553 l 1
 414 0 l 1
 217 0 l 1xe8
224 -262 m 1
 274 -180 l 1
 240 -180 l 1
 240 -46 l 1xe4
 390 -46 l 1
 390 -166 l 1xf0
 332 -262 l 1
 224 -262 l 1
EndSplineSet
EndChar

StartChar: U
Encoding: 85 85 104
Width: 713
GlyphClass: 2
Flags: MW
HStem: -16 157<319.5 393 319.5 451> 691 20G<47 243 243 243 470 666 666 666>
VStem: 47 196<262 711> 470 196<262 711>
AnchorPoint: "Anchor-3" 356 710 basechar 0
AnchorPoint: "Anchor-2" 473 0 basechar 0
AnchorPoint: "Anchor-0" 356 0 basechar 0
LayerCount: 2
Fore
SplineSet
356 -16 m 0
 167 -16 47 92 47 262 c 2
 47 711 l 1
 243 711 l 1
 243 262 l 2
 243 184 283 141 356 141 c 0
 430 141 470 184 470 262 c 2
 470 711 l 1
 666 711 l 1
 666 262 l 2
 666 92 546 -16 356 -16 c 0
EndSplineSet
EndChar

StartChar: Uacute
Encoding: 218 218 105
Width: 713
GlyphClass: 2
Flags: MW
HStem: -16 157<319.5 393 319.5 451> 691 20G<47 243 243 243 470 666 666 666> 757 160<267 501 321 411>
VStem: 47 196<262 711> 470 196<262 711>
AnchorPoint: "Anchor-3" 356 710 basechar 0
AnchorPoint: "Anchor-2" 473 0 basechar 0
AnchorPoint: "Anchor-0" 356 0 basechar 0
LayerCount: 2
Fore
SplineSet
267 757 m 1
 321 917 l 1
 501 917 l 1
 411 757 l 1
 267 757 l 1
356 -16 m 0
 167 -16 47 92 47 262 c 2
 47 711 l 1
 243 711 l 1
 243 262 l 2
 243 184 283 141 356 141 c 0
 430 141 470 184 470 262 c 2
 470 711 l 1
 666 711 l 1
 666 262 l 2
 666 92 546 -16 356 -16 c 0
EndSplineSet
EndChar

StartChar: Ubreve
Encoding: 364 364 106
Width: 713
GlyphClass: 2
Flags: MW
HStem: -16 157<319.5 393 319.5 451> 691 20G<47 243 243 243 470 666 666 666> 754 96<338 374 338 406> 754 160<188 406>
VStem: 47 196<262 711> 188 106<914 914> 418 106<914 914> 470 196<262 711>
AnchorPoint: "Anchor-3" 356 710 basechar 0
AnchorPoint: "Anchor-2" 473 0 basechar 0
AnchorPoint: "Anchor-0" 356 0 basechar 0
LayerCount: 2
Fore
SplineSet
356 754 m 0xda
 256 754 192 810 188 914 c 1xd5
 294 914 l 1
 298 868 320 850 356 850 c 0xe6
 392 850 414 868 418 914 c 1
 524 914 l 1
 520 810 456 754 356 754 c 0xda
356 -16 m 0
 167 -16 47 92 47 262 c 2
 47 711 l 1
 243 711 l 1
 243 262 l 2xd9
 243 184 283 141 356 141 c 0
 430 141 470 184 470 262 c 2
 470 711 l 1
 666 711 l 1
 666 262 l 2
 666 92 546 -16 356 -16 c 0
EndSplineSet
EndChar

StartChar: Ucircumflex
Encoding: 219 219 107
Width: 713
GlyphClass: 2
Flags: MW
HStem: -16 157<319.5 393 319.5 451> 691 20G<47 243 243 243 470 666 666 666> 757 166<167 445 267 295 417 417 417 445 267 545>
VStem: 47 196<262 711> 470 196<262 711>
AnchorPoint: "Anchor-3" 356 710 basechar 0
AnchorPoint: "Anchor-2" 473 0 basechar 0
AnchorPoint: "Anchor-0" 356 0 basechar 0
LayerCount: 2
Fore
SplineSet
167 757 m 1
 267 923 l 1
 445 923 l 1
 545 757 l 1
 417 757 l 1
 356 845 l 1
 295 757 l 1
 167 757 l 1
356 -16 m 0
 167 -16 47 92 47 262 c 2
 47 711 l 1
 243 711 l 1
 243 262 l 2
 243 184 283 141 356 141 c 0
 430 141 470 184 470 262 c 2
 470 711 l 1
 666 711 l 1
 666 262 l 2
 666 92 546 -16 356 -16 c 0
EndSplineSet
EndChar

StartChar: Udieresis
Encoding: 220 220 108
Width: 713
GlyphClass: 2
Flags: MW
HStem: -16 157<319.5 393 319.5 451> 691 20G<47 243 243 243 470 666 666 666> 760 136<145 325 145 325 387 567 145 387>
VStem: 47 196<262 711> 145 98 145 180<760 896 760 896> 387 180<760 896 760 896> 470 97<262 896 711 896> 470 196<262 711>
AnchorPoint: "Anchor-3" 356 710 basechar 0
AnchorPoint: "Anchor-2" 473 0 basechar 0
AnchorPoint: "Anchor-0" 356 0 basechar 0
LayerCount: 2
Fore
SplineSet
145 760 m 1xe880
 145 896 l 1xea
 325 896 l 1
 325 760 l 1xe480
 145 760 l 1xe880
387 760 m 1
 387 896 l 1xf2
 567 896 l 1
 567 760 l 1xf1
 387 760 l 1
356 -16 m 0
 167 -16 47 92 47 262 c 2
 47 711 l 1
 243 711 l 1
 243 262 l 2
 243 184 283 141 356 141 c 0
 430 141 470 184 470 262 c 2
 470 711 l 1
 666 711 l 1
 666 262 l 2xf080
 666 92 546 -16 356 -16 c 0
EndSplineSet
Substitution2: "'ss08' Style Set 8 in Latin lookup 41 subtable" Udieresis.ss08
Substitution2: "'aalt' Access All Alternates in Latin lookup 0 subtable" Udieresis.ss08
EndChar

StartChar: Ugrave
Encoding: 217 217 109
Width: 713
GlyphClass: 2
Flags: MW
HStem: -16 157<319.5 393 319.5 451> 691 20G<47 243 243 243 470 666 666 666> 764 160<297 297 297 387 207 441>
VStem: 47 196<262 711> 470 196<262 711>
AnchorPoint: "Anchor-3" 356 710 basechar 0
AnchorPoint: "Anchor-2" 473 0 basechar 0
AnchorPoint: "Anchor-0" 356 0 basechar 0
LayerCount: 2
Fore
SplineSet
297 764 m 1
 207 924 l 1
 387 924 l 1
 441 764 l 1
 297 764 l 1
356 -16 m 0
 167 -16 47 92 47 262 c 2
 47 711 l 1
 243 711 l 1
 243 262 l 2
 243 184 283 141 356 141 c 0
 430 141 470 184 470 262 c 2
 470 711 l 1
 666 711 l 1
 666 262 l 2
 666 92 546 -16 356 -16 c 0
EndSplineSet
EndChar

StartChar: Uhungarumlaut
Encoding: 368 368 110
Width: 713
GlyphClass: 2
Flags: MW
HStem: -16 157<319.5 393 319.5 451> 691 20G<47 243 243 243 470 666 666 666> 757 160<182 416 236 326 390 416 444 534 390 390>
VStem: 47 196<262 711> 470 196<262 711>
AnchorPoint: "Anchor-3" 356 710 basechar 0
AnchorPoint: "Anchor-2" 473 0 basechar 0
AnchorPoint: "Anchor-0" 356 0 basechar 0
LayerCount: 2
Fore
SplineSet
182 757 m 1
 236 917 l 1
 416 917 l 1
 326 757 l 1
 182 757 l 1
390 757 m 1
 444 917 l 1
 624 917 l 1
 534 757 l 1
 390 757 l 1
356 -16 m 0
 167 -16 47 92 47 262 c 2
 47 711 l 1
 243 711 l 1
 243 262 l 2
 243 184 283 141 356 141 c 0
 430 141 470 184 470 262 c 2
 470 711 l 1
 666 711 l 1
 666 262 l 2
 666 92 546 -16 356 -16 c 0
EndSplineSet
EndChar

StartChar: Umacron
Encoding: 362 362 111
Width: 713
GlyphClass: 2
Flags: MW
HStem: -16 157<319.5 393 319.5 451> 691 20G<47 243 243 243 470 666 666 666> 765 135<196 516 196 516>
VStem: 47 196<262 711> 196 47 470 46 470 196<262 711>
AnchorPoint: "Anchor-3" 356 710 basechar 0
AnchorPoint: "Anchor-2" 473 0 basechar 0
AnchorPoint: "Anchor-0" 356 0 basechar 0
LayerCount: 2
Fore
SplineSet
196 765 m 1xec
 196 900 l 1
 516 900 l 1
 516 765 l 1
 196 765 l 1xec
356 -16 m 0
 167 -16 47 92 47 262 c 2
 47 711 l 1
 243 711 l 1
 243 262 l 2
 243 184 283 141 356 141 c 0
 430 141 470 184 470 262 c 2
 470 711 l 1
 666 711 l 1
 666 262 l 2xf2
 666 92 546 -16 356 -16 c 0
EndSplineSet
EndChar

StartChar: Uogonek
Encoding: 370 370 112
Width: 713
GlyphClass: 2
Flags: MW
HStem: -222 104<350.5 446> -14 21G<312 312> 691 20G<47 243 243 243 470 666 666 666>
VStem: 47 196<262 711> 264 150<-157 -85.5> 470 196<262 711>
AnchorPoint: "Anchor-3" 356 710 basechar 0
AnchorPoint: "Anchor-2" 473 0 basechar 0
AnchorPoint: "Anchor-0" 356 0 basechar 0
LayerCount: 2
Fore
SplineSet
391 -222 m 0
 310 -222 264 -188 264 -126 c 0xec
 264 -84 286 -48 309 -18 c 2
 312 -14 l 1
 149 2 47 106 47 262 c 2
 47 711 l 1
 243 711 l 1
 243 262 l 2xf4
 243 184 283 141 356 141 c 0
 430 141 470 184 470 262 c 2
 470 711 l 1
 666 711 l 1
 666 262 l 2
 666 130 594 36 473 0 c 1
 446 -34 l 2
 430 -55 414 -77 414 -94 c 0
 414 -111 426 -118 438 -118 c 0
 454 -118 473 -112 481 -106 c 1
 511 -196 l 1
 491 -210 439 -222 391 -222 c 0
EndSplineSet
EndChar

StartChar: Uring
Encoding: 366 366 113
Width: 713
GlyphClass: 2
Flags: MW
HStem: -16 157<319.5 393 319.5 451> 691 20G<47 243 243 243 470 666 666 666> 744 74<346 366 346 387> 886 74<346 366>
VStem: 47 196<262 711> 246 76<842 862 842 883> 390 76<842 862> 470 196<262 711>
AnchorPoint: "Anchor-3" 356 710 basechar 0
AnchorPoint: "Anchor-2" 473 0 basechar 0
AnchorPoint: "Anchor-0" 356 0 basechar 0
LayerCount: 2
Fore
SplineSet
356 744 m 0
 294 744 246 790 246 852 c 0
 246 914 294 960 356 960 c 0
 418 960 466 914 466 852 c 0
 466 790 418 744 356 744 c 0
356 818 m 0
 376 818 390 832 390 852 c 0
 390 872 376 886 356 886 c 0
 336 886 322 872 322 852 c 0
 322 832 336 818 356 818 c 0
356 -16 m 0
 167 -16 47 92 47 262 c 2
 47 711 l 1
 243 711 l 1
 243 262 l 2
 243 184 283 141 356 141 c 0
 430 141 470 184 470 262 c 2
 470 711 l 1
 666 711 l 1
 666 262 l 2xf9
 666 92 546 -16 356 -16 c 0
EndSplineSet
EndChar

StartChar: Utilde
Encoding: 360 360 114
Width: 713
GlyphClass: 2
Flags: MW
HStem: -16 157<319.5 393 319.5 451> 691 20G<47 243 243 243 470 666 666 666> 759 159<256.5 265 175 312> 764 111<407 420.5 407 451.5> 764 160<446 451.5> 807 111<292 305>
VStem: 47 196<262 711> 175 68 446 90<875.5 924> 470 196<262 711>
AnchorPoint: "Anchor-3" 356 710 basechar 0
AnchorPoint: "Anchor-2" 473 0 basechar 0
AnchorPoint: "Anchor-0" 356 0 basechar 0
LayerCount: 2
Fore
SplineSet
410 764 m 0xca80
 376 764 358 770 330 794 c 0
 320 802 310 807 300 807 c 0xc640
 284 807 269 796 265 759 c 1
 175 759 l 1
 175 853 217 918 296 918 c 0xe140
 328 918 353 911 381 889 c 0
 394 879 402 875 412 875 c 0xd280
 429 875 444 885 446 924 c 1
 536 924 l 1
 536 827 493 764 410 764 c 0xca80
356 -16 m 0
 167 -16 47 92 47 262 c 2
 47 711 l 1
 243 711 l 1
 243 262 l 2
 243 184 283 141 356 141 c 0
 430 141 470 184 470 262 c 2
 470 711 l 1
 666 711 l 1
 666 262 l 2
 666 92 546 -16 356 -16 c 0
EndSplineSet
EndChar

StartChar: V
Encoding: 86 86 115
Width: 772
GlyphClass: 2
Flags: MW
HStem: 0 21G<274 274 274 496> 690 20G<18 218 218 218 554 754 754 754>
VStem: 18 736<710 710>
AnchorPoint: "Anchor-3" 386 710 basechar 0
AnchorPoint: "Anchor-0" 386 0 basechar 0
LayerCount: 2
Fore
SplineSet
274 0 m 1
 18 710 l 1
 218 710 l 1
 386 222 l 1
 554 710 l 1
 754 710 l 1
 496 0 l 1
 274 0 l 1
EndSplineSet
EndChar

StartChar: W
Encoding: 87 87 116
Width: 1061
GlyphClass: 2
Flags: MW
HStem: 0 21G<231 231 231 431 631 631 631 831> 690 20G<36 238 238 238 453 609 609 609 823 1025 1025 1025>
VStem: 36 989<710 710>
AnchorPoint: "Anchor-3" 531 710 basechar 0
AnchorPoint: "Anchor-0" 531 0 basechar 0
LayerCount: 2
Fore
SplineSet
231 0 m 1
 36 710 l 1
 238 710 l 1
 344 272 l 1
 453 710 l 1
 609 710 l 1
 718 272 l 1
 823 710 l 1
 1025 710 l 1
 831 0 l 1
 631 0 l 1
 531 390 l 1
 431 0 l 1
 231 0 l 1
EndSplineSet
EndChar

StartChar: Wacute
Encoding: 7810 7810 117
Width: 1061
GlyphClass: 2
Flags: MW
HStem: 0 21G<231 231 231 431 631 631 631 831> 690 20G<36 238 238 238 453 609 609 609 823 1025 1025 1025> 757 160<442 676 496 586>
VStem: 36 989<710 710>
AnchorPoint: "Anchor-3" 531 710 basechar 0
AnchorPoint: "Anchor-0" 531 0 basechar 0
LayerCount: 2
Fore
SplineSet
442 757 m 1
 496 917 l 1
 676 917 l 1
 586 757 l 1
 442 757 l 1
231 0 m 1
 36 710 l 1
 238 710 l 1
 344 272 l 1
 453 710 l 1
 609 710 l 1
 718 272 l 1
 823 710 l 1
 1025 710 l 1
 831 0 l 1
 631 0 l 1
 531 390 l 1
 431 0 l 1
 231 0 l 1
EndSplineSet
EndChar

StartChar: Wcircumflex
Encoding: 372 372 118
Width: 1061
GlyphClass: 2
Flags: MW
HStem: 0 21G<231 231 231 431 631 631 631 831> 690 20G<36 238 238 238 453 609 609 609 823 1025 1025 1025> 757 166<342 620 442 470 592 592 592 620 442 720>
VStem: 36 989<710 710>
AnchorPoint: "Anchor-3" 531 710 basechar 0
AnchorPoint: "Anchor-0" 531 0 basechar 0
LayerCount: 2
Fore
SplineSet
342 757 m 1
 442 923 l 1
 620 923 l 1
 720 757 l 1
 592 757 l 1
 531 845 l 1
 470 757 l 1
 342 757 l 1
231 0 m 1
 36 710 l 1
 238 710 l 1
 344 272 l 1
 453 710 l 1
 609 710 l 1
 718 272 l 1
 823 710 l 1
 1025 710 l 1
 831 0 l 1
 631 0 l 1
 531 390 l 1
 431 0 l 1
 231 0 l 1
EndSplineSet
EndChar

StartChar: Wdieresis
Encoding: 7812 7812 119
Width: 1061
GlyphClass: 2
Flags: MW
HStem: 0 21G<231 231 231 431 631 631 631 831> 690 20G<36 238 238 238 453 609 609 609 823 1025 1025 1025> 760 136<320 500 320 500 562 742 320 562>
VStem: 320 180<760 896 760 896> 562 180<760 896 760 896>
AnchorPoint: "Anchor-3" 531 710 basechar 0
AnchorPoint: "Anchor-0" 531 0 basechar 0
LayerCount: 2
Fore
SplineSet
320 760 m 1
 320 896 l 1
 500 896 l 1
 500 760 l 1
 320 760 l 1
562 760 m 1
 562 896 l 1
 742 896 l 1
 742 760 l 1
 562 760 l 1
231 0 m 1
 36 710 l 1
 238 710 l 1
 344 272 l 1
 453 710 l 1
 609 710 l 1
 718 272 l 1
 823 710 l 1
 1025 710 l 1
 831 0 l 1
 631 0 l 1
 531 390 l 1
 431 0 l 1
 231 0 l 1
EndSplineSet
Substitution2: "'ss08' Style Set 8 in Latin lookup 41 subtable" Wdieresis.ss08
Substitution2: "'aalt' Access All Alternates in Latin lookup 0 subtable" Wdieresis.ss08
EndChar

StartChar: Wgrave
Encoding: 7808 7808 120
Width: 1061
GlyphClass: 2
Flags: MW
HStem: 0 21G<231 231 231 431 631 631 631 831> 690 20G<36 238 238 238 453 609 609 609 823 1025 1025 1025> 764 160<472 472 472 562 382 616>
VStem: 36 989<710 710>
AnchorPoint: "Anchor-3" 531 710 basechar 0
AnchorPoint: "Anchor-0" 531 0 basechar 0
LayerCount: 2
Fore
SplineSet
472 764 m 1
 382 924 l 1
 562 924 l 1
 616 764 l 1
 472 764 l 1
231 0 m 1
 36 710 l 1
 238 710 l 1
 344 272 l 1
 453 710 l 1
 609 710 l 1
 718 272 l 1
 823 710 l 1
 1025 710 l 1
 831 0 l 1
 631 0 l 1
 531 390 l 1
 431 0 l 1
 231 0 l 1
EndSplineSet
EndChar

StartChar: X
Encoding: 88 88 121
Width: 742
GlyphClass: 2
Flags: MW
HStem: 0 21G<10 10 10 238 506 506 506 732> 690 20G<12 238 238 238 502 730 730 730>
VStem: 10 722<0 0>
AnchorPoint: "Anchor-3" 371 710 basechar 0
AnchorPoint: "Anchor-0" 371 0 basechar 0
LayerCount: 2
Fore
SplineSet
10 0 m 1
 257 356 l 1
 12 710 l 1
 238 710 l 1
 373 502 l 1
 502 710 l 1
 730 710 l 1
 486 358 l 1
 732 0 l 1
 506 0 l 1
 371 212 l 1
 238 0 l 1
 10 0 l 1
EndSplineSet
EndChar

StartChar: Y
Encoding: 89 89 122
Width: 668
GlyphClass: 2
Flags: MW
HStem: 0 21G<236 236 236 433> 690 20G<-8 204 204 204 464 676 676 676>
VStem: 236 197<0 266 0 266>
AnchorPoint: "Anchor-3" 335 710 basechar 0
AnchorPoint: "Anchor-0" 335 0 basechar 0
LayerCount: 2
Fore
SplineSet
236 0 m 1
 236 266 l 1
 -8 710 l 1
 204 710 l 1
 335 454 l 1
 464 710 l 1
 676 710 l 1
 433 266 l 1
 433 0 l 1
 236 0 l 1
EndSplineSet
EndChar

StartChar: Yacute
Encoding: 221 221 123
Width: 668
GlyphClass: 2
Flags: MW
HStem: 0 21G<236 236 236 433> 690 20G<-8 204 204 204 464 676 676 676> 757 160<246 480 300 390>
VStem: 236 197<0 266 0 266>
AnchorPoint: "Anchor-3" 335 710 basechar 0
AnchorPoint: "Anchor-0" 335 0 basechar 0
LayerCount: 2
Fore
SplineSet
246 757 m 1
 300 917 l 1
 480 917 l 1
 390 757 l 1
 246 757 l 1
236 0 m 1
 236 266 l 1
 -8 710 l 1
 204 710 l 1
 335 454 l 1
 464 710 l 1
 676 710 l 1
 433 266 l 1
 433 0 l 1
 236 0 l 1
EndSplineSet
EndChar

StartChar: Ycircumflex
Encoding: 374 374 124
Width: 668
GlyphClass: 2
Flags: MW
HStem: 0 21G<236 236 236 433> 690 20G<-8 204 204 204 464 676 676 676> 757 166<146 424 246 274 396 396 396 424 246 524>
VStem: 236 197<0 266 0 266>
AnchorPoint: "Anchor-3" 335 710 basechar 0
AnchorPoint: "Anchor-0" 335 0 basechar 0
LayerCount: 2
Fore
SplineSet
146 757 m 1
 246 923 l 1
 424 923 l 1
 524 757 l 1
 396 757 l 1
 335 845 l 1
 274 757 l 1
 146 757 l 1
236 0 m 1
 236 266 l 1
 -8 710 l 1
 204 710 l 1
 335 454 l 1
 464 710 l 1
 676 710 l 1
 433 266 l 1
 433 0 l 1
 236 0 l 1
EndSplineSet
EndChar

StartChar: Ydieresis
Encoding: 376 376 125
Width: 668
GlyphClass: 2
Flags: MW
HStem: 0 21G<236 236 236 433> 690 20G<-8 204 204 204 464 676 676 676> 760 136<124 304 124 304 366 546 124 366>
VStem: 124 180<760 896 760 896> 236 197<0 266 0 266> 366 180<760 896 760 896>
AnchorPoint: "Anchor-3" 335 710 basechar 0
AnchorPoint: "Anchor-0" 335 0 basechar 0
LayerCount: 2
Fore
SplineSet
124 760 m 1xf4
 124 896 l 1
 304 896 l 1
 304 760 l 1
 124 760 l 1xf4
366 760 m 1
 366 896 l 1
 546 896 l 1
 546 760 l 1
 366 760 l 1
236 0 m 1xe8
 236 266 l 1
 -8 710 l 1
 204 710 l 1
 335 454 l 1
 464 710 l 1
 676 710 l 1
 433 266 l 1
 433 0 l 1
 236 0 l 1xe8
EndSplineSet
Substitution2: "'ss08' Style Set 8 in Latin lookup 41 subtable" Ydieresis.ss08
Substitution2: "'aalt' Access All Alternates in Latin lookup 0 subtable" Ydieresis.ss08
EndChar

StartChar: Ygrave
Encoding: 7922 7922 126
Width: 668
GlyphClass: 2
Flags: MW
HStem: 0 21G<236 236 236 433> 690 20G<-8 204 204 204 464 676 676 676> 764 160<276 276 276 366 186 420>
VStem: 236 197<0 266 0 266>
AnchorPoint: "Anchor-3" 335 710 basechar 0
AnchorPoint: "Anchor-0" 335 0 basechar 0
LayerCount: 2
Fore
SplineSet
276 764 m 1
 186 924 l 1
 366 924 l 1
 420 764 l 1
 276 764 l 1
236 0 m 1
 236 266 l 1
 -8 710 l 1
 204 710 l 1
 335 454 l 1
 464 710 l 1
 676 710 l 1
 433 266 l 1
 433 0 l 1
 236 0 l 1
EndSplineSet
EndChar

StartChar: uni1EF8
Encoding: 7928 7928 127
Width: 668
GlyphClass: 2
Flags: MW
HStem: 0 21G<236 236 236 433> 690 20G<-8 204 204 204 464 676 676 676> 759 159<235.5 244 154 291> 764 111<386 399.5 386 430.5> 764 160<425 430.5> 807 111<271 284>
VStem: 154 90<759 806> 236 197<0 266 0 266> 425 90<875.5 924>
AnchorPoint: "Anchor-3" 335 710 basechar 0
AnchorPoint: "Anchor-0" 335 0 basechar 0
LayerCount: 2
Fore
SplineSet
389 764 m 0xc880
 355 764 337 770 309 794 c 0
 299 802 289 807 279 807 c 0xc6
 263 807 248 796 244 759 c 1
 154 759 l 1
 154 853 196 918 275 918 c 0xe2
 307 918 332 911 360 889 c 0
 373 879 381 875 391 875 c 0xd080
 408 875 423 885 425 924 c 1
 515 924 l 1
 515 827 472 764 389 764 c 0xc880
236 0 m 1xc9
 236 266 l 1
 -8 710 l 1
 204 710 l 1
 335 454 l 1
 464 710 l 1
 676 710 l 1
 433 266 l 1
 433 0 l 1
 236 0 l 1xc9
EndSplineSet
EndChar

StartChar: Z
Encoding: 90 90 128
Width: 627
GlyphClass: 2
Flags: MW
HStem: 0 157<265 601 265 601> 553 157<44 337 44 586>
VStem: 26 575<0 148 148 148>
AnchorPoint: "Anchor-3" 323 710 basechar 0
AnchorPoint: "Anchor-0" 323 0 basechar 0
LayerCount: 2
Fore
SplineSet
26 0 m 1
 26 148 l 1
 337 553 l 1
 44 553 l 1
 44 710 l 1
 586 710 l 1
 586 562 l 1
 265 157 l 1
 601 157 l 1
 601 0 l 1
 26 0 l 1
EndSplineSet
EndChar

StartChar: Zacute
Encoding: 377 377 129
Width: 627
GlyphClass: 2
Flags: MW
HStem: 0 157<265 601 265 601> 553 157<44 337 44 586> 757 160<234 468 288 378>
VStem: 26 575<0 148 148 148>
AnchorPoint: "Anchor-3" 323 710 basechar 0
AnchorPoint: "Anchor-0" 323 0 basechar 0
LayerCount: 2
Fore
SplineSet
234 757 m 1
 288 917 l 1
 468 917 l 1
 378 757 l 1
 234 757 l 1
26 0 m 1
 26 148 l 1
 337 553 l 1
 44 553 l 1
 44 710 l 1
 586 710 l 1
 586 562 l 1
 265 157 l 1
 601 157 l 1
 601 0 l 1
 26 0 l 1
EndSplineSet
EndChar

StartChar: Zcaron
Encoding: 381 381 130
Width: 627
GlyphClass: 2
Flags: MW
HStem: 0 157<265 601 265 601> 553 157<44 337 44 586> 757 166<234 262 384 412 234 234>
VStem: 26 575<0 148 148 148>
AnchorPoint: "Anchor-3" 323 710 basechar 0
AnchorPoint: "Anchor-0" 323 0 basechar 0
LayerCount: 2
Fore
SplineSet
134 923 m 1
 262 923 l 1
 323 835 l 1
 384 923 l 1
 512 923 l 1
 412 757 l 1
 234 757 l 1
 134 923 l 1
26 0 m 1
 26 148 l 1
 337 553 l 1
 44 553 l 1
 44 710 l 1
 586 710 l 1
 586 562 l 1
 265 157 l 1
 601 157 l 1
 601 0 l 1
 26 0 l 1
EndSplineSet
EndChar

StartChar: Zdotaccent
Encoding: 379 379 131
Width: 627
GlyphClass: 2
Flags: MW
HStem: 0 157<265 601 265 601> 553 157<44 337 44 586> 764 136<223 423 223 423>
VStem: 223 200<764 900 764 900>
AnchorPoint: "Anchor-3" 323 710 basechar 0
AnchorPoint: "Anchor-0" 323 0 basechar 0
LayerCount: 2
Fore
SplineSet
223 764 m 1
 223 900 l 1
 423 900 l 1
 423 764 l 1
 223 764 l 1
26 0 m 1
 26 148 l 1
 337 553 l 1
 44 553 l 1
 44 710 l 1
 586 710 l 1
 586 562 l 1
 265 157 l 1
 601 157 l 1
 601 0 l 1
 26 0 l 1
EndSplineSet
Substitution2: "'ss08' Style Set 8 in Latin lookup 41 subtable" Zdotaccent.ss08
Substitution2: "'aalt' Access All Alternates in Latin lookup 0 subtable" Zdotaccent.ss08
EndChar

StartChar: uniA78B
Encoding: 42891 42891 132
Width: 260
GlyphClass: 1
Flags: MW
HStem: 690 20G<40 220 220 220>
VStem: 40 180<556 710 556 710>
LayerCount: 2
Fore
SplineSet
54 316 m 1
 40 556 l 1
 40 710 l 1
 220 710 l 1
 220 556 l 1
 206 316 l 1
 54 316 l 1
EndSplineSet
EndChar

StartChar: uni013B.loclMAH
Encoding: 65538 -1 133
Width: 595
GlyphClass: 2
Flags: MW
HStem: -180 134<239 273 239 389> 0 157<258 567 258 567> 690 20G<62 258 258 258>
VStem: 62 196<157 710 157 710 157 710> 239 150<-166 -46 -166 -46 -166 -46>
AnchorPoint: "Anchor-4" 350 540 basechar 0
AnchorPoint: "Anchor-3" 160 710 basechar 0
AnchorPoint: "Anchor-1" 190 380 basechar 0
AnchorPoint: "Anchor-0" 314 -262 basechar 0
LayerCount: 2
Fore
SplineSet
62 0 m 1xf0
 62 710 l 1
 258 710 l 1
 258 157 l 1
 567 157 l 1
 567 0 l 1
 62 0 l 1xf0
223 -262 m 1
 273 -180 l 1
 239 -180 l 1
 239 -46 l 1
 389 -46 l 1
 389 -166 l 1xe8
 331 -262 l 1
 223 -262 l 1
EndSplineSet
EndChar

StartChar: uni0145.loclMAH
Encoding: 65539 -1 134
Width: 755
GlyphClass: 2
Flags: MW
HStem: -180 134<297 331 297 447> 0 21G<62 62 62 258 495 495 495 693> 690 20G<62 260 260 260 497 693 693 693>
VStem: 62 196<0 380 0 710> 297 150<-166 -46 -166 -46 -166 -46> 497 196<310 710 0 710>
AnchorPoint: "Anchor-3" 378 710 basechar 0
AnchorPoint: "Anchor-0" 372 -262 basechar 0
LayerCount: 2
Fore
SplineSet
62 0 m 1
 62 710 l 1
 260 710 l 1
 497 310 l 1
 497 710 l 1
 693 710 l 1
 693 0 l 1
 495 0 l 1
 258 380 l 1
 258 0 l 1
 62 0 l 1
281 -262 m 1
 331 -180 l 1
 297 -180 l 1
 297 -46 l 1
 447 -46 l 1
 447 -166 l 1
 389 -262 l 1
 281 -262 l 1
EndSplineSet
EndChar

StartChar: R.ss04
Encoding: 65540 -1 135
Width: 729
GlyphClass: 2
Flags: MW
HStem: 0 21G<62 62 62 258 476 476 476 686> 244 155<258 351 351 354 258 351> 553 157<258 351 258 258>
VStem: 62 196<0 244 399 553> 454 199<449 501.5>
AnchorPoint: "Anchor-3" 349 710 basechar 0
AnchorPoint: "Anchor-0" 349 0 basechar 0
LayerCount: 2
Fore
SplineSet
62 0 m 1
 62 710 l 1
 366 710 l 2
 550 710 653 626 653 478 c 0
 653 393 615 315 535 280 c 1
 686 0 l 1
 476 0 l 1
 354 244 l 1
 258 244 l 1
 258 0 l 1
 62 0 l 1
258 399 m 1
 351 399 l 2
 410 399 454 423 454 475 c 0
 454 528 410 553 351 553 c 2
 258 553 l 1
 258 399 l 1
EndSplineSet
EndChar

StartChar: Racute.ss04
Encoding: 65541 -1 136
Width: 729
GlyphClass: 2
Flags: MW
HStem: 0 21G<62 62 62 258 476 476 476 686> 244 155<258 351 351 354 258 351> 553 157<258 351 258 258> 757 160<260 494 314 404>
VStem: 62 196<0 244 399 553> 454 199<449 501.5>
AnchorPoint: "Anchor-3" 349 710 basechar 0
AnchorPoint: "Anchor-0" 349 0 basechar 0
LayerCount: 2
Fore
SplineSet
260 757 m 1
 314 917 l 1
 494 917 l 1
 404 757 l 1
 260 757 l 1
62 0 m 1
 62 710 l 1
 366 710 l 2
 550 710 653 626 653 478 c 0
 653 393 615 315 535 280 c 1
 686 0 l 1
 476 0 l 1
 354 244 l 1
 258 244 l 1
 258 0 l 1
 62 0 l 1
258 399 m 1
 351 399 l 2
 410 399 454 423 454 475 c 0
 454 528 410 553 351 553 c 2
 258 553 l 1
 258 399 l 1
EndSplineSet
EndChar

StartChar: Rcaron.ss04
Encoding: 65542 -1 137
Width: 729
GlyphClass: 2
Flags: MW
HStem: 0 21G<62 62 62 258 476 476 476 686> 244 155<258 351 351 354 258 351> 553 157<258 351 258 258> 757 166<260 288 410 438 260 260>
VStem: 62 196<0 244 399 553> 454 199<449 501.5>
AnchorPoint: "Anchor-3" 349 710 basechar 0
AnchorPoint: "Anchor-0" 349 0 basechar 0
LayerCount: 2
Fore
SplineSet
160 923 m 1
 288 923 l 1
 349 835 l 1
 410 923 l 1
 538 923 l 1
 438 757 l 1
 260 757 l 1
 160 923 l 1
62 0 m 1
 62 710 l 1
 366 710 l 2
 550 710 653 626 653 478 c 0
 653 393 615 315 535 280 c 1
 686 0 l 1
 476 0 l 1
 354 244 l 1
 258 244 l 1
 258 0 l 1
 62 0 l 1
258 399 m 1
 351 399 l 2
 410 399 454 423 454 475 c 0
 454 528 410 553 351 553 c 2
 258 553 l 1
 258 399 l 1
EndSplineSet
EndChar

StartChar: uni0156.ss04
Encoding: 65543 -1 138
Width: 729
GlyphClass: 2
Flags: MW
HStem: -180 134<274 308 274 424> 0 21G<62 62 62 258 476 476 476 686> 244 155<258 351 351 354 258 351> 553 157<258 351 258 258>
VStem: 62 196<0 244 399 553> 274 150<-166 -46 -166 -46 -166 -46> 454 199<449 501.5>
AnchorPoint: "Anchor-3" 349 710 basechar 0
AnchorPoint: "Anchor-0" 349 -262 basechar 0
LayerCount: 2
Fore
SplineSet
62 0 m 1
 62 710 l 1
 366 710 l 2
 550 710 653 626 653 478 c 0
 653 393 615 315 535 280 c 1
 686 0 l 1
 476 0 l 1
 354 244 l 1
 258 244 l 1
 258 0 l 1
 62 0 l 1
258 399 m 1
 351 399 l 2
 410 399 454 423 454 475 c 0
 454 528 410 553 351 553 c 2
 258 553 l 1
 258 399 l 1
258 -262 m 1
 308 -180 l 1
 274 -180 l 1
 274 -46 l 1
 424 -46 l 1
 424 -166 l 1xf4
 366 -262 l 1
 258 -262 l 1
EndSplineSet
EndChar

StartChar: I.ss05
Encoding: 65544 -1 139
Width: 503
GlyphClass: 2
Flags: MW
HStem: 0 157<40 153 40 153 350 463> 553 157<46 153 46 457 350 350 350 457>
VStem: 153 197<157 553 157 553>
AnchorPoint: "Anchor-3" 251 710 basechar 0
AnchorPoint: "Anchor-2" 463 0 basechar 0
AnchorPoint: "Anchor-0" 251 0 basechar 0
LayerCount: 2
Fore
SplineSet
40 0 m 1
 40 157 l 1
 153 157 l 1
 153 553 l 1
 46 553 l 1
 46 710 l 1
 457 710 l 1
 457 553 l 1
 350 553 l 1
 350 157 l 1
 463 157 l 1
 463 0 l 1
 40 0 l 1
EndSplineSet
EndChar

StartChar: Iacute.ss05
Encoding: 65545 -1 140
Width: 503
GlyphClass: 2
Flags: MW
HStem: 0 157<40 153 40 153 350 463> 553 157<46 153 46 457 350 350 350 457> 757 160<162 396 216 306>
VStem: 153 197<157 553 157 553>
AnchorPoint: "Anchor-3" 251 710 basechar 0
AnchorPoint: "Anchor-2" 463 0 basechar 0
AnchorPoint: "Anchor-0" 251 0 basechar 0
LayerCount: 2
Fore
SplineSet
162 757 m 1
 216 917 l 1
 396 917 l 1
 306 757 l 1
 162 757 l 1
40 0 m 1
 40 157 l 1
 153 157 l 1
 153 553 l 1
 46 553 l 1
 46 710 l 1
 457 710 l 1
 457 553 l 1
 350 553 l 1
 350 157 l 1
 463 157 l 1
 463 0 l 1
 40 0 l 1
EndSplineSet
EndChar

StartChar: Icircumflex.ss05
Encoding: 65546 -1 141
Width: 503
GlyphClass: 2
Flags: MW
HStem: 0 157<40 153 40 153 350 463> 553 157<46 153 46 457 350 350 350 457> 757 166<62 340 162 190 312 312 312 340 162 440>
VStem: 153 197<157 553 157 553>
AnchorPoint: "Anchor-3" 251 710 basechar 0
AnchorPoint: "Anchor-2" 463 0 basechar 0
AnchorPoint: "Anchor-0" 251 0 basechar 0
LayerCount: 2
Fore
SplineSet
62 757 m 1
 162 923 l 1
 340 923 l 1
 440 757 l 1
 312 757 l 1
 251 845 l 1
 190 757 l 1
 62 757 l 1
40 0 m 1
 40 157 l 1
 153 157 l 1
 153 553 l 1
 46 553 l 1
 46 710 l 1
 457 710 l 1
 457 553 l 1
 350 553 l 1
 350 157 l 1
 463 157 l 1
 463 0 l 1
 40 0 l 1
EndSplineSet
EndChar

StartChar: Idieresis.ss05
Encoding: 65547 -1 142
Width: 503
GlyphClass: 2
Flags: MW
HStem: 0 157<40 153 40 153 350 463> 553 157<46 153 46 457 350 350 350 457> 760 136<40 220 40 220 282 462 40 282>
VStem: 40 180<760 896 760 896> 46 174<553 896 710 896> 153 197<157 553 157 553> 282 175<553 896> 282 180<760 896 760 896>
AnchorPoint: "Anchor-3" 251 710 basechar 0
AnchorPoint: "Anchor-2" 463 0 basechar 0
AnchorPoint: "Anchor-0" 251 0 basechar 0
LayerCount: 2
Fore
SplineSet
40 760 m 1xf1
 40 896 l 1
 220 896 l 1
 220 760 l 1
 40 760 l 1xf1
282 760 m 1
 282 896 l 1
 462 896 l 1
 462 760 l 1
 282 760 l 1
40 0 m 1
 40 157 l 1
 153 157 l 1
 153 553 l 1xe4
 46 553 l 1
 46 710 l 1
 457 710 l 1
 457 553 l 1xea
 350 553 l 1
 350 157 l 1xe4
 463 157 l 1
 463 0 l 1
 40 0 l 1
EndSplineSet
Substitution2: "'ss08' Style Set 8 in Latin lookup 41 subtable" Idieresis.ss05.ss08
Substitution2: "'aalt' Access All Alternates in Latin lookup 0 subtable" Idieresis.ss05.ss08
EndChar

StartChar: Idotaccent.ss05
Encoding: 65548 -1 143
Width: 503
GlyphClass: 2
Flags: MW
HStem: 0 157<40 153 40 153 350 463> 553 157<46 153 46 457 350 350 350 457> 764 136<151 351 151 351>
VStem: 151 200<764 900 764 900> 153 197<157 553 157 553>
AnchorPoint: "Anchor-3" 251 710 basechar 0
AnchorPoint: "Anchor-2" 463 0 basechar 0
AnchorPoint: "Anchor-0" 251 0 basechar 0
LayerCount: 2
Fore
SplineSet
151 764 m 1xf0
 151 900 l 1
 351 900 l 1
 351 764 l 1
 151 764 l 1xf0
40 0 m 1
 40 157 l 1
 153 157 l 1
 153 553 l 1
 46 553 l 1
 46 710 l 1
 457 710 l 1
 457 553 l 1
 350 553 l 1
 350 157 l 1xe8
 463 157 l 1
 463 0 l 1
 40 0 l 1
EndSplineSet
Substitution2: "'ss08' Style Set 8 in Latin lookup 41 subtable" Idotaccent.ss05.ss08
Substitution2: "'aalt' Access All Alternates in Latin lookup 0 subtable" Idotaccent.ss05.ss08
EndChar

StartChar: Igrave.ss05
Encoding: 65549 -1 144
Width: 503
GlyphClass: 2
Flags: MW
HStem: 0 157<40 153 40 153 350 463> 553 157<46 153 46 457 350 350 350 457> 764 160<192 192 192 282 102 336>
VStem: 153 197<157 553 157 553>
AnchorPoint: "Anchor-3" 251 710 basechar 0
AnchorPoint: "Anchor-2" 463 0 basechar 0
AnchorPoint: "Anchor-0" 251 0 basechar 0
LayerCount: 2
Fore
SplineSet
192 764 m 1
 102 924 l 1
 282 924 l 1
 336 764 l 1
 192 764 l 1
40 0 m 1
 40 157 l 1
 153 157 l 1
 153 553 l 1
 46 553 l 1
 46 710 l 1
 457 710 l 1
 457 553 l 1
 350 553 l 1
 350 157 l 1
 463 157 l 1
 463 0 l 1
 40 0 l 1
EndSplineSet
EndChar

StartChar: Imacron.ss05
Encoding: 65550 -1 145
Width: 503
GlyphClass: 2
Flags: MW
HStem: 0 157<40 153 40 153 350 463> 553 157<46 153 46 457 350 350 350 457> 765 135<91 411 91 411>
VStem: 91 320<765 900 765 900> 153 197<157 553 157 553>
AnchorPoint: "Anchor-3" 251 710 basechar 0
AnchorPoint: "Anchor-2" 463 0 basechar 0
AnchorPoint: "Anchor-0" 251 0 basechar 0
LayerCount: 2
Fore
SplineSet
91 765 m 1xf0
 91 900 l 1
 411 900 l 1
 411 765 l 1
 91 765 l 1xf0
40 0 m 1
 40 157 l 1
 153 157 l 1
 153 553 l 1
 46 553 l 1
 46 710 l 1
 457 710 l 1
 457 553 l 1
 350 553 l 1
 350 157 l 1xe8
 463 157 l 1
 463 0 l 1
 40 0 l 1
EndSplineSet
EndChar

StartChar: Iogonek.ss05
Encoding: 65551 -1 146
Width: 503
GlyphClass: 2
Flags: MW
HStem: -222 104<340.5 436> 0 157<40 153 40 153 40 313> 553 157<46 153 46 457 350 350 350 457>
VStem: 153 197<157 553 157 553> 254 150<-157 -85.5> 254 209<-157 157>
AnchorPoint: "Anchor-3" 251 710 basechar 0
AnchorPoint: "Anchor-2" 463 0 basechar 0
AnchorPoint: "Anchor-0" 251 0 basechar 0
LayerCount: 2
Fore
SplineSet
40 0 m 1xe4
 40 157 l 1
 153 157 l 1
 153 553 l 1
 46 553 l 1
 46 710 l 1
 457 710 l 1
 457 553 l 1
 350 553 l 1
 350 157 l 1x70
 463 157 l 1
 463 0 l 1x64
 436 -34 l 2
 420 -55 404 -77 404 -94 c 0xe8
 404 -111 416 -118 428 -118 c 0
 444 -118 463 -112 471 -106 c 1
 501 -196 l 1
 481 -210 429 -222 381 -222 c 0
 300 -222 254 -188 254 -126 c 0
 254 -84 276 -48 299 -18 c 2
 313 0 l 1
 40 0 l 1xe4
EndSplineSet
EndChar

StartChar: Itilde.ss05
Encoding: 65552 -1 147
Width: 503
GlyphClass: 2
Flags: MW
HStem: 0 157<40 153 40 153 350 463> 553 157<46 153 46 457 350 350 350 457> 759 159<151.5 160 70 207> 764 111<302 315.5 302 346.5> 764 160<341 346.5> 807 111<187 200>
VStem: 70 90<759 806> 153 197<157 553 157 553> 341 90<875.5 924>
AnchorPoint: "Anchor-3" 251 710 basechar 0
AnchorPoint: "Anchor-2" 463 0 basechar 0
AnchorPoint: "Anchor-0" 251 0 basechar 0
LayerCount: 2
Fore
SplineSet
305 764 m 0xc880
 271 764 253 770 225 794 c 0
 215 802 205 807 195 807 c 0xc6
 179 807 164 796 160 759 c 1
 70 759 l 1
 70 853 112 918 191 918 c 0xe2
 223 918 248 911 276 889 c 0
 289 879 297 875 307 875 c 0xd080
 324 875 339 885 341 924 c 1
 431 924 l 1
 431 827 388 764 305 764 c 0xc880
40 0 m 1
 40 157 l 1
 153 157 l 1
 153 553 l 1
 46 553 l 1
 46 710 l 1
 457 710 l 1
 457 553 l 1
 350 553 l 1
 350 157 l 1xc1
 463 157 l 1
 463 0 l 1
 40 0 l 1
EndSplineSet
EndChar

StartChar: G.ss06
Encoding: 65553 -1 148
Width: 754
GlyphClass: 2
Flags: MW
HStem: -16 157<340 428 340 490> 246 130<390 523 390 719> 569 157<341.5 430>
VStem: 40 201<290 418.5 290 461> 390 329<246 335 335 376 215 376> 523 196<246 246>
AnchorPoint: "Anchor-3" 392 710 basechar 0
AnchorPoint: "Anchor-0" 395 0 basechar 0
LayerCount: 2
Fore
SplineSet
393 -16 m 0xf8
 156 -16 40 140 40 354 c 0
 40 568 167 726 397 726 c 0
 577 726 688 631 717 467 c 1
 514 459 l 1
 502 530 468 569 392 569 c 0
 291 569 241 483 241 354 c 0
 241 226 292 141 388 141 c 0
 468 141 515 178 523 246 c 1xf4
 390 246 l 1
 390 376 l 1
 719 376 l 1
 719 335 l 2
 719 95 587 -16 393 -16 c 0xf8
EndSplineSet
EndChar

StartChar: Gbreve.ss06
Encoding: 65554 -1 149
Width: 754
GlyphClass: 2
Flags: MW
HStem: -16 157<340 428 340 490> 246 130<390 523 390 719> 569 157<341.5 430> 754 96<374 410 374 442> 754 160<224 442>
VStem: 40 201<290 418.5 290 461> 224 106<914 914> 390 329<246 335 335 376 215 376> 454 106<914 914> 523 196<246 246>
AnchorPoint: "Anchor-3" 392 710 basechar 0
AnchorPoint: "Anchor-0" 395 0 basechar 0
LayerCount: 2
Fore
SplineSet
392 754 m 0xcc80
 292 754 228 810 224 914 c 1xcb
 330 914 l 1
 334 868 356 850 392 850 c 0xd280
 428 850 450 868 454 914 c 1
 560 914 l 1
 556 810 492 754 392 754 c 0xcc80
393 -16 m 0
 156 -16 40 140 40 354 c 0
 40 568 167 726 397 726 c 0
 577 726 688 631 717 467 c 1
 514 459 l 1
 502 530 468 569 392 569 c 0
 291 569 241 483 241 354 c 0
 241 226 292 141 388 141 c 0
 468 141 515 178 523 246 c 1xe440
 390 246 l 1
 390 376 l 1
 719 376 l 1
 719 335 l 2
 719 95 587 -16 393 -16 c 0
EndSplineSet
EndChar

StartChar: Gcircumflex.ss06
Encoding: 65555 -1 150
Width: 754
GlyphClass: 2
Flags: MW
HStem: -16 157<340 428 340 490> 246 130<390 523 390 719> 569 157<341.5 430> 757 166<203 481 303 331 453 453 453 481 303 581>
VStem: 40 201<290 418.5 290 461> 390 329<246 335 335 376 215 376> 523 196<246 246>
AnchorPoint: "Anchor-3" 392 710 basechar 0
AnchorPoint: "Anchor-0" 395 0 basechar 0
LayerCount: 2
Fore
SplineSet
203 757 m 1xfc
 303 923 l 1
 481 923 l 1
 581 757 l 1
 453 757 l 1
 392 845 l 1
 331 757 l 1
 203 757 l 1xfc
393 -16 m 0
 156 -16 40 140 40 354 c 0
 40 568 167 726 397 726 c 0
 577 726 688 631 717 467 c 1
 514 459 l 1
 502 530 468 569 392 569 c 0
 291 569 241 483 241 354 c 0
 241 226 292 141 388 141 c 0
 468 141 515 178 523 246 c 1xfa
 390 246 l 1
 390 376 l 1
 719 376 l 1
 719 335 l 2
 719 95 587 -16 393 -16 c 0
EndSplineSet
EndChar

StartChar: uni0122.ss06
Encoding: 65556 -1 151
Width: 754
GlyphClass: 2
Flags: MW
HStem: -180 134<320 354 320 470> -16 157<340 428 340 490> 246 130<390 523 390 719> 569 157<341.5 430>
VStem: 40 201<290 418.5 290 461> 320 150<-166 -46 -166 -46 -166 -46> 390 329<246 335 335 376 215 376> 523 196<246 246>
AnchorPoint: "Anchor-3" 392 710 basechar 0
AnchorPoint: "Anchor-0" 395 -262 basechar 0
LayerCount: 2
Fore
SplineSet
393 -16 m 0x7a
 156 -16 40 140 40 354 c 0
 40 568 167 726 397 726 c 0
 577 726 688 631 717 467 c 1
 514 459 l 1
 502 530 468 569 392 569 c 0
 291 569 241 483 241 354 c 0
 241 226 292 141 388 141 c 0
 468 141 515 178 523 246 c 1x7d
 390 246 l 1
 390 376 l 1
 719 376 l 1
 719 335 l 2
 719 95 587 -16 393 -16 c 0x7a
304 -262 m 1
 354 -180 l 1
 320 -180 l 1
 320 -46 l 1
 470 -46 l 1xbc
 470 -166 l 1
 412 -262 l 1
 304 -262 l 1
EndSplineSet
EndChar

StartChar: Gdotaccent.ss06
Encoding: 65557 -1 152
Width: 754
GlyphClass: 2
Flags: MW
HStem: -16 157<340 428 340 490> 246 130<390 523 390 719> 569 157<341.5 430> 764 136<292 492 292 492>
VStem: 40 201<290 418.5 290 461> 292 200<764 900 764 900> 390 329<246 335 335 376 215 376> 523 196<246 246>
AnchorPoint: "Anchor-3" 392 710 basechar 0
AnchorPoint: "Anchor-0" 395 0 basechar 0
LayerCount: 2
Fore
SplineSet
292 764 m 1xfc
 292 900 l 1
 492 900 l 1
 492 764 l 1
 292 764 l 1xfc
393 -16 m 0
 156 -16 40 140 40 354 c 0
 40 568 167 726 397 726 c 0
 577 726 688 631 717 467 c 1
 514 459 l 1
 502 530 468 569 392 569 c 0
 291 569 241 483 241 354 c 0
 241 226 292 141 388 141 c 0
 468 141 515 178 523 246 c 1xfd
 390 246 l 1
 390 376 l 1
 719 376 l 1
 719 335 l 2xfa
 719 95 587 -16 393 -16 c 0
EndSplineSet
Substitution2: "'ss08' Style Set 8 in Latin lookup 41 subtable" Gdotaccent.ss06.ss08
Substitution2: "'aalt' Access All Alternates in Latin lookup 0 subtable" Gdotaccent.ss06.ss08
EndChar

StartChar: uni1E20.ss06
Encoding: 65558 -1 153
Width: 754
GlyphClass: 2
Flags: MW
HStem: -16 157<340 428 340 490> 246 130<390 523 390 719> 569 157<341.5 430> 765 135<232 552 232 552>
VStem: 40 201<290 418.5 290 461> 232 320<765 900 765 900> 390 329<246 335 335 376 215 376> 523 196<246 246>
AnchorPoint: "Anchor-3" 392 710 basechar 0
AnchorPoint: "Anchor-0" 395 0 basechar 0
LayerCount: 2
Fore
SplineSet
232 765 m 1xf4
 232 900 l 1
 552 900 l 1
 552 765 l 1
 232 765 l 1xf4
393 -16 m 0
 156 -16 40 140 40 354 c 0
 40 568 167 726 397 726 c 0
 577 726 688 631 717 467 c 1
 514 459 l 1
 502 530 468 569 392 569 c 0
 291 569 241 483 241 354 c 0
 241 226 292 141 388 141 c 0
 468 141 515 178 523 246 c 1xf9
 390 246 l 1
 390 376 l 1
 719 376 l 1
 719 335 l 2xfa
 719 95 587 -16 393 -16 c 0
EndSplineSet
EndChar

StartChar: Adieresis.ss08
Encoding: 65559 -1 154
Width: 771
GlyphClass: 2
Flags: MW
HStem: 0 21G<18 18 18 217 553 553 553 753> 117 152<309 462 309 513 257 462> 690 20G<274 497 497 497> 748 172<243 299 473 529>
VStem: 181 180<807 861> 411 180<807 861>
AnchorPoint: "Anchor-3" 386 710 basechar 0
AnchorPoint: "Anchor-2" 753 0 basechar 0
AnchorPoint: "Anchor-0" 386 0 basechar 0
LayerCount: 2
Fore
SplineSet
271 748 m 0
 215 748 181 780 181 834 c 0
 181 888 215 920 271 920 c 0
 327 920 361 888 361 834 c 0
 361 780 327 748 271 748 c 0
501 748 m 0
 445 748 411 780 411 834 c 0
 411 888 445 920 501 920 c 0
 557 920 591 888 591 834 c 0
 591 780 557 748 501 748 c 0
18 0 m 1
 274 710 l 1
 497 710 l 1
 753 0 l 1
 553 0 l 1
 513 117 l 1
 257 117 l 1
 217 0 l 1
 18 0 l 1
309 269 m 1
 462 269 l 1
 386 494 l 1
 309 269 l 1
EndSplineSet
EndChar

StartChar: Cdotaccent.ss08
Encoding: 65560 -1 155
Width: 755
GlyphClass: 2
Flags: MW
HStem: -16 157<339.5 423.5 339.5 480> 569 157<338 421> 748 172<359 415>
VStem: 40 201<289 417 289 466> 293 188<807 861>
AnchorPoint: "Anchor-3" 387 710 basechar 0
AnchorPoint: "Anchor-0" 387 0 basechar 0
LayerCount: 2
Fore
SplineSet
387 748 m 0
 331 748 293 780 293 834 c 0
 293 888 331 920 387 920 c 0
 443 920 481 888 481 834 c 0
 481 780 443 748 387 748 c 0
383 -16 m 0
 185 -16 40 120 40 354 c 0
 40 578 173 726 387 726 c 0
 582 726 688 629 719 448 c 1
 516 441 l 1
 502 522 455 569 387 569 c 0xd8
 289 569 241 480 241 354 c 0
 241 224 294 141 385 141 c 0
 462 141 504 190 516 277 c 1
 720 270 l 1
 689 84 577 -16 383 -16 c 0
EndSplineSet
EndChar

StartChar: Edieresis.ss08
Encoding: 65561 -1 156
Width: 634
GlyphClass: 2
Flags: MW
HStem: 0 157<258 596 258 596> 278 156<258 576 258 576> 553 157<258 588 258 258> 748 172<182 238 412 468>
VStem: 62 196<157 278 434 553> 120 180<807 861> 350 180<807 861>
AnchorPoint: "Anchor-3" 325 710 basechar 0
AnchorPoint: "Anchor-2" 596 0 basechar 0
AnchorPoint: "Anchor-0" 325 0 basechar 0
LayerCount: 2
Fore
SplineSet
210 748 m 0xf6
 154 748 120 780 120 834 c 0
 120 888 154 920 210 920 c 0
 266 920 300 888 300 834 c 0
 300 780 266 748 210 748 c 0xf6
440 748 m 0
 384 748 350 780 350 834 c 0
 350 888 384 920 440 920 c 0
 496 920 530 888 530 834 c 0
 530 780 496 748 440 748 c 0
62 0 m 1xe8
 62 710 l 1
 588 710 l 1
 588 553 l 1
 258 553 l 1
 258 434 l 1
 576 434 l 1
 576 278 l 1
 258 278 l 1
 258 157 l 1
 596 157 l 1
 596 0 l 1
 62 0 l 1xe8
EndSplineSet
EndChar

StartChar: Edotaccent.ss08
Encoding: 65562 -1 157
Width: 634
GlyphClass: 2
Flags: MW
HStem: 0 157<258 596 258 596> 278 156<258 576 258 576> 553 157<258 588 258 258> 748 172<297 353>
VStem: 62 196<157 278 434 553> 231 188<807 861>
AnchorPoint: "Anchor-3" 325 710 basechar 0
AnchorPoint: "Anchor-2" 596 0 basechar 0
AnchorPoint: "Anchor-0" 325 0 basechar 0
LayerCount: 2
Fore
SplineSet
325 748 m 0xf4
 269 748 231 780 231 834 c 0
 231 888 269 920 325 920 c 0
 381 920 419 888 419 834 c 0
 419 780 381 748 325 748 c 0xf4
62 0 m 1xe8
 62 710 l 1
 588 710 l 1
 588 553 l 1
 258 553 l 1
 258 434 l 1
 576 434 l 1
 576 278 l 1
 258 278 l 1
 258 157 l 1
 596 157 l 1
 596 0 l 1
 62 0 l 1xe8
EndSplineSet
EndChar

StartChar: Gdotaccent.ss08
Encoding: 65563 -1 158
Width: 764
GlyphClass: 2
Flags: MW
HStem: -16 157<342 426> 0 21G<605 719 605 605> 246 130<390 523 390 719> 569 157<343 428> 748 172<363 419>
VStem: 40 201<290 418.5 290 461> 297 188<807 861> 602 117
AnchorPoint: "Anchor-3" 391 710 basechar 0
AnchorPoint: "Anchor-0" 395 0 basechar 0
LayerCount: 2
Fore
SplineSet
391 748 m 0xaf
 335 748 297 780 297 834 c 0
 297 888 335 920 391 920 c 0
 447 920 485 888 485 834 c 0
 485 780 447 748 391 748 c 0xaf
375 -16 m 0
 167 -16 40 132 40 354 c 0
 40 568 169 726 389 726 c 0
 583 726 682 631 717 467 c 1
 514 459 l 1
 502 529 465 569 391 569 c 0
 295 569 241 483 241 354 c 0
 241 226 289 141 395 141 c 0xb5
 468 141 513 179 523 246 c 1
 390 246 l 1
 390 376 l 1
 719 376 l 1
 719 0 l 1
 605 0 l 1x75
 599 91 l 1
 561 25 477 -16 375 -16 c 0
EndSplineSet
EndChar

StartChar: Idieresis.ss08
Encoding: 65564 -1 159
Width: 320
GlyphClass: 2
Flags: MW
HStem: 0 21G<62 62 62 258> 690 20G<62 258 258 258> 748 172<17 73 247 303>
VStem: -45 180<807 861> 62 73 62 196<0 710 0 710> 185 73 185 180<807 861>
AnchorPoint: "Anchor-3" 160 710 basechar 0
AnchorPoint: "Anchor-2" 258 0 basechar 0
AnchorPoint: "Anchor-0" 160 0 basechar 0
LayerCount: 2
Fore
SplineSet
45 748 m 0xe8
 -11 748 -45 780 -45 834 c 0xf1
 -45 888 -11 920 45 920 c 0
 101 920 135 888 135 834 c 0
 135 780 101 748 45 748 c 0xe8
275 748 m 0
 219 748 185 780 185 834 c 0xe2
 185 888 219 920 275 920 c 0
 331 920 365 888 365 834 c 0
 365 780 331 748 275 748 c 0
62 0 m 1xe4
 62 710 l 1
 258 710 l 1
 258 0 l 1
 62 0 l 1xe4
EndSplineSet
EndChar

StartChar: Idotaccent.ss08
Encoding: 65565 -1 160
Width: 320
GlyphClass: 2
Flags: MW
HStem: 0 21G<62 62 62 258> 690 20G<62 258 258 258> 748 172<132 188>
VStem: 62 196<0 710 0 710> 66 188<807 861>
AnchorPoint: "Anchor-3" 160 710 basechar 0
AnchorPoint: "Anchor-2" 258 0 basechar 0
AnchorPoint: "Anchor-0" 160 0 basechar 0
LayerCount: 2
Fore
SplineSet
160 748 m 0xe8
 104 748 66 780 66 834 c 0
 66 888 104 920 160 920 c 0
 216 920 254 888 254 834 c 0
 254 780 216 748 160 748 c 0xe8
62 0 m 1xf0
 62 710 l 1
 258 710 l 1
 258 0 l 1
 62 0 l 1xf0
EndSplineSet
EndChar

StartChar: Odieresis.ss08
Encoding: 65566 -1 161
Width: 800
GlyphClass: 2
Flags: MW
HStem: -16 157<350 450 350 512.5> 569 157<350 450> 748 172<257 313 487 543>
VStem: 40 201<286 422 286 468> 195 180<807 861> 425 180<807 861> 559 201<286 422>
AnchorPoint: "Anchor-3" 400 710 basechar 0
AnchorPoint: "Anchor-1" 400 355 basechar 0
AnchorPoint: "Anchor-0" 400 0 basechar 0
LayerCount: 2
Fore
SplineSet
285 748 m 0xac
 229 748 195 780 195 834 c 0
 195 888 229 920 285 920 c 0
 341 920 375 888 375 834 c 0
 375 780 341 748 285 748 c 0xac
515 748 m 0
 459 748 425 780 425 834 c 0
 425 888 459 920 515 920 c 0
 571 920 605 888 605 834 c 0
 605 780 571 748 515 748 c 0
400 -16 m 0
 175 -16 40 126 40 354 c 0
 40 582 175 726 400 726 c 0
 625 726 760 582 760 354 c 0xd2
 760 126 625 -16 400 -16 c 0
400 141 m 0
 500 141 559 218 559 354 c 0
 559 490 500 569 400 569 c 0
 300 569 241 490 241 354 c 0
 241 218 300 141 400 141 c 0
EndSplineSet
EndChar

StartChar: Udieresis.ss08
Encoding: 65567 -1 162
Width: 713
GlyphClass: 2
Flags: MW
HStem: -16 157<319.5 393 319.5 451> 691 20G<47 243 243 243 470 666 666 666> 748 172<213 269 443 499>
VStem: 47 196<262 711> 151 92 151 180<807 861> 381 180<807 861> 470 91 470 196<262 711>
AnchorPoint: "Anchor-3" 356 710 basechar 0
AnchorPoint: "Anchor-2" 473 0 basechar 0
AnchorPoint: "Anchor-0" 356 0 basechar 0
LayerCount: 2
Fore
SplineSet
241 748 m 0xe480
 185 748 151 780 151 834 c 0xe9
 151 888 185 920 241 920 c 0
 297 920 331 888 331 834 c 0
 331 780 297 748 241 748 c 0xe480
471 748 m 0
 415 748 381 780 381 834 c 0xf2
 381 888 415 920 471 920 c 0
 527 920 561 888 561 834 c 0
 561 780 527 748 471 748 c 0
356 -16 m 0
 167 -16 47 92 47 262 c 2
 47 711 l 1
 243 711 l 1
 243 262 l 2
 243 184 283 141 356 141 c 0
 430 141 470 184 470 262 c 2
 470 711 l 1
 666 711 l 1
 666 262 l 2xf080
 666 92 546 -16 356 -16 c 0
EndSplineSet
EndChar

StartChar: Wdieresis.ss08
Encoding: 65568 -1 163
Width: 1061
GlyphClass: 2
Flags: MW
HStem: 0 21G<231 231 231 431 631 631 631 831> 690 20G<36 238 238 238 453 609 609 609 823 1025 1025 1025> 748 172<388 444 618 674>
VStem: 326 180<807 861> 556 180<807 861>
AnchorPoint: "Anchor-3" 531 710 basechar 0
AnchorPoint: "Anchor-0" 531 0 basechar 0
LayerCount: 2
Fore
SplineSet
416 748 m 0
 360 748 326 780 326 834 c 0
 326 888 360 920 416 920 c 0
 472 920 506 888 506 834 c 0
 506 780 472 748 416 748 c 0
646 748 m 0
 590 748 556 780 556 834 c 0
 556 888 590 920 646 920 c 0
 702 920 736 888 736 834 c 0
 736 780 702 748 646 748 c 0
231 0 m 1
 36 710 l 1
 238 710 l 1
 344 272 l 1
 453 710 l 1
 609 710 l 1
 718 272 l 1
 823 710 l 1
 1025 710 l 1
 831 0 l 1
 631 0 l 1
 531 390 l 1
 431 0 l 1
 231 0 l 1
EndSplineSet
EndChar

StartChar: Ydieresis.ss08
Encoding: 65569 -1 164
Width: 668
GlyphClass: 2
Flags: MW
HStem: 0 21G<236 236 236 433> 690 20G<-8 204 204 204 464 676 676 676> 748 172<192 248 422 478>
VStem: 130 180<807 861> 236 197<0 266 0 266> 360 180<807 861>
AnchorPoint: "Anchor-3" 335 710 basechar 0
AnchorPoint: "Anchor-0" 335 0 basechar 0
LayerCount: 2
Fore
SplineSet
220 748 m 0xf4
 164 748 130 780 130 834 c 0
 130 888 164 920 220 920 c 0
 276 920 310 888 310 834 c 0
 310 780 276 748 220 748 c 0xf4
450 748 m 0
 394 748 360 780 360 834 c 0
 360 888 394 920 450 920 c 0
 506 920 540 888 540 834 c 0
 540 780 506 748 450 748 c 0
236 0 m 1xe8
 236 266 l 1
 -8 710 l 1
 204 710 l 1
 335 454 l 1
 464 710 l 1
 676 710 l 1
 433 266 l 1
 433 0 l 1
 236 0 l 1xe8
EndSplineSet
EndChar

StartChar: Zdotaccent.ss08
Encoding: 65570 -1 165
Width: 627
GlyphClass: 2
Flags: MW
HStem: 0 157<265 601 265 601> 553 157<44 337 44 586> 748 172<295 351>
VStem: 229 188<807 861>
AnchorPoint: "Anchor-3" 323 710 basechar 0
AnchorPoint: "Anchor-0" 323 0 basechar 0
LayerCount: 2
Fore
SplineSet
323 748 m 0
 267 748 229 780 229 834 c 0
 229 888 267 920 323 920 c 0
 379 920 417 888 417 834 c 0
 417 780 379 748 323 748 c 0
26 0 m 1
 26 148 l 1
 337 553 l 1
 44 553 l 1
 44 710 l 1
 586 710 l 1
 586 562 l 1
 265 157 l 1
 601 157 l 1
 601 0 l 1
 26 0 l 1
EndSplineSet
EndChar

StartChar: Idieresis.ss05.ss08
Encoding: 65571 -1 166
Width: 503
GlyphClass: 2
Flags: MW
HStem: 0 157<40 153 40 153 350 463> 553 157<46 153 46 457 350 350 350 457> 748 172<108 164 338 394>
VStem: 46 180<553 861 710 861 807 861> 153 197<157 553 157 553> 276 180<807 861>
AnchorPoint: "Anchor-3" 251 710 basechar 0
AnchorPoint: "Anchor-2" 463 0 basechar 0
AnchorPoint: "Anchor-0" 251 0 basechar 0
LayerCount: 2
Fore
SplineSet
136 748 m 0xf4
 80 748 46 780 46 834 c 0
 46 888 80 920 136 920 c 0
 192 920 226 888 226 834 c 0
 226 780 192 748 136 748 c 0xf4
366 748 m 0
 310 748 276 780 276 834 c 0
 276 888 310 920 366 920 c 0
 422 920 456 888 456 834 c 0
 456 780 422 748 366 748 c 0
40 0 m 1
 40 157 l 1
 153 157 l 1
 153 553 l 1
 46 553 l 1
 46 710 l 1
 457 710 l 1
 457 553 l 1
 350 553 l 1
 350 157 l 1xc8
 463 157 l 1
 463 0 l 1
 40 0 l 1
EndSplineSet
EndChar

StartChar: Idotaccent.ss05.ss08
Encoding: 65572 -1 167
Width: 503
GlyphClass: 2
Flags: MW
HStem: 0 157<40 153 40 153 350 463> 553 157<46 153 46 457 350 350 350 457> 748 172<223 279>
VStem: 153 197<157 553 157 553> 157 188<807 861>
AnchorPoint: "Anchor-3" 251 710 basechar 0
AnchorPoint: "Anchor-2" 463 0 basechar 0
AnchorPoint: "Anchor-0" 251 0 basechar 0
LayerCount: 2
Fore
SplineSet
251 748 m 0xe8
 195 748 157 780 157 834 c 0
 157 888 195 920 251 920 c 0
 307 920 345 888 345 834 c 0
 345 780 307 748 251 748 c 0xe8
40 0 m 1
 40 157 l 1
 153 157 l 1
 153 553 l 1
 46 553 l 1
 46 710 l 1
 457 710 l 1
 457 553 l 1
 350 553 l 1
 350 157 l 1xd0
 463 157 l 1
 463 0 l 1
 40 0 l 1
EndSplineSet
EndChar

StartChar: Gdotaccent.ss06.ss08
Encoding: 65573 -1 168
Width: 754
GlyphClass: 2
Flags: MW
HStem: -16 157<340 428 340 490> 246 130<390 523 390 719> 569 157<341.5 430> 748 172<364 420>
VStem: 40 201<290 418.5 290 461> 298 188<807 861> 390 329<246 335 335 376 215 376> 523 196<246 246>
AnchorPoint: "Anchor-3" 392 710 basechar 0
AnchorPoint: "Anchor-0" 395 0 basechar 0
LayerCount: 2
Fore
SplineSet
392 748 m 0xdd
 336 748 298 780 298 834 c 0
 298 888 336 920 392 920 c 0
 448 920 486 888 486 834 c 0
 486 780 448 748 392 748 c 0xdd
393 -16 m 0
 156 -16 40 140 40 354 c 0
 40 568 167 726 397 726 c 0
 577 726 688 631 717 467 c 1
 514 459 l 1
 502 530 468 569 392 569 c 0
 291 569 241 483 241 354 c 0
 241 226 292 141 388 141 c 0
 468 141 515 178 523 246 c 1xed
 390 246 l 1
 390 376 l 1
 719 376 l 1
 719 335 l 2xea
 719 95 587 -16 393 -16 c 0
EndSplineSet
EndChar

StartChar: A_I.dlig
Encoding: 65574 -1 169
Width: 1274
GlyphClass: 3
Flags: MW
HStem: 0 157<553 924 811 924 1121 1234 811 924> 117 152<309 462 309 513 257 462> 553 157<817 924 1121 1121 1121 1228>
VStem: 924 197<157 553 157 553>
AnchorPoint: "Anchor-8" 386 710 baselig 0
AnchorPoint: "Anchor-7" 753 0 baselig 0
AnchorPoint: "Anchor-5" 386 0 baselig 0
AnchorPoint: "Anchor-8" 1022 710 baselig 1
AnchorPoint: "Anchor-5" 1022 0 baselig 1
AnchorPoint: "Anchor-7" 1234 0 baselig 1
LayerCount: 2
Fore
SplineSet
18 0 m 1xb0
 274 710 l 1
 497 710 l 1
 753 0 l 1
 553 0 l 1xb0
 513 117 l 1
 257 117 l 1x70
 217 0 l 1
 18 0 l 1xb0
811 0 m 1
 811 157 l 1
 924 157 l 1
 924 553 l 1
 817 553 l 1
 817 710 l 1
 1228 710 l 1
 1228 553 l 1
 1121 553 l 1
 1121 157 l 1
 1234 157 l 1
 1234 0 l 1
 811 0 l 1
309 269 m 1x70
 462 269 l 1
 386 494 l 1
 309 269 l 1x70
EndSplineSet
Ligature2: "'dlig' Discretionary Ligatures in Latin lookup 32 subtable" A I
EndChar

StartChar: U_I.dlig
Encoding: 65575 -1 170
Width: 1216
GlyphClass: 3
Flags: MW
HStem: -16 157<319.5 393 319.5 451> 0 157<753 866 753 866 1063 1176> 553 157<759 866 759 1170 1063 1063 1063 1170>
VStem: 47 196<262 711> 470 196<262 711> 866 197<157 553 157 553>
AnchorPoint: "Anchor-8" 356 710 baselig 0
AnchorPoint: "Anchor-7" 473 0 baselig 0
AnchorPoint: "Anchor-5" 356 0 baselig 0
AnchorPoint: "Anchor-8" 964 710 baselig 1
AnchorPoint: "Anchor-5" 964 0 baselig 1
AnchorPoint: "Anchor-7" 1176 0 baselig 1
LayerCount: 2
Fore
SplineSet
356 -16 m 0xbc
 167 -16 47 92 47 262 c 2
 47 711 l 1
 243 711 l 1
 243 262 l 2
 243 184 283 141 356 141 c 0
 430 141 470 184 470 262 c 2
 470 711 l 1
 666 711 l 1
 666 262 l 2
 666 92 546 -16 356 -16 c 0xbc
753 0 m 1x7c
 753 157 l 1
 866 157 l 1
 866 553 l 1
 759 553 l 1
 759 710 l 1
 1170 710 l 1
 1170 553 l 1
 1063 553 l 1
 1063 157 l 1
 1176 157 l 1
 1176 0 l 1
 753 0 l 1x7c
EndSplineSet
Ligature2: "'dlig' Discretionary Ligatures in Latin lookup 32 subtable" U I
EndChar

StartChar: a
Encoding: 97 97 171
Width: 623
GlyphClass: 2
Flags: MW
HStem: -12 122<263.5 277.5> -8 21G<521 558.5> -8 130<521 614> 424 128<286.5 330.5>
VStem: 32 199<140 168 140 184> 377 194<212 230 230 230 146.5 366>
AnchorPoint: "Anchor-3" 309 540 basechar 0
AnchorPoint: "Anchor-2" 614 0 basechar 0
AnchorPoint: "Anchor-0" 309 0 basechar 0
LayerCount: 2
Fore
SplineSet
227 -12 m 0x94
 113 -12 32 42 32 136 c 0
 32 232 97 279 215 304 c 2
 377 338 l 1
 377 394 352 424 309 424 c 0
 264 424 239 402 233 359 c 1
 41 365 l 1
 62 495 157 552 309 552 c 0
 485 552 571 476 571 322 c 2
 571 164 l 2
 571 129 583 122 603 122 c 2
 614 122 l 1x3c
 614 0 l 1
 602 -4 571 -8 546 -8 c 0x54
 496 -8 434 8 417 83 c 1
 389 24 328 -12 227 -12 c 0x94
281 110 m 0
 335 110 377 142 377 212 c 2
 377 230 l 1
 289 208 l 2
 255 200 231 182 231 154 c 0x9c
 231 126 246 110 281 110 c 0
EndSplineSet
Substitution2: "'ss02' Style Set 2 in Latin lookup 35 subtable" a.ss02
Substitution2: "'ss01' Style Set 1 in Latin lookup 34 subtable" a.ss01
Substitution2: "Single Substitution lookup 27 subtable" ordfeminine
AlternateSubs2: "'aalt' Access All Alternates in Latin lookup 1 subtable" ordfeminine a.ss01 a.ss02
EndChar

StartChar: aacute
Encoding: 225 225 172
Width: 623
GlyphClass: 2
Flags: MW
HStem: -12 122<263.5 277.5> -8 21G<521 558.5> -8 130<521 614> 424 128<286.5 330.5> 587 160<220 454 274 364>
VStem: 32 199<140 168 140 184> 377 194<212 230 230 230 146.5 366>
AnchorPoint: "Anchor-3" 309 540 basechar 0
AnchorPoint: "Anchor-2" 614 0 basechar 0
AnchorPoint: "Anchor-0" 309 0 basechar 0
LayerCount: 2
Fore
SplineSet
220 587 m 1x9a
 274 747 l 1
 454 747 l 1
 364 587 l 1
 220 587 l 1x9a
227 -12 m 0
 113 -12 32 42 32 136 c 0
 32 232 97 279 215 304 c 2
 377 338 l 1
 377 394 352 424 309 424 c 0
 264 424 239 402 233 359 c 1
 41 365 l 1
 62 495 157 552 309 552 c 0
 485 552 571 476 571 322 c 2
 571 164 l 2
 571 129 583 122 603 122 c 2
 614 122 l 1x3e
 614 0 l 1
 602 -4 571 -8 546 -8 c 0x5a
 496 -8 434 8 417 83 c 1
 389 24 328 -12 227 -12 c 0
281 110 m 0
 335 110 377 142 377 212 c 2
 377 230 l 1
 289 208 l 2
 255 200 231 182 231 154 c 0x9e
 231 126 246 110 281 110 c 0
EndSplineSet
Substitution2: "'ss02' Style Set 2 in Latin lookup 35 subtable" aacute.ss02
Substitution2: "'ss01' Style Set 1 in Latin lookup 34 subtable" aacute.ss01
AlternateSubs2: "'aalt' Access All Alternates in Latin lookup 1 subtable" aacute.ss01 aacute.ss02
EndChar

StartChar: abreve
Encoding: 259 259 173
Width: 623
GlyphClass: 2
Flags: MW
HStem: -12 122<263.5 277.5> -8 21G<521 558.5> -8 130<521 614> 0 21G<614 614> 424 128<286.5 330.5> 584 96<291 327 291 359> 584 160<141 359>
VStem: 32 199<140 168 140 184> 141 106<744 744> 371 106<744 744> 377 194<212 230 230 230 146.5 366>
AnchorPoint: "Anchor-3" 309 540 basechar 0
AnchorPoint: "Anchor-2" 614 0 basechar 0
AnchorPoint: "Anchor-0" 309 0 basechar 0
LayerCount: 2
Fore
SplineSet
309 584 m 0x1a40
 209 584 145 640 141 744 c 1x8aa0
 247 744 l 1
 251 698 273 680 309 680 c 0x1cc0
 345 680 367 698 371 744 c 1
 477 744 l 1
 473 640 409 584 309 584 c 0x1a40
227 -12 m 0
 113 -12 32 42 32 136 c 0
 32 232 97 279 215 304 c 2
 377 338 l 1
 377 394 352 424 309 424 c 0
 264 424 239 402 233 359 c 1
 41 365 l 1
 62 495 157 552 309 552 c 0
 485 552 571 476 571 322 c 2
 571 164 l 2
 571 129 583 122 603 122 c 2
 614 122 l 1x2b20
 614 0 l 1
 602 -4 571 -8 546 -8 c 0x4a20
 496 -8 434 8 417 83 c 1
 389 24 328 -12 227 -12 c 0
281 110 m 0
 335 110 377 142 377 212 c 2
 377 230 l 1
 289 208 l 2
 255 200 231 182 231 154 c 0x8b20
 231 126 246 110 281 110 c 0
EndSplineSet
Substitution2: "'ss02' Style Set 2 in Latin lookup 35 subtable" abreve.ss02
Substitution2: "'ss01' Style Set 1 in Latin lookup 34 subtable" abreve.ss01
AlternateSubs2: "'aalt' Access All Alternates in Latin lookup 1 subtable" abreve.ss01 abreve.ss02
EndChar

StartChar: uni01CE
Encoding: 462 462 174
Width: 623
GlyphClass: 2
Flags: MW
HStem: -12 122<263.5 277.5> -8 21G<521 558.5> -8 130<521 614> 424 128<286.5 330.5> 587 166<220 248 370 398 220 220>
VStem: 32 199<140 168 140 184> 377 194<212 230 230 230 146.5 366>
AnchorPoint: "Anchor-3" 309 540 basechar 0
AnchorPoint: "Anchor-2" 614 0 basechar 0
AnchorPoint: "Anchor-0" 309 0 basechar 0
LayerCount: 2
Fore
SplineSet
120 753 m 1x9a
 248 753 l 1
 309 665 l 1
 370 753 l 1
 498 753 l 1
 398 587 l 1
 220 587 l 1
 120 753 l 1x9a
227 -12 m 0
 113 -12 32 42 32 136 c 0
 32 232 97 279 215 304 c 2
 377 338 l 1
 377 394 352 424 309 424 c 0
 264 424 239 402 233 359 c 1
 41 365 l 1
 62 495 157 552 309 552 c 0
 485 552 571 476 571 322 c 2
 571 164 l 2
 571 129 583 122 603 122 c 2
 614 122 l 1x3e
 614 0 l 1
 602 -4 571 -8 546 -8 c 0x5a
 496 -8 434 8 417 83 c 1
 389 24 328 -12 227 -12 c 0
281 110 m 0
 335 110 377 142 377 212 c 2
 377 230 l 1
 289 208 l 2
 255 200 231 182 231 154 c 0x9e
 231 126 246 110 281 110 c 0
EndSplineSet
Substitution2: "'ss02' Style Set 2 in Latin lookup 35 subtable" uni01CE.ss02
Substitution2: "'ss01' Style Set 1 in Latin lookup 34 subtable" uni01CE.ss01
AlternateSubs2: "'aalt' Access All Alternates in Latin lookup 1 subtable" uni01CE.ss01 uni01CE.ss02
EndChar

StartChar: acircumflex
Encoding: 226 226 175
Width: 623
GlyphClass: 2
Flags: MW
HStem: -12 122<263.5 277.5> -8 21G<521 558.5> -8 130<521 614> 424 128<286.5 330.5> 587 166<120 398 220 248 370 370 370 398 220 498>
VStem: 32 199<140 168 140 184> 377 194<212 230 230 230 146.5 366>
AnchorPoint: "Anchor-3" 309 540 basechar 0
AnchorPoint: "Anchor-2" 614 0 basechar 0
AnchorPoint: "Anchor-0" 309 0 basechar 0
LayerCount: 2
Fore
SplineSet
120 587 m 1x9a
 220 753 l 1
 398 753 l 1
 498 587 l 1
 370 587 l 1
 309 675 l 1
 248 587 l 1
 120 587 l 1x9a
227 -12 m 0
 113 -12 32 42 32 136 c 0
 32 232 97 279 215 304 c 2
 377 338 l 1
 377 394 352 424 309 424 c 0
 264 424 239 402 233 359 c 1
 41 365 l 1
 62 495 157 552 309 552 c 0
 485 552 571 476 571 322 c 2
 571 164 l 2
 571 129 583 122 603 122 c 2
 614 122 l 1x3e
 614 0 l 1
 602 -4 571 -8 546 -8 c 0x5a
 496 -8 434 8 417 83 c 1
 389 24 328 -12 227 -12 c 0
281 110 m 0
 335 110 377 142 377 212 c 2
 377 230 l 1
 289 208 l 2
 255 200 231 182 231 154 c 0x9e
 231 126 246 110 281 110 c 0
EndSplineSet
Substitution2: "'ss02' Style Set 2 in Latin lookup 35 subtable" acircumflex.ss02
Substitution2: "'ss01' Style Set 1 in Latin lookup 34 subtable" acircumflex.ss01
AlternateSubs2: "'aalt' Access All Alternates in Latin lookup 1 subtable" acircumflex.ss01 acircumflex.ss02
EndChar

StartChar: adieresis
Encoding: 228 228 176
Width: 623
GlyphClass: 2
Flags: MW
HStem: -12 122<263.5 277.5> -8 21G<521 558.5> -8 130<521 614> 424 128<286.5 330.5> 590 136<98 278 98 278 340 520 98 340>
VStem: 32 199<140 168 140 184> 98 180<590 726 590 726> 340 180<590 726 590 726> 377 194<212 230 230 230 146.5 366>
AnchorPoint: "Anchor-3" 309 540 basechar 0
AnchorPoint: "Anchor-2" 614 0 basechar 0
AnchorPoint: "Anchor-0" 309 0 basechar 0
LayerCount: 2
Fore
SplineSet
98 590 m 1x9b
 98 726 l 1
 278 726 l 1
 278 590 l 1
 98 590 l 1x9b
340 590 m 1
 340 726 l 1
 520 726 l 1
 520 590 l 1
 340 590 l 1
227 -12 m 0
 113 -12 32 42 32 136 c 0
 32 232 97 279 215 304 c 2
 377 338 l 1
 377 394 352 424 309 424 c 0
 264 424 239 402 233 359 c 1
 41 365 l 1
 62 495 157 552 309 552 c 0
 485 552 571 476 571 322 c 2
 571 164 l 2
 571 129 583 122 603 122 c 2
 614 122 l 1x3c80
 614 0 l 1
 602 -4 571 -8 546 -8 c 0x5a80
 496 -8 434 8 417 83 c 1
 389 24 328 -12 227 -12 c 0
281 110 m 0
 335 110 377 142 377 212 c 2
 377 230 l 1
 289 208 l 2
 255 200 231 182 231 154 c 0x9c80
 231 126 246 110 281 110 c 0
EndSplineSet
Substitution2: "'ss08' Style Set 8 in Latin lookup 41 subtable" adieresis.ss08
Substitution2: "'ss02' Style Set 2 in Latin lookup 35 subtable" adieresis.ss02
Substitution2: "'ss01' Style Set 1 in Latin lookup 34 subtable" adieresis.ss01
AlternateSubs2: "'aalt' Access All Alternates in Latin lookup 1 subtable" adieresis.ss01 adieresis.ss02 adieresis.ss08
EndChar

StartChar: agrave
Encoding: 224 224 177
Width: 623
GlyphClass: 2
Flags: MW
HStem: -12 122<263.5 277.5> -8 21G<521 558.5> -8 130<521 614> 424 128<286.5 330.5> 594 160<250 250 250 340 160 394>
VStem: 32 199<140 168 140 184> 377 194<212 230 230 230 146.5 366>
AnchorPoint: "Anchor-3" 309 540 basechar 0
AnchorPoint: "Anchor-2" 614 0 basechar 0
AnchorPoint: "Anchor-0" 309 0 basechar 0
LayerCount: 2
Fore
SplineSet
250 594 m 1x9a
 160 754 l 1
 340 754 l 1
 394 594 l 1
 250 594 l 1x9a
227 -12 m 0
 113 -12 32 42 32 136 c 0
 32 232 97 279 215 304 c 2
 377 338 l 1
 377 394 352 424 309 424 c 0
 264 424 239 402 233 359 c 1
 41 365 l 1
 62 495 157 552 309 552 c 0
 485 552 571 476 571 322 c 2
 571 164 l 2
 571 129 583 122 603 122 c 2
 614 122 l 1x3e
 614 0 l 1
 602 -4 571 -8 546 -8 c 0x5a
 496 -8 434 8 417 83 c 1
 389 24 328 -12 227 -12 c 0
281 110 m 0
 335 110 377 142 377 212 c 2
 377 230 l 1
 289 208 l 2
 255 200 231 182 231 154 c 0x9e
 231 126 246 110 281 110 c 0
EndSplineSet
Substitution2: "'ss02' Style Set 2 in Latin lookup 35 subtable" agrave.ss02
Substitution2: "'ss01' Style Set 1 in Latin lookup 34 subtable" agrave.ss01
AlternateSubs2: "'aalt' Access All Alternates in Latin lookup 1 subtable" agrave.ss01 agrave.ss02
EndChar

StartChar: amacron
Encoding: 257 257 178
Width: 623
GlyphClass: 2
Flags: MW
HStem: -12 122<263.5 277.5> -8 21G<521 558.5> -8 130<521 614> 424 128<286.5 330.5> 595 135<149 469 149 469>
VStem: 32 199<140 168 140 184> 149 320<595 730 595 730> 377 194<212 230 230 230 146.5 366>
AnchorPoint: "Anchor-3" 309 540 basechar 0
AnchorPoint: "Anchor-2" 614 0 basechar 0
AnchorPoint: "Anchor-0" 309 0 basechar 0
LayerCount: 2
Fore
SplineSet
149 595 m 1x9a
 149 730 l 1
 469 730 l 1
 469 595 l 1
 149 595 l 1x9a
227 -12 m 0
 113 -12 32 42 32 136 c 0
 32 232 97 279 215 304 c 2
 377 338 l 1
 377 394 352 424 309 424 c 0
 264 424 239 402 233 359 c 1
 41 365 l 1
 62 495 157 552 309 552 c 0
 485 552 571 476 571 322 c 2
 571 164 l 2
 571 129 583 122 603 122 c 2
 614 122 l 1x3d
 614 0 l 1
 602 -4 571 -8 546 -8 c 0x59
 496 -8 434 8 417 83 c 1
 389 24 328 -12 227 -12 c 0
281 110 m 0
 335 110 377 142 377 212 c 2
 377 230 l 1
 289 208 l 2
 255 200 231 182 231 154 c 0x9d
 231 126 246 110 281 110 c 0
EndSplineSet
Substitution2: "'ss02' Style Set 2 in Latin lookup 35 subtable" amacron.ss02
Substitution2: "'ss01' Style Set 1 in Latin lookup 34 subtable" amacron.ss01
AlternateSubs2: "'aalt' Access All Alternates in Latin lookup 1 subtable" amacron.ss01 amacron.ss02
EndChar

StartChar: aogonek
Encoding: 261 261 179
Width: 623
GlyphClass: 2
Flags: MW
HStem: -222 104<491.5 587> -12 21G -12 122<263.5 277.5> 424 128<286.5 330.5>
VStem: 32 199<140 168 140 184> 377 194<212 230 230 230 146.5 366> 405 150<-157 -85.5> 405 209<-157 122>
AnchorPoint: "Anchor-3" 309 540 basechar 0
AnchorPoint: "Anchor-2" 614 0 basechar 0
AnchorPoint: "Anchor-0" 309 0 basechar 0
LayerCount: 2
Fore
SplineSet
227 -12 m 0xb4
 113 -12 32 42 32 136 c 0
 32 232 97 279 215 304 c 2
 377 338 l 1
 377 394 352 424 309 424 c 0
 264 424 239 402 233 359 c 1
 41 365 l 1
 62 495 157 552 309 552 c 0
 485 552 571 476 571 322 c 2
 571 164 l 2xbc
 571 129 583 122 603 122 c 2
 614 122 l 1
 614 0 l 1xb1
 587 -34 l 2
 571 -55 555 -77 555 -94 c 0xb2
 555 -111 567 -118 579 -118 c 0
 595 -118 614 -112 622 -106 c 1
 652 -196 l 1
 632 -210 580 -222 532 -222 c 0
 451 -222 405 -188 405 -126 c 0
 405 -84 427 -48 450 -18 c 2
 471 9 l 1xd1
 446 22 426 44 417 83 c 1
 389 24 328 -12 227 -12 c 0xb4
281 110 m 0
 335 110 377 142 377 212 c 2
 377 230 l 1
 289 208 l 2
 255 200 231 182 231 154 c 0
 231 126 246 110 281 110 c 0
EndSplineSet
Substitution2: "'ss02' Style Set 2 in Latin lookup 35 subtable" aogonek.ss02
Substitution2: "'ss01' Style Set 1 in Latin lookup 34 subtable" aogonek.ss01
AlternateSubs2: "'aalt' Access All Alternates in Latin lookup 1 subtable" aogonek.ss01 aogonek.ss02
EndChar

StartChar: aring
Encoding: 229 229 180
Width: 623
GlyphClass: 2
Flags: MW
HStem: -12 122<263.5 277.5> -8 21G<521 558.5> -8 130<521 614> 424 128<286.5 330.5> 574 74<299 319 299 340> 716 74<299 319>
VStem: 32 199<140 168 140 184> 199 76<672 692 672 713> 343 76<672 692> 377 194<212 230 230 230 146.5 366>
AnchorPoint: "Anchor-3" 309 540 basechar 0
AnchorPoint: "Anchor-2" 614 0 basechar 0
AnchorPoint: "Anchor-0" 309 0 basechar 0
LayerCount: 2
Fore
SplineSet
309 574 m 0x8d80
 247 574 199 620 199 682 c 0
 199 744 247 790 309 790 c 0
 371 790 419 744 419 682 c 0
 419 620 371 574 309 574 c 0x8d80
309 648 m 0
 329 648 343 662 343 682 c 0
 343 702 329 716 309 716 c 0
 289 716 275 702 275 682 c 0
 275 662 289 648 309 648 c 0
227 -12 m 0
 113 -12 32 42 32 136 c 0
 32 232 97 279 215 304 c 2
 377 338 l 1
 377 394 352 424 309 424 c 0
 264 424 239 402 233 359 c 1
 41 365 l 1
 62 495 157 552 309 552 c 0
 485 552 571 476 571 322 c 2
 571 164 l 2
 571 129 583 122 603 122 c 2
 614 122 l 1x3640
 614 0 l 1
 602 -4 571 -8 546 -8 c 0x5540
 496 -8 434 8 417 83 c 1
 389 24 328 -12 227 -12 c 0
281 110 m 0
 335 110 377 142 377 212 c 2
 377 230 l 1
 289 208 l 2
 255 200 231 182 231 154 c 0x9640
 231 126 246 110 281 110 c 0
EndSplineSet
Substitution2: "'ss02' Style Set 2 in Latin lookup 35 subtable" aring.ss02
Substitution2: "'ss01' Style Set 1 in Latin lookup 34 subtable" aring.ss01
AlternateSubs2: "'aalt' Access All Alternates in Latin lookup 1 subtable" aring.ss01 aring.ss02
EndChar

StartChar: atilde
Encoding: 227 227 181
Width: 623
GlyphClass: 2
Flags: MW
HStem: -12 122<263.5 277.5> -8 21G<521 558.5> -8 130<521 614> 0 21G<614 614> 424 128<286.5 330.5> 589 159<209.5 218 128 265> 594 111<360 373.5 360 404.5> 594 160<399 404.5> 637 111<245 258>
VStem: 32 199<140 168 140 184> 128 90<589 636> 377 194<212 230 230 230 146.5 366> 399 90<705.5 754>
AnchorPoint: "Anchor-3" 309 540 basechar 0
AnchorPoint: "Anchor-2" 614 0 basechar 0
AnchorPoint: "Anchor-0" 309 0 basechar 0
LayerCount: 2
Fore
SplineSet
363 594 m 0x1908
 329 594 311 600 283 624 c 0
 273 632 263 637 253 637 c 0x88b0
 237 637 222 626 218 589 c 1
 128 589 l 1
 128 683 170 748 249 748 c 0x1c30
 281 748 306 741 334 719 c 0
 347 709 355 705 365 705 c 0x1a08
 382 705 397 715 399 754 c 1
 489 754 l 1
 489 657 446 594 363 594 c 0x1908
227 -12 m 0
 113 -12 32 42 32 136 c 0
 32 232 97 279 215 304 c 2
 377 338 l 1
 377 394 352 424 309 424 c 0
 264 424 239 402 233 359 c 1
 41 365 l 1
 62 495 157 552 309 552 c 0
 485 552 571 476 571 322 c 2
 571 164 l 2
 571 129 583 122 603 122 c 2
 614 122 l 1x2950
 614 0 l 1
 602 -4 571 -8 546 -8 c 0x4910
 496 -8 434 8 417 83 c 1
 389 24 328 -12 227 -12 c 0
281 110 m 0
 335 110 377 142 377 212 c 2
 377 230 l 1
 289 208 l 2
 255 200 231 182 231 154 c 0x8950
 231 126 246 110 281 110 c 0
EndSplineSet
Substitution2: "'ss02' Style Set 2 in Latin lookup 35 subtable" atilde.ss02
Substitution2: "'ss01' Style Set 1 in Latin lookup 34 subtable" atilde.ss01
AlternateSubs2: "'aalt' Access All Alternates in Latin lookup 1 subtable" atilde.ss01 atilde.ss02
EndChar

StartChar: ae
Encoding: 230 230 182
Width: 985
GlyphClass: 2
Flags: MW
HStem: -12 120 -12 136<648 694 648 741> 220 104<582 759 582 953 582 759> 420 132<646 697> 424 128<286 329>
VStem: 32 199<137.5 168 137.5 185> 377 205<220 220 220 230 220 230 220 367.5> 759 194<220 324>
AnchorPoint: "Anchor-3" 493 540 basechar 0
AnchorPoint: "Anchor-2" 861 40 basechar 0
AnchorPoint: "Anchor-0" 493 0 basechar 0
LayerCount: 2
Fore
SplineSet
227 -12 m 0x77
 113 -12 32 41 32 136 c 0
 32 234 97 279 215 304 c 2
 377 338 l 1
 377 397 349 424 309 424 c 0x6f
 263 424 238 401 233 359 c 1
 41 365 l 1
 62 492 154 552 307 552 c 0
 387 552 451 536 496 503 c 1
 543 534 602 552 671 552 c 0
 845 552 953 436 953 254 c 2
 953 220 l 1
 582 220 l 1
 584 155 621 124 675 124 c 0
 713 124 742 137 754 174 c 1
 946 164 l 1
 916 48 811 -12 671 -12 c 0
 573 -12 494 23 444 84 c 1
 401 18 328 -12 227 -12 c 0x77
582 324 m 1
 759 324 l 1
 757 387 723 420 671 420 c 0xb7
 621 420 586 383 582 324 c 1
289 108 m 0
 344 109 377 140 377 208 c 2
 377 230 l 1
 289 208 l 2
 257 200 231 184 231 152 c 0
 231 123 245 107 289 108 c 0
EndSplineSet
EndChar

StartChar: b
Encoding: 98 98 183
Width: 660
GlyphClass: 2
Flags: MW
HStem: -12 139<312.5 475> 0 127<56 367.5> 413 139<312.5 475> 690 20G<56 250 250 250>
VStem: 56 190.5 56 194<224.5 316 462 710> 429 199<224 316>
AnchorPoint: "Anchor-3" 331 540 basechar 0
AnchorPoint: "Anchor-1" 165 270 basechar 0
AnchorPoint: "Anchor-0" 331 0 basechar 0
LayerCount: 2
Fore
SplineSet
408 -12 m 0xb6
 332 -12 278 21 248 78 c 1
 245 0 l 1x7a
 56 0 l 1x76
 56 710 l 1
 250 710 l 1
 250 462 l 1
 280 516 335 552 408 552 c 0
 542 552 628 440 628 270 c 0
 628 100 542 -12 408 -12 c 0xb6
342 127 m 0
 393 127 429 178 429 270 c 0
 429 362 395 413 342 413 c 0
 283 413 250 362 250 270 c 0xb6
 250 179 283 127 342 127 c 0
EndSplineSet
EndChar

StartChar: c
Encoding: 99 99 184
Width: 632
GlyphClass: 2
Flags: MW
HStem: -12 139<294 348 294 404.5> 412 140<294 347.5>
VStem: 32 199<224 315.5 224 354.5>
AnchorPoint: "Anchor-3" 324 540 basechar 0
AnchorPoint: "Anchor-0" 324 0 basechar 0
LayerCount: 2
Fore
SplineSet
324 -12 m 0
 148 -12 32 100 32 270 c 0
 32 439 148 552 324 552 c 0
 480 552 596 466 610 325 c 1
 411 317 l 1
 403 381 371 412 324 412 c 0
 264 412 231 361 231 270 c 0
 231 178 264 127 324 127 c 0
 372 127 405 157 411 225 c 1
 610 219 l 1
 598 77 485 -12 324 -12 c 0
EndSplineSet
EndChar

StartChar: cacute
Encoding: 263 263 185
Width: 632
GlyphClass: 2
Flags: MW
HStem: -12 139<294 348 294 404.5> 412 140<294 347.5> 587 160<235 469 289 379>
VStem: 32 199<224 315.5 224 354.5>
AnchorPoint: "Anchor-3" 324 540 basechar 0
AnchorPoint: "Anchor-0" 324 0 basechar 0
LayerCount: 2
Fore
SplineSet
235 587 m 1
 289 747 l 1
 469 747 l 1
 379 587 l 1
 235 587 l 1
324 -12 m 0
 148 -12 32 100 32 270 c 0
 32 439 148 552 324 552 c 0
 480 552 596 466 610 325 c 1
 411 317 l 1
 403 381 371 412 324 412 c 0
 264 412 231 361 231 270 c 0
 231 178 264 127 324 127 c 0
 372 127 405 157 411 225 c 1
 610 219 l 1
 598 77 485 -12 324 -12 c 0
EndSplineSet
EndChar

StartChar: ccaron
Encoding: 269 269 186
Width: 632
GlyphClass: 2
Flags: MW
HStem: -12 139<294 348 294 404.5> 412 140<294 347.5> 587 166<235 263 385 413 235 235>
VStem: 32 199<224 315.5 224 354.5>
AnchorPoint: "Anchor-3" 324 540 basechar 0
AnchorPoint: "Anchor-0" 324 0 basechar 0
LayerCount: 2
Fore
SplineSet
135 753 m 1
 263 753 l 1
 324 665 l 1
 385 753 l 1
 513 753 l 1
 413 587 l 1
 235 587 l 1
 135 753 l 1
324 -12 m 0
 148 -12 32 100 32 270 c 0
 32 439 148 552 324 552 c 0
 480 552 596 466 610 325 c 1
 411 317 l 1
 403 381 371 412 324 412 c 0
 264 412 231 361 231 270 c 0
 231 178 264 127 324 127 c 0
 372 127 405 157 411 225 c 1
 610 219 l 1
 598 77 485 -12 324 -12 c 0
EndSplineSet
EndChar

StartChar: ccedilla
Encoding: 231 231 187
Width: 632
GlyphClass: 2
Flags: MW
HStem: -240 84<302 330 302 357.5> -154 21G<185 185> -9 21G<273 273 372 372> 412 140<294 347.5>
VStem: 32 199<224 315.5 224 354.5> 361 96<-133 -111 -167 -28>
AnchorPoint: "Anchor-3" 324 540 basechar 0
AnchorPoint: "Anchor-0" 324 0 basechar 0
LayerCount: 2
Fore
SplineSet
321 -240 m 0
 252 -240 205 -206 185 -154 c 1x7c
 261 -120 l 1
 271 -143 287 -156 317 -156 c 0
 343 -156 361 -144 361 -122 c 0
 361 -100 349 -86 303 -86 c 1
 254 -42 l 1
 273 -9 l 1
 126 11 32 117 32 270 c 0
 32 439 148 552 324 552 c 0
 480 552 596 466 610 325 c 1
 411 317 l 1
 403 381 371 412 324 412 c 0
 264 412 231 361 231 270 c 0
 231 178 264 127 324 127 c 0
 372 127 405 157 411 225 c 1
 610 219 l 1
 599 92 507 7 372 -9 c 1
 361 -28 l 1
 429 -36 457 -78 457 -126 c 0
 457 -208 394 -240 321 -240 c 0
EndSplineSet
EndChar

StartChar: ccircumflex
Encoding: 265 265 188
Width: 632
GlyphClass: 2
Flags: MW
HStem: -12 139<294 348 294 404.5> 412 140<294 347.5> 587 166<135 413 235 263 385 385 385 413 235 513>
VStem: 32 199<224 315.5 224 354.5>
AnchorPoint: "Anchor-3" 324 540 basechar 0
AnchorPoint: "Anchor-0" 324 0 basechar 0
LayerCount: 2
Fore
SplineSet
135 587 m 1
 235 753 l 1
 413 753 l 1
 513 587 l 1
 385 587 l 1
 324 675 l 1
 263 587 l 1
 135 587 l 1
324 -12 m 0
 148 -12 32 100 32 270 c 0
 32 439 148 552 324 552 c 0
 480 552 596 466 610 325 c 1
 411 317 l 1
 403 381 371 412 324 412 c 0
 264 412 231 361 231 270 c 0
 231 178 264 127 324 127 c 0
 372 127 405 157 411 225 c 1
 610 219 l 1
 598 77 485 -12 324 -12 c 0
EndSplineSet
EndChar

StartChar: cdotaccent
Encoding: 267 267 189
Width: 632
GlyphClass: 2
Flags: MW
HStem: -12 139<294 348 294 404.5> 412 140<294 347.5> 594 136<224 424 224 424>
VStem: 32 199<224 315.5 224 354.5> 224 200<594 730 594 730>
AnchorPoint: "Anchor-3" 324 540 basechar 0
AnchorPoint: "Anchor-0" 324 0 basechar 0
LayerCount: 2
Fore
SplineSet
224 594 m 1xe8
 224 730 l 1
 424 730 l 1
 424 594 l 1
 224 594 l 1xe8
324 -12 m 0
 148 -12 32 100 32 270 c 0
 32 439 148 552 324 552 c 0
 480 552 596 466 610 325 c 1
 411 317 l 1
 403 381 371 412 324 412 c 0
 264 412 231 361 231 270 c 0xf0
 231 178 264 127 324 127 c 0
 372 127 405 157 411 225 c 1
 610 219 l 1
 598 77 485 -12 324 -12 c 0
EndSplineSet
Substitution2: "'ss08' Style Set 8 in Latin lookup 41 subtable" cdotaccent.ss08
Substitution2: "'aalt' Access All Alternates in Latin lookup 0 subtable" cdotaccent.ss08
EndChar

StartChar: d
Encoding: 100 100 190
Width: 660
GlyphClass: 2
Flags: MW
HStem: -12 139<182 348.5> 0 127<293.5 604 293.5 415> 413 139<184 349> 690 20G<410 604 604 604>
VStem: 32 199<227 314 227 356> 410 194<220 320 462 710 0 710> 413.5 190.5
AnchorPoint: "Anchor-4" 624 540 basechar 0
AnchorPoint: "Anchor-3" 330 540 basechar 0
AnchorPoint: "Anchor-1" 481 622 basechar 0
AnchorPoint: "Anchor-0" 330 0 basechar 0
LayerCount: 2
Fore
SplineSet
249 -12 m 0xba
 115 -12 32 97 32 270 c 0
 32 442 119 552 249 552 c 0
 329 552 382 518 410 462 c 1
 410 710 l 1
 604 710 l 1
 604 0 l 1x7c
 415 0 l 1x7a
 412 78 l 1
 382 21 323 -12 249 -12 c 0xba
320 127 m 0
 377 127 410 170 410 270 c 0
 410 370 378 413 320 413 c 0
 265 413 231 358 231 270 c 0
 231 184 267 127 320 127 c 0
EndSplineSet
EndChar

StartChar: dcaron
Encoding: 271 271 191
Width: 793
GlyphClass: 2
Flags: MW
HStem: -12 139<182 348.5> 0 127<293.5 604 293.5 415> 403 307<410 645 673 777> 413 139<184 349> 690 20G<410 604 604 604 673 833 833 833>
VStem: 32 199<227 314 227 356> 410 194<220 320 462 710 0 710> 413.5 190.5
AnchorPoint: "Anchor-4" 624 540 basechar 0
AnchorPoint: "Anchor-3" 330 540 basechar 0
AnchorPoint: "Anchor-1" 481 622 basechar 0
AnchorPoint: "Anchor-0" 330 0 basechar 0
LayerCount: 2
Fore
SplineSet
249 -12 m 0x9d
 115 -12 32 97 32 270 c 0
 32 442 119 552 249 552 c 0
 329 552 382 518 410 462 c 1
 410 710 l 1
 604 710 l 1
 604 0 l 1x5e
 415 0 l 1x5d
 412 78 l 1
 382 21 323 -12 249 -12 c 0x9d
645 403 m 1x66
 673 710 l 1
 833 710 l 1
 777 403 l 1
 645 403 l 1x66
320 127 m 0
 377 127 410 170 410 270 c 0
 410 370 378 413 320 413 c 0x5e
 265 413 231 358 231 270 c 0
 231 184 267 127 320 127 c 0
EndSplineSet
EndChar

StartChar: dcroat
Encoding: 273 273 192
Width: 660
GlyphClass: 2
Flags: MW
HStem: -12 139<182 348.5> 0 127<293.5 604 293.5 415> 413 139<184 349> 572 100<291 410 291 410 604 671> 572 138<291 604 291 604 410 604 410 671>
VStem: 32 199<227 314 227 356> 410 194<220 320 462 572 0 572 672 710 0 710> 413.5 190.5
AnchorPoint: "Anchor-4" 624 540 basechar 0
AnchorPoint: "Anchor-3" 330 540 basechar 0
AnchorPoint: "Anchor-1" 481 622 basechar 0
AnchorPoint: "Anchor-0" 330 0 basechar 0
LayerCount: 2
Fore
SplineSet
249 -12 m 0x8d
 115 -12 32 97 32 270 c 0
 32 442 119 552 249 552 c 0x66
 329 552 382 518 410 462 c 1
 410 572 l 1
 291 572 l 1x4e
 291 672 l 1
 410 672 l 1x56
 410 710 l 1
 604 710 l 1x4e
 604 672 l 1
 671 672 l 1x56
 671 572 l 1
 604 572 l 1
 604 0 l 1x4e
 415 0 l 1x4d
 412 78 l 1
 382 21 323 -12 249 -12 c 0x8d
320 127 m 0
 377 127 410 170 410 270 c 0
 410 370 378 413 320 413 c 0
 265 413 231 358 231 270 c 0
 231 184 267 127 320 127 c 0
EndSplineSet
EndChar

StartChar: eth
Encoding: 240 240 193
Width: 648
GlyphClass: 1
Flags: MW
HStem: -12 135<294 354 294 422> 333 135<294 341.5 226 354> 702 20G<235 235 555 555>
VStem: 32 199<197 258.5 197 302.5> 417 199<197 258.5>
LayerCount: 2
Fore
SplineSet
324 -12 m 0
 128 -12 32 78 32 228 c 0
 32 377 128 468 324 468 c 0
 359 468 395 461 428 449 c 1
 414 488 392 521 359 546 c 1
 225 485 l 1
 195 557 l 1
 266 589 l 1
 241 596 213 600 181 602 c 1
 235 722 l 1
 311 715 374 694 425 663 c 1
 555 722 l 1
 585 650 l 1
 494 608 l 1
 578 522 616 398 616 268 c 0
 616 78 520 -12 324 -12 c 0
324 123 m 0
 384 123 417 166 417 228 c 0
 417 289 384 333 324 333 c 0
 264 333 231 289 231 228 c 0
 231 166 264 123 324 123 c 0
EndSplineSet
EndChar

StartChar: e
Encoding: 101 101 194
Width: 635
GlyphClass: 2
Flags: MW
HStem: -12 136<298 344 298 391> 220 104<232 409 232 603 232 409> 420 132<296 347>
VStem: 32 200<220 220 220 324 220 354.5> 409 194<220 324>
AnchorPoint: "Anchor-3" 324 538 basechar 0
AnchorPoint: "Anchor-2" 511 40 basechar 0
AnchorPoint: "Anchor-0" 324 0 basechar 0
LayerCount: 2
Fore
SplineSet
321 -12 m 0
 147 -12 32 100 32 270 c 0
 32 439 147 552 321 552 c 0
 495 552 603 436 603 254 c 2
 603 220 l 1
 232 220 l 1
 234 155 271 124 325 124 c 0
 363 124 392 137 404 174 c 1
 596 164 l 1
 566 48 461 -12 321 -12 c 0
232 324 m 1
 409 324 l 1
 407 387 373 420 321 420 c 0
 271 420 236 383 232 324 c 1
EndSplineSet
EndChar

StartChar: eacute
Encoding: 233 233 195
Width: 635
GlyphClass: 2
Flags: MW
HStem: -12 136<298 344 298 391> 220 104<232 409 232 603 232 409> 420 132<296 347> 585 160<235 469 289 379>
VStem: 32 200<220 220 220 324 220 354.5> 409 194<220 324>
AnchorPoint: "Anchor-3" 324 538 basechar 0
AnchorPoint: "Anchor-2" 511 40 basechar 0
AnchorPoint: "Anchor-0" 324 0 basechar 0
LayerCount: 2
Fore
SplineSet
235 585 m 1
 289 745 l 1
 469 745 l 1
 379 585 l 1
 235 585 l 1
321 -12 m 0
 147 -12 32 100 32 270 c 0
 32 439 147 552 321 552 c 0
 495 552 603 436 603 254 c 2
 603 220 l 1
 232 220 l 1
 234 155 271 124 325 124 c 0
 363 124 392 137 404 174 c 1
 596 164 l 1
 566 48 461 -12 321 -12 c 0
232 324 m 1
 409 324 l 1
 407 387 373 420 321 420 c 0
 271 420 236 383 232 324 c 1
EndSplineSet
EndChar

StartChar: ecaron
Encoding: 283 283 196
Width: 635
GlyphClass: 2
Flags: MW
HStem: -12 136<298 344 298 391> 220 104<232 409 232 603 232 409> 420 132<296 347> 585 166<235 263 385 413 235 235>
VStem: 32 200<220 220 220 324 220 354.5> 409 194<220 324>
AnchorPoint: "Anchor-3" 324 538 basechar 0
AnchorPoint: "Anchor-2" 511 40 basechar 0
AnchorPoint: "Anchor-0" 324 0 basechar 0
LayerCount: 2
Fore
SplineSet
135 751 m 1
 263 751 l 1
 324 663 l 1
 385 751 l 1
 513 751 l 1
 413 585 l 1
 235 585 l 1
 135 751 l 1
321 -12 m 0
 147 -12 32 100 32 270 c 0
 32 439 147 552 321 552 c 0
 495 552 603 436 603 254 c 2
 603 220 l 1
 232 220 l 1
 234 155 271 124 325 124 c 0
 363 124 392 137 404 174 c 1
 596 164 l 1
 566 48 461 -12 321 -12 c 0
232 324 m 1
 409 324 l 1
 407 387 373 420 321 420 c 0
 271 420 236 383 232 324 c 1
EndSplineSet
EndChar

StartChar: ecircumflex
Encoding: 234 234 197
Width: 635
GlyphClass: 2
Flags: MW
HStem: -12 136<298 344 298 391> 220 104<232 409 232 603 232 409> 420 132<296 347> 585 166<135 413 235 263 385 385 385 413 235 513>
VStem: 32 200<220 220 220 324 220 354.5> 409 194<220 324>
AnchorPoint: "Anchor-3" 324 538 basechar 0
AnchorPoint: "Anchor-2" 511 40 basechar 0
AnchorPoint: "Anchor-0" 324 0 basechar 0
LayerCount: 2
Fore
SplineSet
135 585 m 1
 235 751 l 1
 413 751 l 1
 513 585 l 1
 385 585 l 1
 324 673 l 1
 263 585 l 1
 135 585 l 1
321 -12 m 0
 147 -12 32 100 32 270 c 0
 32 439 147 552 321 552 c 0
 495 552 603 436 603 254 c 2
 603 220 l 1
 232 220 l 1
 234 155 271 124 325 124 c 0
 363 124 392 137 404 174 c 1
 596 164 l 1
 566 48 461 -12 321 -12 c 0
232 324 m 1
 409 324 l 1
 407 387 373 420 321 420 c 0
 271 420 236 383 232 324 c 1
EndSplineSet
EndChar

StartChar: edieresis
Encoding: 235 235 198
Width: 635
GlyphClass: 2
Flags: MW
HStem: -12 136<298 344 298 391> 220 104<232 409 232 603 232 409> 420 132<296 347> 588 136<113 293 113 293 355 535 113 355>
VStem: 32 200<220 220 220 324 220 354.5> 113 180<588 724 588 724> 355 180<588 724 588 724> 409 194<220 324>
AnchorPoint: "Anchor-3" 324 538 basechar 0
AnchorPoint: "Anchor-2" 511 40 basechar 0
AnchorPoint: "Anchor-0" 324 0 basechar 0
LayerCount: 2
Fore
SplineSet
113 588 m 1xf6
 113 724 l 1
 293 724 l 1
 293 588 l 1
 113 588 l 1xf6
355 588 m 1
 355 724 l 1
 535 724 l 1
 535 588 l 1
 355 588 l 1
321 -12 m 0
 147 -12 32 100 32 270 c 0
 32 439 147 552 321 552 c 0
 495 552 603 436 603 254 c 2
 603 220 l 1
 232 220 l 1xf9
 234 155 271 124 325 124 c 0
 363 124 392 137 404 174 c 1
 596 164 l 1
 566 48 461 -12 321 -12 c 0
232 324 m 1
 409 324 l 1
 407 387 373 420 321 420 c 0
 271 420 236 383 232 324 c 1
EndSplineSet
Substitution2: "'ss08' Style Set 8 in Latin lookup 41 subtable" edieresis.ss08
Substitution2: "'aalt' Access All Alternates in Latin lookup 0 subtable" edieresis.ss08
EndChar

StartChar: edotaccent
Encoding: 279 279 199
Width: 635
GlyphClass: 2
Flags: MW
HStem: -12 136<298 344 298 391> 220 104<232 409 232 603 232 409> 420 132<296 347> 592 136<224 424 224 424>
VStem: 32 200<220 220 220 324 220 354.5> 224 200<592 728 592 728> 409 194<220 324>
AnchorPoint: "Anchor-3" 324 538 basechar 0
AnchorPoint: "Anchor-2" 511 40 basechar 0
AnchorPoint: "Anchor-0" 324 0 basechar 0
LayerCount: 2
Fore
SplineSet
224 592 m 1xf4
 224 728 l 1
 424 728 l 1
 424 592 l 1
 224 592 l 1xf4
321 -12 m 0
 147 -12 32 100 32 270 c 0
 32 439 147 552 321 552 c 0
 495 552 603 436 603 254 c 2
 603 220 l 1
 232 220 l 1xfa
 234 155 271 124 325 124 c 0
 363 124 392 137 404 174 c 1
 596 164 l 1
 566 48 461 -12 321 -12 c 0
232 324 m 1
 409 324 l 1
 407 387 373 420 321 420 c 0
 271 420 236 383 232 324 c 1
EndSplineSet
Substitution2: "'ss08' Style Set 8 in Latin lookup 41 subtable" edotaccent.ss08
Substitution2: "'aalt' Access All Alternates in Latin lookup 0 subtable" edotaccent.ss08
EndChar

StartChar: egrave
Encoding: 232 232 200
Width: 635
GlyphClass: 2
Flags: MW
HStem: -12 136<298 344 298 391> 220 104<232 409 232 603 232 409> 420 132<296 347> 592 160<265 265 265 355 175 409>
VStem: 32 200<220 220 220 324 220 354.5> 409 194<220 324>
AnchorPoint: "Anchor-3" 324 538 basechar 0
AnchorPoint: "Anchor-2" 511 40 basechar 0
AnchorPoint: "Anchor-0" 324 0 basechar 0
LayerCount: 2
Fore
SplineSet
265 592 m 1
 175 752 l 1
 355 752 l 1
 409 592 l 1
 265 592 l 1
321 -12 m 0
 147 -12 32 100 32 270 c 0
 32 439 147 552 321 552 c 0
 495 552 603 436 603 254 c 2
 603 220 l 1
 232 220 l 1
 234 155 271 124 325 124 c 0
 363 124 392 137 404 174 c 1
 596 164 l 1
 566 48 461 -12 321 -12 c 0
232 324 m 1
 409 324 l 1
 407 387 373 420 321 420 c 0
 271 420 236 383 232 324 c 1
EndSplineSet
EndChar

StartChar: emacron
Encoding: 275 275 201
Width: 635
GlyphClass: 2
Flags: MW
HStem: -12 136<298 344 298 391> 220 104<232 409 232 603 232 409> 420 132<296 347> 593 135<164 484 164 484>
VStem: 32 200<220 220 220 324 220 354.5> 164 320<593 728 593 728> 409 194<220 324>
AnchorPoint: "Anchor-3" 324 538 basechar 0
AnchorPoint: "Anchor-2" 511 40 basechar 0
AnchorPoint: "Anchor-0" 324 0 basechar 0
LayerCount: 2
Fore
SplineSet
164 593 m 1xf4
 164 728 l 1
 484 728 l 1
 484 593 l 1
 164 593 l 1xf4
321 -12 m 0
 147 -12 32 100 32 270 c 0
 32 439 147 552 321 552 c 0
 495 552 603 436 603 254 c 2
 603 220 l 1
 232 220 l 1xfa
 234 155 271 124 325 124 c 0
 363 124 392 137 404 174 c 1
 596 164 l 1
 566 48 461 -12 321 -12 c 0
232 324 m 1
 409 324 l 1
 407 387 373 420 321 420 c 0
 271 420 236 383 232 324 c 1
EndSplineSet
EndChar

StartChar: eogonek
Encoding: 281 281 202
Width: 635
GlyphClass: 2
Flags: MW
HStem: -222 104<367.5 462> -12 136<298 323 321 334> 220 104<232 409 232 603 232 409> 420 132<296 347>
VStem: 32 200<220 220 220 324 220 354.5> 281 150<-157 -85.5> 409 194<220 324>
AnchorPoint: "Anchor-3" 324 538 basechar 0
AnchorPoint: "Anchor-2" 511 40 basechar 0
AnchorPoint: "Anchor-0" 324 0 basechar 0
LayerCount: 2
Fore
SplineSet
321 -12 m 0xfc
 147 -12 32 100 32 270 c 0
 32 439 147 552 321 552 c 0
 495 552 603 436 603 254 c 2
 603 220 l 1xfa
 232 220 l 1
 234 155 271 124 325 124 c 0
 363 124 392 137 404 174 c 1
 596 164 l 1
 587 129 571 100 550 75 c 1
 551 75 l 1
 459 -34 l 2
 441 -56 431 -77 431 -94 c 0
 431 -111 443 -118 455 -118 c 0
 469 -118 486 -112 494 -106 c 1
 524 -196 l 1
 504 -210 456 -222 408 -222 c 0
 327 -222 281 -188 281 -126 c 0
 281 -84 298 -53 323 -24 c 2
 334 -12 l 1
 329 -12 325 -12 321 -12 c 0xfc
232 324 m 1
 409 324 l 1
 407 387 373 420 321 420 c 0
 271 420 236 383 232 324 c 1
EndSplineSet
EndChar

StartChar: uni1EBD
Encoding: 7869 7869 203
Width: 635
GlyphClass: 2
Flags: MW
HStem: -12 136<298 344 298 391> 220 104<232 409 232 603 232 409> 420 132<296 347> 587 159<224.5 233 143 280> 592 111<375 388.5 375 419.5> 592 160<414 419.5> 635 111<260 273>
VStem: 32 200<220 220 220 324 220 354.5> 143 90<587 634> 409 194<220 324> 414 90<703.5 752>
AnchorPoint: "Anchor-3" 324 538 basechar 0
AnchorPoint: "Anchor-2" 511 40 basechar 0
AnchorPoint: "Anchor-0" 324 0 basechar 0
LayerCount: 2
Fore
SplineSet
378 592 m 0xe520
 344 592 326 598 298 622 c 0
 288 630 278 635 268 635 c 0xe2a0
 252 635 237 624 233 587 c 1
 143 587 l 1
 143 681 185 746 264 746 c 0xf0a0
 296 746 321 739 349 717 c 0
 362 707 370 703 380 703 c 0xe920
 397 703 412 713 414 752 c 1
 504 752 l 1
 504 655 461 592 378 592 c 0xe520
321 -12 m 0
 147 -12 32 100 32 270 c 0
 32 439 147 552 321 552 c 0
 495 552 603 436 603 254 c 2
 603 220 l 1
 232 220 l 1xe140
 234 155 271 124 325 124 c 0
 363 124 392 137 404 174 c 1
 596 164 l 1
 566 48 461 -12 321 -12 c 0
232 324 m 1
 409 324 l 1
 407 387 373 420 321 420 c 0
 271 420 236 383 232 324 c 1
EndSplineSet
EndChar

StartChar: uni0259
Encoding: 601 601 204
Width: 635
GlyphClass: 2
Flags: MW
HStem: -12 132<288 339 288 401> 216 104<226 403 226 226> 416 136<291 337>
VStem: 32 194<216 320 216 320> 403 200<216 216 320 320>
AnchorPoint: "Anchor-3" 311 540 basechar 0
AnchorPoint: "Anchor-2" 124 500 basechar 0
AnchorPoint: "Anchor-0" 311 2 basechar 0
LayerCount: 2
Fore
SplineSet
314 552 m 0
 488 552 603 440 603 270 c 0
 603 101 488 -12 314 -12 c 0
 140 -12 32 104 32 286 c 2
 32 320 l 1
 403 320 l 1
 401 385 364 416 310 416 c 0
 272 416 243 403 231 366 c 1
 39 376 l 1
 69 492 174 552 314 552 c 0
403 216 m 1
 226 216 l 1
 228 153 262 120 314 120 c 0
 364 120 399 157 403 216 c 1
EndSplineSet
EndChar

StartChar: f
Encoding: 102 102 205
Width: 481
GlyphClass: 2
Flags: MW
HStem: 0 21G<118 118 118 313> 369 137<36 118 36 118 313 446> 573 137<349 370 370 454>
VStem: 118 195<0 369 0 369 506 512 0 520 0 582>
AnchorPoint: "Anchor-3" 241 710 basechar 0
AnchorPoint: "Anchor-0" 241 0 basechar 0
LayerCount: 2
Fore
SplineSet
118 0 m 1
 118 369 l 1
 36 369 l 1
 36 506 l 1
 118 506 l 1
 118 520 l 2
 118 644 182 710 320 710 c 2
 454 710 l 1
 454 573 l 1
 370 573 l 2
 328 573 313 554 313 512 c 2
 313 506 l 1
 446 506 l 1
 446 369 l 1
 313 369 l 1
 313 0 l 1
 118 0 l 1
EndSplineSet
EndChar

StartChar: g
Encoding: 103 103 206
Width: 660
GlyphClass: 2
Flags: MW
HStem: -162 122<298 350 298 403.5> -14 21G<49 49> 23 131<188 349> 422 118<293.5 604> 422 130<188 349.5>
VStem: 32 199<247.5 328 247.5 364> 408 196<60 64 64 99 99 99> 410 194<245 330> 412 192<458 540>
AnchorPoint: "Anchor-3" 327 540 basechar 0
AnchorPoint: "Anchor-0" 323 -150 basechar 0
LayerCount: 2
Fore
SplineSet
323 -162 m 0xb480
 143 -162 75 -100 49 -14 c 1x75
 247 0 l 1
 255 -26 273 -40 323 -40 c 0
 377 -40 408 -12 408 60 c 2
 408 99 l 1
 383 53 322 23 253 23 c 0
 123 23 32 123 32 286 c 0
 32 442 123 552 253 552 c 0xae
 334 552 382 514 412 458 c 1
 412 540 l 1
 604 540 l 1
 604 64 l 2
 604 -93 484 -162 323 -162 c 0xb480
322 154 m 0
 376 154 410 202 410 288 c 0
 410 372 377 422 322 422 c 0
 265 422 231 368 231 288 c 0
 231 207 267 154 322 154 c 0
EndSplineSet
EndChar

StartChar: gbreve
Encoding: 287 287 207
Width: 660
GlyphClass: 2
Flags: MW
HStem: -162 122<298 350 298 403.5> -14 21G<49 49> 23 131<188 349> 422 118<293.5 604> 422 130<188 349.5> 584 96<309 345 309 377> 584 160<159 377>
VStem: 32 199<247.5 328 247.5 364> 159 106<744 744> 389 106<744 744> 408 196<60 64 64 99 99 99> 410 194<245 330> 412 192<458 540>
AnchorPoint: "Anchor-3" 327 540 basechar 0
AnchorPoint: "Anchor-0" 323 -150 basechar 0
LayerCount: 2
Fore
SplineSet
327 584 m 0xb340
 227 584 163 640 159 744 c 1xb288
 265 744 l 1
 269 698 291 680 327 680 c 0xb4c0
 363 680 385 698 389 744 c 1
 495 744 l 1
 491 640 427 584 327 584 c 0xb340
323 -162 m 0
 143 -162 75 -100 49 -14 c 1x7310
 247 0 l 1
 255 -26 273 -40 323 -40 c 0
 377 -40 408 -12 408 60 c 2
 408 99 l 1
 383 53 322 23 253 23 c 0
 123 23 32 123 32 286 c 0xab20
 32 442 123 552 253 552 c 0xaa88
 334 552 382 514 412 458 c 1
 412 540 l 1
 604 540 l 1
 604 64 l 2
 604 -93 484 -162 323 -162 c 0
322 154 m 0
 376 154 410 202 410 288 c 0
 410 372 377 422 322 422 c 0
 265 422 231 368 231 288 c 0
 231 207 267 154 322 154 c 0
EndSplineSet
EndChar

StartChar: gcaron
Encoding: 487 487 208
Width: 660
GlyphClass: 2
Flags: MW
HStem: -162 122<298 350 298 403.5> -14 21G<49 49> 23 131<188 349> 422 118<293.5 604> 422 130<188 349.5> 587 166<238 266 388 416 238 238>
VStem: 32 199<247.5 328 247.5 364> 408 196<60 64 64 99 99 99> 410 194<245 330> 412 192<458 540>
AnchorPoint: "Anchor-3" 327 540 basechar 0
AnchorPoint: "Anchor-0" 323 -150 basechar 0
LayerCount: 2
Fore
SplineSet
138 753 m 1x9640
 266 753 l 1
 327 665 l 1
 388 753 l 1
 516 753 l 1
 416 587 l 1
 238 587 l 1
 138 753 l 1x9640
323 -162 m 0
 143 -162 75 -100 49 -14 c 1x7680
 247 0 l 1
 255 -26 273 -40 323 -40 c 0
 377 -40 408 -12 408 60 c 2
 408 99 l 1
 383 53 322 23 253 23 c 0
 123 23 32 123 32 286 c 0
 32 442 123 552 253 552 c 0xaf
 334 552 382 514 412 458 c 1
 412 540 l 1
 604 540 l 1
 604 64 l 2
 604 -93 484 -162 323 -162 c 0
322 154 m 0
 376 154 410 202 410 288 c 0
 410 372 377 422 322 422 c 0
 265 422 231 368 231 288 c 0
 231 207 267 154 322 154 c 0
EndSplineSet
EndChar

StartChar: gcircumflex
Encoding: 285 285 209
Width: 660
GlyphClass: 2
Flags: MW
HStem: -162 122<298 350 298 403.5> -14 21G<49 49> 23 131<188 349> 422 118<293.5 604> 422 130<188 349.5> 587 166<138 416 238 266 388 388 388 416 238 516>
VStem: 32 199<247.5 328 247.5 364> 408 196<60 64 64 99 99 99> 410 194<245 330> 412 192<458 540>
AnchorPoint: "Anchor-3" 327 540 basechar 0
AnchorPoint: "Anchor-0" 323 -150 basechar 0
LayerCount: 2
Fore
SplineSet
138 587 m 1x9640
 238 753 l 1
 416 753 l 1
 516 587 l 1
 388 587 l 1
 327 675 l 1
 266 587 l 1
 138 587 l 1x9640
323 -162 m 0
 143 -162 75 -100 49 -14 c 1x7680
 247 0 l 1
 255 -26 273 -40 323 -40 c 0
 377 -40 408 -12 408 60 c 2
 408 99 l 1
 383 53 322 23 253 23 c 0
 123 23 32 123 32 286 c 0
 32 442 123 552 253 552 c 0xaf
 334 552 382 514 412 458 c 1
 412 540 l 1
 604 540 l 1
 604 64 l 2
 604 -93 484 -162 323 -162 c 0
322 154 m 0
 376 154 410 202 410 288 c 0
 410 372 377 422 322 422 c 0
 265 422 231 368 231 288 c 0
 231 207 267 154 322 154 c 0
EndSplineSet
EndChar

StartChar: uni0123
Encoding: 291 291 210
Width: 660
GlyphClass: 2
Flags: MW
HStem: -162 122<298 350 298 403.5> -14 21G<49 49> 23 131<188 349> 422 118<293.5 604> 422 130<188 349.5> 584 134<254 404 370 404 370 404>
VStem: 32 199<247.5 328 247.5 364> 254 150<584 704 704 704> 408 196<60 64 64 99 99 99> 410 194<245 330> 412 192<458 540>
AnchorPoint: "Anchor-3" 327 540 basechar 0
AnchorPoint: "Anchor-0" 323 -150 basechar 0
LayerCount: 2
Fore
SplineSet
254 584 m 1xb5
 254 704 l 1
 312 800 l 1
 420 800 l 1
 370 718 l 1
 404 718 l 1
 404 584 l 1
 254 584 l 1xb5
323 -162 m 0
 143 -162 75 -100 49 -14 c 1x7640
 247 0 l 1
 255 -26 273 -40 323 -40 c 0
 377 -40 408 -12 408 60 c 2
 408 99 l 1
 383 53 322 23 253 23 c 0
 123 23 32 123 32 286 c 0
 32 442 123 552 253 552 c 0xae80
 334 552 382 514 412 458 c 1
 412 540 l 1
 604 540 l 1
 604 64 l 2xb620
 604 -93 484 -162 323 -162 c 0
322 154 m 0
 376 154 410 202 410 288 c 0
 410 372 377 422 322 422 c 0
 265 422 231 368 231 288 c 0
 231 207 267 154 322 154 c 0
EndSplineSet
EndChar

StartChar: gdotaccent
Encoding: 289 289 211
Width: 660
GlyphClass: 2
Flags: MW
HStem: -162 122<298 350 298 403.5> -14 21G<49 49> 23 131<188 349> 422 118<293.5 604> 422 130<188 349.5> 594 136<227 427 227 427>
VStem: 32 199<247.5 328 247.5 364> 227 200<594 730 594 730> 408 196<60 64 64 99 99 99> 410 194<245 330> 412 192<458 540>
AnchorPoint: "Anchor-3" 327 540 basechar 0
AnchorPoint: "Anchor-0" 323 -150 basechar 0
LayerCount: 2
Fore
SplineSet
227 594 m 1x95
 227 730 l 1
 427 730 l 1
 427 594 l 1
 227 594 l 1x95
323 -162 m 0
 143 -162 75 -100 49 -14 c 1x7640
 247 0 l 1
 255 -26 273 -40 323 -40 c 0
 377 -40 408 -12 408 60 c 2
 408 99 l 1
 383 53 322 23 253 23 c 0
 123 23 32 123 32 286 c 0
 32 442 123 552 253 552 c 0xae80
 334 552 382 514 412 458 c 1
 412 540 l 1
 604 540 l 1
 604 64 l 2x9620
 604 -93 484 -162 323 -162 c 0
322 154 m 0
 376 154 410 202 410 288 c 0
 410 372 377 422 322 422 c 0
 265 422 231 368 231 288 c 0
 231 207 267 154 322 154 c 0
EndSplineSet
Substitution2: "'ss08' Style Set 8 in Latin lookup 41 subtable" gdotaccent.ss08
Substitution2: "'aalt' Access All Alternates in Latin lookup 0 subtable" gdotaccent.ss08
EndChar

StartChar: uni1E21
Encoding: 7713 7713 212
Width: 660
GlyphClass: 2
Flags: MW
HStem: -162 122<298 350 298 403.5> -14 21G<49 49> 23 131<188 349> 422 118<293.5 604> 422 130<188 349.5> 595 135<167 487 167 487>
VStem: 32 199<247.5 328 247.5 364> 408 196<60 64 64 99 99 99> 410 194<245 330> 412 75<458 730 540 730> 412 192<458 540>
AnchorPoint: "Anchor-3" 327 540 basechar 0
AnchorPoint: "Anchor-0" 323 -150 basechar 0
LayerCount: 2
Fore
SplineSet
167 595 m 1xb640
 167 730 l 1
 487 730 l 1
 487 595 l 1
 167 595 l 1xb640
323 -162 m 0
 143 -162 75 -100 49 -14 c 1x7680
 247 0 l 1
 255 -26 273 -40 323 -40 c 0
 377 -40 408 -12 408 60 c 2
 408 99 l 1
 383 53 322 23 253 23 c 0
 123 23 32 123 32 286 c 0
 32 442 123 552 253 552 c 0xaf
 334 552 382 514 412 458 c 1
 412 540 l 1
 604 540 l 1
 604 64 l 2xb620
 604 -93 484 -162 323 -162 c 0
322 154 m 0
 376 154 410 202 410 288 c 0
 410 372 377 422 322 422 c 0
 265 422 231 368 231 288 c 0
 231 207 267 154 322 154 c 0
EndSplineSet
EndChar

StartChar: uni01E5
Encoding: 485 485 213
Width: 681
GlyphClass: 2
Flags: MW
HStem: -162 122<298 350 298 403.5> -14 21G<49 49> 23 131<188 342.5> 232 100<309 404 309 406 604 665> 422 118<293.5 604> 422 130<188 344.5>
VStem: 32 199<247.5 328 247.5 364> 309 295<-14.5 332 -14.5 332> 408 196<60 64 64 99 99 99> 412 192<458 540>
AnchorPoint: "Anchor-3" 327 540 basechar 0
AnchorPoint: "Anchor-0" 323 -150 basechar 0
LayerCount: 2
Fore
SplineSet
323 -162 m 0x9a40
 143 -162 75 -100 49 -14 c 1x77
 247 0 l 1
 255 -26 273 -40 323 -40 c 0
 377 -40 408 -12 408 60 c 2
 408 99 l 1
 383 53 322 23 253 23 c 0
 123 23 32 123 32 286 c 0
 32 442 123 552 253 552 c 0xb680
 334 552 382 514 412 458 c 1
 412 540 l 1
 604 540 l 1
 604 332 l 1
 665 332 l 1
 665 232 l 1
 604 232 l 1
 604 64 l 2
 604 -93 484 -162 323 -162 c 0x9a40
322 154 m 0
 363 154 392 181 404 232 c 1
 309 232 l 1
 309 332 l 1
 406 332 l 1
 397 389 367 422 322 422 c 0
 265 422 231 368 231 288 c 0
 231 207 267 154 322 154 c 0
EndSplineSet
EndChar

StartChar: h
Encoding: 104 104 214
Width: 631
GlyphClass: 2
Flags: MW
HStem: 0 21G<56 56 56 250 381 381 381 575> 403 149<297 452> 690 20G<56 250 250 250>
VStem: 56 194<0 298 484 710> 381 194<0 304 304 336>
AnchorPoint: "Anchor-3" 156 690 basechar 0
AnchorPoint: "Anchor-1" 180 622 basechar 0
AnchorPoint: "Anchor-0" 316 0 basechar 0
LayerCount: 2
Fore
SplineSet
56 0 m 1
 56 710 l 1
 250 710 l 1
 250 484 l 1
 280 530 332 552 390 552 c 0
 514 552 575 467 575 347 c 2
 575 0 l 1
 381 0 l 1
 381 304 l 2
 381 368 366 403 320 403 c 0
 274 403 250 368 250 298 c 2
 250 0 l 1
 56 0 l 1
EndSplineSet
EndChar

StartChar: hbar
Encoding: 295 295 215
Width: 631
GlyphClass: 2
Flags: MW
HStem: 0 21G<56 56 56 250 381 381 381 575> 403 149<297 452> 572 100<-10 56 -10 56 250 370> 572 138<-10 250 -10 250 56 250 56 370>
VStem: 56 194<0 298 484 572 672 710> 381 194<0 304 304 336>
AnchorPoint: "Anchor-3" 156 690 basechar 0
AnchorPoint: "Anchor-1" 180 622 basechar 0
AnchorPoint: "Anchor-0" 316 0 basechar 0
LayerCount: 2
Fore
SplineSet
56 0 m 1xcc
 56 572 l 1
 -10 572 l 1x9c
 -10 672 l 1
 56 672 l 1xac
 56 710 l 1
 250 710 l 1x9c
 250 672 l 1
 370 672 l 1xac
 370 572 l 1
 250 572 l 1x9c
 250 484 l 1
 280 530 332 552 390 552 c 0
 514 552 575 467 575 347 c 2
 575 0 l 1
 381 0 l 1
 381 304 l 2
 381 368 366 403 320 403 c 0
 274 403 250 368 250 298 c 2
 250 0 l 1
 56 0 l 1xcc
EndSplineSet
EndChar

StartChar: hcircumflex
Encoding: 293 293 216
Width: 631
GlyphClass: 2
Flags: MW
HStem: 0 21G<56 56 56 250 381 381 381 575> 403 149<297 452> 690 20G<56 250 250 250> 737 166<-33 245 67 95 217 217 217 245 67 345>
VStem: 56 194<0 298 484 710> 381 194<0 304 304 336>
AnchorPoint: "Anchor-3" 156 690 basechar 0
AnchorPoint: "Anchor-1" 180 622 basechar 0
AnchorPoint: "Anchor-0" 316 0 basechar 0
LayerCount: 2
Fore
SplineSet
-33 737 m 1
 67 903 l 1
 245 903 l 1
 345 737 l 1
 217 737 l 1
 156 825 l 1
 95 737 l 1
 -33 737 l 1
56 0 m 1
 56 710 l 1
 250 710 l 1xec
 250 484 l 1
 280 530 332 552 390 552 c 0
 514 552 575 467 575 347 c 2
 575 0 l 1
 381 0 l 1
 381 304 l 2
 381 368 366 403 320 403 c 0
 274 403 250 368 250 298 c 2
 250 0 l 1
 56 0 l 1
EndSplineSet
EndChar

StartChar: i
Encoding: 105 105 217
Width: 306
GlyphClass: 2
Flags: MW
HStem: 0 21G<56 56 56 250> 520 20G<56 250 250 250> 594 136<53 253 53 253>
VStem: 53 197<0 730 0 730> 56 194<0 540 0 540> 56 197<0 730 540 730>
AnchorPoint: "Anchor-3" 153 540 basechar 0
AnchorPoint: "Anchor-2" 250 0 basechar 0
AnchorPoint: "Anchor-0" 153 0 basechar 0
LayerCount: 2
Fore
SplineSet
53 594 m 1xf0
 53 730 l 1xf0
 253 730 l 1
 253 594 l 1xe4
 53 594 l 1xf0
56 0 m 1xe8
 56 540 l 1
 250 540 l 1
 250 0 l 1
 56 0 l 1xe8
EndSplineSet
Substitution2: "'ss08' Style Set 8 in Latin lookup 41 subtable" i.ss08
Substitution2: "'locl' Localized Forms in Latin lookup 9 subtable" i.loclTRK
Substitution2: "Single Substitution lookup 3 subtable" dotlessi
AlternateSubs2: "'aalt' Access All Alternates in Latin lookup 1 subtable" i.loclTRK i.ss08
EndChar

StartChar: dotlessi
Encoding: 305 305 218
Width: 306
GlyphClass: 2
Flags: MW
HStem: 0 21G<56 56 56 250> 520 20G<56 250 250 250>
VStem: 56 194<0 540 0 540>
AnchorPoint: "Anchor-3" 153 540 basechar 0
AnchorPoint: "Anchor-2" 250 0 basechar 0
AnchorPoint: "Anchor-0" 153 0 basechar 0
LayerCount: 2
Fore
SplineSet
56 0 m 1
 56 540 l 1
 250 540 l 1
 250 0 l 1
 56 0 l 1
EndSplineSet
EndChar

StartChar: iacute
Encoding: 237 237 219
Width: 306
GlyphClass: 2
Flags: MW
HStem: 0 21G<56 56 56 250> 520 20G<56 250 250 250> 587 160<64 298 118 208>
VStem: 56 194<0 540 0 540>
AnchorPoint: "Anchor-3" 153 540 basechar 0
AnchorPoint: "Anchor-2" 250 0 basechar 0
AnchorPoint: "Anchor-0" 153 0 basechar 0
LayerCount: 2
Fore
SplineSet
64 587 m 1
 118 747 l 1
 298 747 l 1
 208 587 l 1
 64 587 l 1
56 0 m 1
 56 540 l 1
 250 540 l 1
 250 0 l 1
 56 0 l 1
EndSplineSet
EndChar

StartChar: icircumflex
Encoding: 238 238 220
Width: 306
GlyphClass: 2
Flags: MW
HStem: 0 21G<56 56 56 250> 520 20G<56 250 250 250> 587 166<-36 242 64 92 214 214 214 242 64 342>
VStem: 56 194<0 540 0 540>
AnchorPoint: "Anchor-3" 153 540 basechar 0
AnchorPoint: "Anchor-2" 250 0 basechar 0
AnchorPoint: "Anchor-0" 153 0 basechar 0
LayerCount: 2
Fore
SplineSet
-36 587 m 1
 64 753 l 1
 242 753 l 1
 342 587 l 1
 214 587 l 1
 153 675 l 1
 92 587 l 1
 -36 587 l 1
56 0 m 1
 56 540 l 1
 250 540 l 1
 250 0 l 1
 56 0 l 1
EndSplineSet
EndChar

StartChar: idieresis
Encoding: 239 239 221
Width: 306
GlyphClass: 2
Flags: MW
HStem: 0 21G<56 56 56 250> 520 20G<56 250 250 250> 590 136<-58 122 -58 122 184 364 -58 184>
VStem: -58 180<590 726 590 726> 56 66<0 726 540 726> 56 194<0 540 0 540> 184 66<0 726> 184 180<590 726 590 726>
AnchorPoint: "Anchor-3" 153 540 basechar 0
AnchorPoint: "Anchor-2" 250 0 basechar 0
AnchorPoint: "Anchor-0" 153 0 basechar 0
LayerCount: 2
Fore
SplineSet
-58 590 m 1xf0
 -58 726 l 1xf2
 122 726 l 1
 122 590 l 1xe8
 -58 590 l 1xf0
184 590 m 1
 184 726 l 1xe2
 364 726 l 1
 364 590 l 1xe1
 184 590 l 1
56 0 m 1xe4
 56 540 l 1
 250 540 l 1
 250 0 l 1
 56 0 l 1xe4
EndSplineSet
Substitution2: "'ss08' Style Set 8 in Latin lookup 41 subtable" idieresis.ss08
Substitution2: "'aalt' Access All Alternates in Latin lookup 0 subtable" idieresis.ss08
EndChar

StartChar: i.loclTRK
Encoding: 65576 -1 222
Width: 306
GlyphClass: 2
Flags: MW
HStem: 0 21G<56 56 56 250> 520 20G<56 250 250 250> 594 136<53 253 53 253>
VStem: 53 197<0 730 0 730> 56 194<0 540 0 540> 56 197<0 730 540 730>
AnchorPoint: "Anchor-3" 153 540 basechar 0
AnchorPoint: "Anchor-2" 250 0 basechar 0
AnchorPoint: "Anchor-0" 153 0 basechar 0
LayerCount: 2
Fore
SplineSet
53 594 m 1xf0
 53 730 l 1xf0
 253 730 l 1
 253 594 l 1xe4
 53 594 l 1xf0
56 0 m 1xe8
 56 540 l 1
 250 540 l 1
 250 0 l 1
 56 0 l 1xe8
EndSplineSet
Substitution2: "'ss08' Style Set 8 in Latin lookup 41 subtable" i.loclTRK.ss08
Substitution2: "'aalt' Access All Alternates in Latin lookup 0 subtable" i.loclTRK.ss08
EndChar

StartChar: igrave
Encoding: 236 236 223
Width: 306
GlyphClass: 2
Flags: MW
HStem: 0 21G<56 56 56 250> 520 20G<56 250 250 250> 594 160<94 94 94 184 4 238>
VStem: 56 194<0 540 0 540>
AnchorPoint: "Anchor-3" 153 540 basechar 0
AnchorPoint: "Anchor-2" 250 0 basechar 0
AnchorPoint: "Anchor-0" 153 0 basechar 0
LayerCount: 2
Fore
SplineSet
94 594 m 1
 4 754 l 1
 184 754 l 1
 238 594 l 1
 94 594 l 1
56 0 m 1
 56 540 l 1
 250 540 l 1
 250 0 l 1
 56 0 l 1
EndSplineSet
EndChar

StartChar: imacron
Encoding: 299 299 224
Width: 306
GlyphClass: 2
Flags: MW
HStem: 0 21G<56 56 56 250> 520 20G<56 250 250 250> 595 135<-7 313 -7 313>
VStem: -7 320<595 730 595 730> 56 194<0 540 0 540>
AnchorPoint: "Anchor-3" 153 540 basechar 0
AnchorPoint: "Anchor-2" 250 0 basechar 0
AnchorPoint: "Anchor-0" 153 0 basechar 0
LayerCount: 2
Fore
SplineSet
-7 595 m 1xf0
 -7 730 l 1
 313 730 l 1
 313 595 l 1
 -7 595 l 1xf0
56 0 m 1xe8
 56 540 l 1
 250 540 l 1
 250 0 l 1
 56 0 l 1xe8
EndSplineSet
EndChar

StartChar: iogonek
Encoding: 303 303 225
Width: 306
GlyphClass: 2
Flags: MW
HStem: -222 104<127.5 223> 0 21G<56 56 56 100 250 250> 520 20G<56 250 250 250> 594 136<53 253 53 253>
VStem: 41 150<-157 -85.5> 53 197<0 730 0 730> 56 135<-102.5 540> 56 194<0 540 0 540> 56 197<0 730 540 730>
AnchorPoint: "Anchor-3" 153 540 basechar 0
AnchorPoint: "Anchor-2" 250 0 basechar 0
AnchorPoint: "Anchor-0" 153 0 basechar 0
LayerCount: 2
Fore
SplineSet
53 594 m 1x74
 53 730 l 1x74
 253 730 l 1
 253 594 l 1x7080
 53 594 l 1x74
56 0 m 1x71
 56 540 l 1
 250 540 l 1
 250 0 l 1x71
 223 -34 l 2
 207 -55 191 -77 191 -94 c 0xf2
 191 -111 203 -118 215 -118 c 0
 231 -118 250 -112 258 -106 c 1
 288 -196 l 1
 268 -210 216 -222 168 -222 c 0
 87 -222 41 -188 41 -126 c 0xf8
 41 -84 63 -48 86 -18 c 2
 100 0 l 1
 56 0 l 1x71
EndSplineSet
Substitution2: "'ss08' Style Set 8 in Latin lookup 41 subtable" iogonek.ss08
Substitution2: "'aalt' Access All Alternates in Latin lookup 0 subtable" iogonek.ss08
EndChar

StartChar: itilde
Encoding: 297 297 226
Width: 306
GlyphClass: 2
Flags: MW
HStem: 0 21G<56 56 56 250> 520 20G<56 250 250 250> 589 159<53.5 62 -28 109> 594 111<204 217.5 204 248.5> 594 160<243 248.5> 637 111<89 102>
VStem: -28 90<589 636> 56 194<0 540 0 540> 243 90<705.5 754>
AnchorPoint: "Anchor-3" 153 540 basechar 0
AnchorPoint: "Anchor-2" 250 0 basechar 0
AnchorPoint: "Anchor-0" 153 0 basechar 0
LayerCount: 2
Fore
SplineSet
207 594 m 0xc880
 173 594 155 600 127 624 c 0
 117 632 107 637 97 637 c 0xc6
 81 637 66 626 62 589 c 1
 -28 589 l 1
 -28 683 14 748 93 748 c 0xe2
 125 748 150 741 178 719 c 0
 191 709 199 705 209 705 c 0xd080
 226 705 241 715 243 754 c 1
 333 754 l 1
 333 657 290 594 207 594 c 0xc880
56 0 m 1xc9
 56 540 l 1
 250 540 l 1
 250 0 l 1
 56 0 l 1xc9
EndSplineSet
EndChar

StartChar: ij
Encoding: 307 307 227
Width: 645
GlyphClass: 2
Flags: MW
HStem: -150 137<265 334 265 334 334 355 265 380> 0 21G<56 56 56 250> 520 20G<56 250 250 250 394 589 589 589> 594 136<53 253 53 253 392 592>
VStem: 53 197<0 730 0 730> 56 194<0 540 0 540> 56 197<0 730 540 730> 392 197 394 195<48 540> 394 198<48 730 540 730>
AnchorPoint: "Anchor-3" 492 540 basechar 0
AnchorPoint: "Anchor-2" 250 0 basechar 0
AnchorPoint: "Anchor-0" 456 -150 basechar 0
LayerCount: 2
Fore
SplineSet
53 594 m 1xb880
 53 730 l 1xb9
 253 730 l 1
 253 594 l 1xb280
 53 594 l 1xb880
392 594 m 1
 392 730 l 1x75
 592 730 l 1
 592 594 l 1xb440
 392 594 l 1
56 0 m 1
 56 540 l 1
 250 540 l 1
 250 0 l 1
 56 0 l 1
265 -150 m 1xb480
 265 -13 l 1
 334 -13 l 2
 376 -13 394 -1 394 48 c 2
 394 540 l 1
 589 540 l 1
 589 44 l 2
 589 -92 534 -150 380 -150 c 2
 265 -150 l 1xb480
EndSplineSet
Substitution2: "'ss08' Style Set 8 in Latin lookup 41 subtable" ij.ss08
Substitution2: "'aalt' Access All Alternates in Latin lookup 0 subtable" ij.ss08
EndChar

StartChar: j
Encoding: 106 106 228
Width: 379
GlyphClass: 2
Flags: MW
HStem: -150 137<-1 68 -1 68 68 89 -1 114> 520 20G<128 323 323 323> 594 136<126 326 126 326>
VStem: 126 197 128 195<48 540> 128 198<48 730 540 730>
AnchorPoint: "Anchor-3" 226 540 basechar 0
AnchorPoint: "Anchor-0" 190 -150 basechar 0
LayerCount: 2
Fore
SplineSet
126 594 m 1xf0
 126 730 l 1xf0
 326 730 l 1
 326 594 l 1xe4
 126 594 l 1xf0
-1 -150 m 1
 -1 -13 l 1
 68 -13 l 2
 110 -13 128 -1 128 48 c 2
 128 540 l 1
 323 540 l 1
 323 44 l 2xe8
 323 -92 268 -150 114 -150 c 2
 -1 -150 l 1
EndSplineSet
Substitution2: "'ss08' Style Set 8 in Latin lookup 41 subtable" j.ss08
Substitution2: "Single Substitution lookup 16 subtable" uni006A0301
Substitution2: "Single Substitution lookup 3 subtable" uni0237
AlternateSubs2: "'aalt' Access All Alternates in Latin lookup 1 subtable" uni006A0301 j.ss08
EndChar

StartChar: uni0237
Encoding: 567 567 229
Width: 379
GlyphClass: 2
Flags: MW
HStem: -150 137<-1 68 -1 68 68 89 -1 114> 520 20G<128 323 323 323>
VStem: 128 195<48 540>
AnchorPoint: "Anchor-3" 226 540 basechar 0
AnchorPoint: "Anchor-0" 190 -150 basechar 0
LayerCount: 2
Fore
SplineSet
-1 -150 m 1
 -1 -13 l 1
 68 -13 l 2
 110 -13 128 -1 128 48 c 2
 128 540 l 1
 323 540 l 1
 323 44 l 2
 323 -92 268 -150 114 -150 c 2
 -1 -150 l 1
EndSplineSet
EndChar

StartChar: uni006A0301
Encoding: 65577 -1 230
Width: 379
GlyphClass: 2
Flags: MW
HStem: -150 137<-1 68 -1 68 68 89 -1 114> 520 20G<128 323 323 323> 587 160<137 371 191 281>
VStem: 128 195<48 540>
AnchorPoint: "Anchor-3" 226 540 basechar 0
AnchorPoint: "Anchor-0" 190 -150 basechar 0
LayerCount: 2
Fore
SplineSet
137 587 m 1
 191 747 l 1
 371 747 l 1
 281 587 l 1
 137 587 l 1
-1 -150 m 1
 -1 -13 l 1
 68 -13 l 2
 110 -13 128 -1 128 48 c 2
 128 540 l 1
 323 540 l 1
 323 44 l 2
 323 -92 268 -150 114 -150 c 2
 -1 -150 l 1
EndSplineSet
EndChar

StartChar: jcircumflex
Encoding: 309 309 231
Width: 379
GlyphClass: 2
Flags: MW
HStem: -150 137<-1 68 -1 68 68 89 -1 114> 520 20G<128 323 323 323> 587 166<37 315 137 165 287 287 287 315 137 415>
VStem: 128 195<48 540>
AnchorPoint: "Anchor-3" 226 540 basechar 0
AnchorPoint: "Anchor-0" 190 -150 basechar 0
LayerCount: 2
Fore
SplineSet
37 587 m 1
 137 753 l 1
 315 753 l 1
 415 587 l 1
 287 587 l 1
 226 675 l 1
 165 587 l 1
 37 587 l 1
-1 -150 m 1
 -1 -13 l 1
 68 -13 l 2
 110 -13 128 -1 128 48 c 2
 128 540 l 1
 323 540 l 1
 323 44 l 2
 323 -92 268 -150 114 -150 c 2
 -1 -150 l 1
EndSplineSet
EndChar

StartChar: k
Encoding: 107 107 232
Width: 685
GlyphClass: 2
Flags: MW
HStem: 0 21G<56 56 56 250 434 434 434 640> 520 20G<410 636 636 636> 690 20G<56 250 250 250>
VStem: 56 194<0 160 364 710>
AnchorPoint: "Anchor-3" 153 700 basechar 0
AnchorPoint: "Anchor-0" 331 0 basechar 0
LayerCount: 2
Fore
SplineSet
56 0 m 1
 56 710 l 1
 250 710 l 1
 250 364 l 1
 410 540 l 1
 636 540 l 1
 428 322 l 1
 640 0 l 1
 434 0 l 1
 304 218 l 1
 250 160 l 1
 250 0 l 1
 56 0 l 1
EndSplineSet
EndChar

StartChar: uni01E9
Encoding: 489 489 233
Width: 685
GlyphClass: 2
Flags: MW
HStem: 0 21G<56 56 56 250 434 434 434 640> 520 20G<410 636 636 636> 690 20G<56 250 250 250> 747 166<64 92 214 242 64 64>
VStem: 56 194<0 160 364 710>
AnchorPoint: "Anchor-3" 153 700 basechar 0
AnchorPoint: "Anchor-0" 331 0 basechar 0
LayerCount: 2
Fore
SplineSet
-36 913 m 1
 92 913 l 1
 153 825 l 1
 214 913 l 1
 342 913 l 1
 242 747 l 1
 64 747 l 1
 -36 913 l 1
56 0 m 1
 56 710 l 1
 250 710 l 1
 250 364 l 1
 410 540 l 1
 636 540 l 1
 428 322 l 1
 640 0 l 1
 434 0 l 1
 304 218 l 1
 250 160 l 1
 250 0 l 1
 56 0 l 1
EndSplineSet
EndChar

StartChar: uni0137
Encoding: 311 311 234
Width: 685
GlyphClass: 2
Flags: MW
HStem: -180 134<256 290 256 406> 0 21G<56 56 56 250 434 434 434 640> 520 20G<410 636 636 636> 690 20G<56 250 250 250>
VStem: 56 194<0 160 364 710> 256 150<-166 -46 -166 -46 -166 -46>
AnchorPoint: "Anchor-3" 153 700 basechar 0
AnchorPoint: "Anchor-0" 331 -262 basechar 0
LayerCount: 2
Fore
SplineSet
56 0 m 1
 56 710 l 1
 250 710 l 1
 250 364 l 1
 410 540 l 1
 636 540 l 1
 428 322 l 1
 640 0 l 1
 434 0 l 1
 304 218 l 1
 250 160 l 1
 250 0 l 1
 56 0 l 1
240 -262 m 1
 290 -180 l 1
 256 -180 l 1
 256 -46 l 1
 406 -46 l 1
 406 -166 l 1xf4
 348 -262 l 1
 240 -262 l 1
EndSplineSet
EndChar

StartChar: l
Encoding: 108 108 235
Width: 343
GlyphClass: 2
Flags: MW
HStem: 0 137<168 329 300 329 300 329> 690 20G<56 250 250 250>
VStem: 56 194<169 188 188 710>
AnchorPoint: "Anchor-4" 260 540 basechar 0
AnchorPoint: "Anchor-3" 153 700 basechar 0
AnchorPoint: "Anchor-1" 177 380 basechar 0
AnchorPoint: "Anchor-0" 196 0 basechar 0
LayerCount: 2
Fore
SplineSet
220 0 m 2
 116 0 56 48 56 166 c 2
 56 710 l 1
 250 710 l 1
 250 188 l 2
 250 150 268 137 300 137 c 2
 329 137 l 1
 329 0 l 1
 220 0 l 2
EndSplineSet
Substitution2: "'ss03' Style Set 3 in Latin lookup 36 subtable" l.ss03
Substitution2: "'aalt' Access All Alternates in Latin lookup 0 subtable" l.ss03
EndChar

StartChar: lacute
Encoding: 314 314 236
Width: 343
GlyphClass: 2
Flags: MW
HStem: 0 137<168 329 300 329 300 329> 690 20G<56 250 250 250> 747 160<64 298 118 208>
VStem: 56 194<169 188 188 710>
AnchorPoint: "Anchor-4" 260 540 basechar 0
AnchorPoint: "Anchor-3" 153 700 basechar 0
AnchorPoint: "Anchor-1" 177 380 basechar 0
AnchorPoint: "Anchor-0" 196 0 basechar 0
LayerCount: 2
Fore
SplineSet
64 747 m 1
 118 907 l 1
 298 907 l 1
 208 747 l 1
 64 747 l 1
220 0 m 2
 116 0 56 48 56 166 c 2
 56 710 l 1
 250 710 l 1
 250 188 l 2
 250 150 268 137 300 137 c 2
 329 137 l 1
 329 0 l 1
 220 0 l 2
EndSplineSet
Substitution2: "'ss03' Style Set 3 in Latin lookup 36 subtable" lacute.ss03
Substitution2: "'aalt' Access All Alternates in Latin lookup 0 subtable" lacute.ss03
EndChar

StartChar: lcaron
Encoding: 318 318 237
Width: 438
GlyphClass: 2
Flags: MW
HStem: 0 137<168 329 300 329 300 329> 403 307<56 290 318 422> 690 20G<56 250 250 250 318 478 478 478>
VStem: 56 194<169 188 188 710>
AnchorPoint: "Anchor-4" 260 540 basechar 0
AnchorPoint: "Anchor-3" 153 700 basechar 0
AnchorPoint: "Anchor-1" 177 380 basechar 0
AnchorPoint: "Anchor-0" 196 0 basechar 0
LayerCount: 2
Fore
SplineSet
220 0 m 2xb0
 116 0 56 48 56 166 c 2
 56 710 l 1
 250 710 l 1
 250 188 l 2
 250 150 268 137 300 137 c 2
 329 137 l 1
 329 0 l 1
 220 0 l 2xb0
290 403 m 1xd0
 318 710 l 1
 478 710 l 1
 422 403 l 1
 290 403 l 1xd0
EndSplineSet
Substitution2: "'ss03' Style Set 3 in Latin lookup 36 subtable" lcaron.ss03
Substitution2: "'aalt' Access All Alternates in Latin lookup 0 subtable" lcaron.ss03
EndChar

StartChar: uni013C
Encoding: 316 316 238
Width: 343
GlyphClass: 2
Flags: MW
HStem: -180 134<121 155 121 271> 0 137<168 329 300 329 300 329> 690 20G<56 250 250 250>
VStem: 56 194<169 188 188 710> 121 150<-166 -46 -166 -46 -166 -46> 121 208<-180 137 -46 137>
AnchorPoint: "Anchor-4" 260 540 basechar 0
AnchorPoint: "Anchor-3" 153 700 basechar 0
AnchorPoint: "Anchor-1" 177 380 basechar 0
AnchorPoint: "Anchor-0" 196 -262 basechar 0
LayerCount: 2
Fore
SplineSet
220 0 m 2xe4
 116 0 56 48 56 166 c 2
 56 710 l 1
 250 710 l 1
 250 188 l 2xf0
 250 150 268 137 300 137 c 2
 329 137 l 1
 329 0 l 1
 220 0 l 2xe4
105 -262 m 1
 155 -180 l 1
 121 -180 l 1
 121 -46 l 1
 271 -46 l 1
 271 -166 l 1xe8
 213 -262 l 1
 105 -262 l 1
EndSplineSet
Substitution2: "'ss03' Style Set 3 in Latin lookup 36 subtable" uni013C.ss03
Substitution2: "'locl' Localized Forms in Latin lookup 11 subtable" uni013C.loclMAH
AlternateSubs2: "'aalt' Access All Alternates in Latin lookup 1 subtable" uni013C.loclMAH uni013C.ss03
EndChar

StartChar: lslash
Encoding: 322 322 239
Width: 343
GlyphClass: 2
Flags: MW
HStem: 0 137<168 329 300 329 300 329> 690 20G<56 250 250 250>
VStem: 56 194<169 188 188 279 279 279 465 710>
AnchorPoint: "Anchor-4" 260 540 basechar 0
AnchorPoint: "Anchor-3" 153 700 basechar 0
AnchorPoint: "Anchor-1" 177 380 basechar 0
AnchorPoint: "Anchor-0" 196 0 basechar 0
LayerCount: 2
Fore
SplineSet
220 0 m 2
 116 0 56 48 56 166 c 2
 56 279 l 1
 0 260 l 1
 0 380 l 1
 56 399 l 1
 56 710 l 1
 250 710 l 1
 250 465 l 1
 354 500 l 1
 354 380 l 1
 250 345 l 1
 250 188 l 2
 250 150 268 137 300 137 c 2
 329 137 l 1
 329 0 l 1
 220 0 l 2
EndSplineSet
Substitution2: "'ss03' Style Set 3 in Latin lookup 36 subtable" lslash.ss03
Substitution2: "'aalt' Access All Alternates in Latin lookup 0 subtable" lslash.ss03
EndChar

StartChar: m
Encoding: 109 109 240
Width: 915
GlyphClass: 2
Flags: MW
HStem: 0 21G<56 56 56 250 372 372 372 542 665 665 665 859> 403 137<56 334.5> 403 149<291 415.5>
VStem: 56 176 56 194<0 290 0 540> 372 170<0 290 0 328> 665 194<0 290 290 328>
AnchorPoint: "Anchor-3" 457 540 basechar 0
AnchorPoint: "Anchor-0" 457 0 basechar 0
LayerCount: 2
Fore
SplineSet
56 0 m 1xae
 56 540 l 1xce
 230 540 l 1xd6
 234 456 l 1xb6
 262 518 315 552 378 552 c 0
 453 552 504 510 527 443 c 1
 554 515 609 552 676 552 c 0
 783 552 859 483 859 347 c 2
 859 0 l 1
 665 0 l 1
 665 290 l 2
 665 366 649 403 604 403 c 0
 562 403 542 362 542 290 c 2
 542 0 l 1
 372 0 l 1
 372 290 l 2
 372 366 357 403 312 403 c 0
 270 403 250 362 250 290 c 2
 250 0 l 1
 56 0 l 1xae
EndSplineSet
EndChar

StartChar: n
Encoding: 110 110 241
Width: 631
GlyphClass: 2
Flags: MW
HStem: 0 21G<56 56 56 250 381 381 381 575> 403 137<56 345> 403 149<294.5 446>
VStem: 56 176 56 194<0 280 0 540> 381 194<0 280 280 319>
AnchorPoint: "Anchor-3" 315 540 basechar 0
AnchorPoint: "Anchor-0" 315 0 basechar 0
LayerCount: 2
Fore
SplineSet
56 0 m 1xcc
 56 540 l 1xcc
 230 540 l 1xd4
 234 457 l 1
 264 527 321 552 390 552 c 0xb4
 502 552 575 479 575 347 c 2
 575 0 l 1
 381 0 l 1
 381 280 l 2
 381 358 371 403 319 403 c 0
 270 403 250 358 250 280 c 2
 250 0 l 1
 56 0 l 1xcc
EndSplineSet
EndChar

StartChar: nacute
Encoding: 324 324 242
Width: 631
GlyphClass: 2
Flags: MW
HStem: 0 21G<56 56 56 250 381 381 381 575> 403 137<56 345> 403 149<294.5 446> 587 160<226 460 280 370>
VStem: 56 176 56 194<0 280 0 540> 381 194<0 280 280 319>
AnchorPoint: "Anchor-3" 315 540 basechar 0
AnchorPoint: "Anchor-0" 315 0 basechar 0
LayerCount: 2
Fore
SplineSet
226 587 m 1xd6
 280 747 l 1
 460 747 l 1
 370 587 l 1
 226 587 l 1xd6
56 0 m 1
 56 540 l 1xd6
 230 540 l 1xda
 234 457 l 1
 264 527 321 552 390 552 c 0xba
 502 552 575 479 575 347 c 2
 575 0 l 1
 381 0 l 1
 381 280 l 2
 381 358 371 403 319 403 c 0
 270 403 250 358 250 280 c 2
 250 0 l 1
 56 0 l 1
EndSplineSet
EndChar

StartChar: ncaron
Encoding: 328 328 243
Width: 631
GlyphClass: 2
Flags: MW
HStem: 0 21G<56 56 56 250 381 381 381 575> 403 137<56 345> 403 149<294.5 446> 587 166<226 254 376 404 226 226>
VStem: 56 176 56 194<0 280 0 540> 381 194<0 280 280 319>
AnchorPoint: "Anchor-3" 315 540 basechar 0
AnchorPoint: "Anchor-0" 315 0 basechar 0
LayerCount: 2
Fore
SplineSet
126 753 m 1xd6
 254 753 l 1
 315 665 l 1
 376 753 l 1
 504 753 l 1
 404 587 l 1
 226 587 l 1
 126 753 l 1xd6
56 0 m 1
 56 540 l 1xd6
 230 540 l 1xda
 234 457 l 1
 264 527 321 552 390 552 c 0xba
 502 552 575 479 575 347 c 2
 575 0 l 1
 381 0 l 1
 381 280 l 2
 381 358 371 403 319 403 c 0
 270 403 250 358 250 280 c 2
 250 0 l 1
 56 0 l 1
EndSplineSet
EndChar

StartChar: uni0146
Encoding: 326 326 244
Width: 631
GlyphClass: 2
Flags: MW
HStem: -180 134<240 274 240 390> 0 21G<56 56 56 250 381 381 381 575> 403 137<56 345> 403 149<294.5 446>
VStem: 56 176 56 194<0 280 0 540> 240 150<-166 -46 -166 -46 -166 -46> 381 194<0 280 280 319>
AnchorPoint: "Anchor-3" 315 540 basechar 0
AnchorPoint: "Anchor-0" 315 -262 basechar 0
LayerCount: 2
Fore
SplineSet
56 0 m 1xe5
 56 540 l 1xe5
 230 540 l 1xe9
 234 457 l 1
 264 527 321 552 390 552 c 0xd9
 502 552 575 479 575 347 c 2
 575 0 l 1
 381 0 l 1
 381 280 l 2
 381 358 371 403 319 403 c 0
 270 403 250 358 250 280 c 2
 250 0 l 1
 56 0 l 1xe5
224 -262 m 1
 274 -180 l 1
 240 -180 l 1
 240 -46 l 1
 390 -46 l 1
 390 -166 l 1xe2
 332 -262 l 1
 224 -262 l 1
EndSplineSet
Substitution2: "'locl' Localized Forms in Latin lookup 11 subtable" uni0146.loclMAH
Substitution2: "'aalt' Access All Alternates in Latin lookup 0 subtable" uni0146.loclMAH
EndChar

StartChar: ntilde
Encoding: 241 241 245
Width: 631
GlyphClass: 2
Flags: MW
HStem: 0 21G<56 56 56 250 381 381 381 575> 403 137<56 345> 403 149<294.5 446> 589 159<215.5 224 134 271> 594 111<366 379.5 366 410.5> 594 160<405 410.5> 637 111<251 264>
VStem: 56 176 56 194<0 280 0 540> 134 90<589 636> 134 98 381 194<0 280 280 319> 405 90<705.5 754>
AnchorPoint: "Anchor-3" 315 540 basechar 0
AnchorPoint: "Anchor-0" 315 0 basechar 0
LayerCount: 2
Fore
SplineSet
369 594 m 0xc488
 335 594 317 600 289 624 c 0
 279 632 269 637 259 637 c 0xc250
 243 637 228 626 224 589 c 1xd050
 134 589 l 1
 134 683 176 748 255 748 c 0xd030
 287 748 312 741 340 719 c 0
 353 709 361 705 371 705 c 0xc888
 388 705 403 715 405 754 c 1
 495 754 l 1
 495 657 452 594 369 594 c 0xc488
56 0 m 1xc490
 56 540 l 1xc490
 230 540 l 1xc510
 234 457 l 1
 264 527 321 552 390 552 c 0xa510
 502 552 575 479 575 347 c 2
 575 0 l 1
 381 0 l 1
 381 280 l 2
 381 358 371 403 319 403 c 0
 270 403 250 358 250 280 c 2
 250 0 l 1
 56 0 l 1xc490
EndSplineSet
EndChar

StartChar: eng
Encoding: 331 331 246
Width: 631
GlyphClass: 2
Flags: MW
HStem: -150 120<280 324 324 342 280 394 280 324> 0 21G 403 137<56 345> 403 149<294.5 446>
VStem: 56 176 56 194<0 280 0 540> 381 194<21 280 280 319>
AnchorPoint: "Anchor-3" 315 540 basechar 0
AnchorPoint: "Anchor-0" 315 0 basechar 0
LayerCount: 2
Fore
SplineSet
56 0 m 1x66
 56 540 l 1xa6
 230 540 l 1xaa
 234 457 l 1
 264 527 321 552 390 552 c 0
 502 552 575 479 575 347 c 2
 575 0 l 2
 575 -83 506 -150 394 -150 c 2
 280 -150 l 1
 280 -30 l 1
 324 -30 l 2x9a
 360 -30 381 -11 381 21 c 2
 381 280 l 2
 381 358 371 403 319 403 c 0
 270 403 250 358 250 280 c 2
 250 0 l 1
 56 0 l 1x66
EndSplineSet
EndChar

StartChar: o
Encoding: 111 111 247
Width: 648
GlyphClass: 2
Flags: MW
HStem: -12 139<294 354 294 412> 413 139<294 354>
VStem: 32 199<224 315.5 224 354.5> 417 199<224 315.5>
AnchorPoint: "Anchor-3" 324 540 basechar 0
AnchorPoint: "Anchor-1" 324 270 basechar 0
AnchorPoint: "Anchor-0" 324 0 basechar 0
LayerCount: 2
Fore
SplineSet
324 -12 m 0
 148 -12 32 100 32 270 c 0
 32 439 148 552 324 552 c 0
 500 552 616 439 616 270 c 0
 616 100 500 -12 324 -12 c 0
324 127 m 0
 384 127 417 178 417 270 c 0
 417 361 384 413 324 413 c 0
 264 413 231 361 231 270 c 0
 231 178 264 127 324 127 c 0
EndSplineSet
Substitution2: "Single Substitution lookup 27 subtable" ordmasculine
Substitution2: "'aalt' Access All Alternates in Latin lookup 0 subtable" ordmasculine
EndChar

StartChar: oacute
Encoding: 243 243 248
Width: 648
GlyphClass: 2
Flags: MW
HStem: -12 139<294 354 294 412> 413 139<294 354> 587 160<235 469 289 379>
VStem: 32 199<224 315.5 224 354.5> 417 199<224 315.5>
AnchorPoint: "Anchor-3" 324 540 basechar 0
AnchorPoint: "Anchor-1" 324 270 basechar 0
AnchorPoint: "Anchor-0" 324 0 basechar 0
LayerCount: 2
Fore
SplineSet
235 587 m 1
 289 747 l 1
 469 747 l 1
 379 587 l 1
 235 587 l 1
324 -12 m 0
 148 -12 32 100 32 270 c 0
 32 439 148 552 324 552 c 0
 500 552 616 439 616 270 c 0
 616 100 500 -12 324 -12 c 0
324 127 m 0
 384 127 417 178 417 270 c 0
 417 361 384 413 324 413 c 0
 264 413 231 361 231 270 c 0
 231 178 264 127 324 127 c 0
EndSplineSet
EndChar

StartChar: ocircumflex
Encoding: 244 244 249
Width: 648
GlyphClass: 2
Flags: MW
HStem: -12 139<294 354 294 412> 413 139<294 354> 587 166<135 413 235 263 385 385 385 413 235 513>
VStem: 32 199<224 315.5 224 354.5> 417 199<224 315.5>
AnchorPoint: "Anchor-3" 324 540 basechar 0
AnchorPoint: "Anchor-1" 324 270 basechar 0
AnchorPoint: "Anchor-0" 324 0 basechar 0
LayerCount: 2
Fore
SplineSet
135 587 m 1
 235 753 l 1
 413 753 l 1
 513 587 l 1
 385 587 l 1
 324 675 l 1
 263 587 l 1
 135 587 l 1
324 -12 m 0
 148 -12 32 100 32 270 c 0
 32 439 148 552 324 552 c 0
 500 552 616 439 616 270 c 0
 616 100 500 -12 324 -12 c 0
324 127 m 0
 384 127 417 178 417 270 c 0
 417 361 384 413 324 413 c 0
 264 413 231 361 231 270 c 0
 231 178 264 127 324 127 c 0
EndSplineSet
EndChar

StartChar: odieresis
Encoding: 246 246 250
Width: 648
GlyphClass: 2
Flags: MW
HStem: -12 139<294 354 294 412> 413 139<294 354> 590 136<113 293 113 293 355 535 113 355>
VStem: 32 199<224 315.5 224 354.5> 113 180<590 726 590 726> 355 180<590 726 590 726> 417 199<224 315.5>
AnchorPoint: "Anchor-3" 324 540 basechar 0
AnchorPoint: "Anchor-1" 324 270 basechar 0
AnchorPoint: "Anchor-0" 324 0 basechar 0
LayerCount: 2
Fore
SplineSet
113 590 m 1xec
 113 726 l 1
 293 726 l 1
 293 590 l 1
 113 590 l 1xec
355 590 m 1
 355 726 l 1
 535 726 l 1
 535 590 l 1
 355 590 l 1
324 -12 m 0
 148 -12 32 100 32 270 c 0
 32 439 148 552 324 552 c 0
 500 552 616 439 616 270 c 0xf2
 616 100 500 -12 324 -12 c 0
324 127 m 0
 384 127 417 178 417 270 c 0
 417 361 384 413 324 413 c 0
 264 413 231 361 231 270 c 0
 231 178 264 127 324 127 c 0
EndSplineSet
Substitution2: "'ss08' Style Set 8 in Latin lookup 41 subtable" odieresis.ss08
Substitution2: "'aalt' Access All Alternates in Latin lookup 0 subtable" odieresis.ss08
EndChar

StartChar: ograve
Encoding: 242 242 251
Width: 648
GlyphClass: 2
Flags: MW
HStem: -12 139<294 354 294 412> 413 139<294 354> 594 160<265 265 265 355 175 409>
VStem: 32 199<224 315.5 224 354.5> 417 199<224 315.5>
AnchorPoint: "Anchor-3" 324 540 basechar 0
AnchorPoint: "Anchor-1" 324 270 basechar 0
AnchorPoint: "Anchor-0" 324 0 basechar 0
LayerCount: 2
Fore
SplineSet
265 594 m 1
 175 754 l 1
 355 754 l 1
 409 594 l 1
 265 594 l 1
324 -12 m 0
 148 -12 32 100 32 270 c 0
 32 439 148 552 324 552 c 0
 500 552 616 439 616 270 c 0
 616 100 500 -12 324 -12 c 0
324 127 m 0
 384 127 417 178 417 270 c 0
 417 361 384 413 324 413 c 0
 264 413 231 361 231 270 c 0
 231 178 264 127 324 127 c 0
EndSplineSet
EndChar

StartChar: ohungarumlaut
Encoding: 337 337 252
Width: 648
GlyphClass: 2
Flags: MW
HStem: -12 139<294 354 294 412> 413 139<294 354> 587 160<150 384 204 294 358 384 412 502 358 358>
VStem: 32 199<224 315.5 224 354.5> 417 199<224 315.5>
AnchorPoint: "Anchor-3" 324 540 basechar 0
AnchorPoint: "Anchor-1" 324 270 basechar 0
AnchorPoint: "Anchor-0" 324 0 basechar 0
LayerCount: 2
Fore
SplineSet
150 587 m 1
 204 747 l 1
 384 747 l 1
 294 587 l 1
 150 587 l 1
358 587 m 1
 412 747 l 1
 592 747 l 1
 502 587 l 1
 358 587 l 1
324 -12 m 0
 148 -12 32 100 32 270 c 0
 32 439 148 552 324 552 c 0
 500 552 616 439 616 270 c 0
 616 100 500 -12 324 -12 c 0
324 127 m 0
 384 127 417 178 417 270 c 0
 417 361 384 413 324 413 c 0
 264 413 231 361 231 270 c 0
 231 178 264 127 324 127 c 0
EndSplineSet
EndChar

StartChar: omacron
Encoding: 333 333 253
Width: 648
GlyphClass: 2
Flags: MW
HStem: -12 139<294 354 294 412> 413 139<294 354> 595 135<164 484 164 484>
VStem: 32 199<224 315.5 224 354.5> 164 320<595 730 595 730> 417 199<224 315.5>
AnchorPoint: "Anchor-3" 324 540 basechar 0
AnchorPoint: "Anchor-1" 324 270 basechar 0
AnchorPoint: "Anchor-0" 324 0 basechar 0
LayerCount: 2
Fore
SplineSet
164 595 m 1xe8
 164 730 l 1
 484 730 l 1
 484 595 l 1
 164 595 l 1xe8
324 -12 m 0
 148 -12 32 100 32 270 c 0
 32 439 148 552 324 552 c 0
 500 552 616 439 616 270 c 0xf4
 616 100 500 -12 324 -12 c 0
324 127 m 0
 384 127 417 178 417 270 c 0
 417 361 384 413 324 413 c 0
 264 413 231 361 231 270 c 0
 231 178 264 127 324 127 c 0
EndSplineSet
EndChar

StartChar: oslash
Encoding: 248 248 254
Width: 648
GlyphClass: 2
Flags: MW
HStem: -14 75<62 117 117 117 117 172> -12 139<316 354 316 412> 413 139<294 332> 479 75<531 531>
VStem: 32 199<261.5 315.5 261.5 354.5> 417 199<224 278.5>
AnchorPoint: "Anchor-3" 324 540 basechar 0
AnchorPoint: "Anchor-1" 324 270 basechar 0
AnchorPoint: "Anchor-0" 324 0 basechar 0
LayerCount: 2
Fore
SplineSet
62 -14 m 1x5c
 117 61 l 1
 63 110 32 182 32 270 c 0
 32 439 148 552 324 552 c 0xac
 373 552 418 543 456 527 c 1
 476 554 l 1
 586 554 l 1
 531 479 l 1
 585 429 616 357 616 270 c 0
 616 100 500 -12 324 -12 c 0
 275 -12 230 -3 192 13 c 1
 172 -14 l 1
 62 -14 l 1x5c
231 270 m 0
 231 253 232 237 234 223 c 1
 366 402 l 1
 354 409 340 413 324 413 c 0
 264 413 231 361 231 270 c 0
324 127 m 0
 384 127 417 178 417 270 c 0
 417 287 416 303 413 317 c 1
 282 137 l 1x6c
 294 131 308 127 324 127 c 0
EndSplineSet
EndChar

